<svg version="1.2" baseProfile="tiny-ps" xmlns="http://www.w3.org/2000/svg" viewBox="0 0 279 280" width="279" height="280">
	<title>Graphic Elements</title>
	<style>
		tspan { white-space:pre }
		.shp0 { fill: #000000 } 
	</style>
	<g id="Graphic Elements">
		<path id="&lt;Compound Path&gt;" fill-rule="evenodd" class="shp0" d="M278.88 2.44C273.05 14.12 266.7 25.55 259.86 36.68C259.34 37.52 257.66 37.29 256.82 37.23C256.07 37.18 253.6 37.03 253.18 36.15C251 31.59 248.75 27.05 246.47 22.54C246.45 22.55 246.43 22.57 246.41 22.58C244.86 23.54 243.27 24.45 241.77 25.51C237.9 28.23 234.11 31.05 230.32 33.87C224.39 38.27 218.6 42.86 212.97 47.64C210.15 50.02 207.37 52.45 204.64 54.93C203.27 56.17 201.9 57.41 200.56 58.67C200.05 59.15 199.79 59.68 199.36 60.2C198.38 61.43 197.01 62.44 195.9 63.56C194.37 65.12 192.9 66.75 191.53 68.45C187.82 73.05 184.19 77.7 180.58 82.38C179.85 83.68 178.67 84.87 177.76 86.05C176.82 87.27 175.88 88.5 174.94 89.72C173.14 92.07 171.57 94.61 169.77 96.98C169.3 97.61 168.27 98.48 168.17 99.3C168.14 99.6 168.27 99.92 168.34 100.2C169.01 102.72 169.47 105.27 169.87 107.83C170.45 111.49 170.85 115.17 171.07 118.86C171.25 122.02 171.3 125.19 171.22 128.35C171.2 129.14 171.17 129.93 171.13 130.72C171.09 131.5 171.17 132.45 170.98 133.2C170.84 133.77 170.48 134.33 170.28 134.89C170.02 135.62 169.82 136.36 169.64 137.1C168.39 142.29 166.97 147.44 165.41 152.55C162.58 161.85 157.24 169.5 150.72 176.41C147.64 179.68 144.31 182.77 140.19 184.94C138.89 185.63 137.55 186.42 136.07 186.64C135.19 186.76 133.87 186.77 133 186.5C130.67 185.75 129.11 183.1 128.58 180.86C127.97 178.27 128.32 175.55 128.82 172.93C131.21 160.24 136.71 148.39 142.24 136.72L142.94 135.25C146.27 128.23 149.63 121.23 153 114.23C154.68 110.73 156.37 107.23 158.06 103.73C158.9 102 159.64 100.16 160.59 98.48C160.73 98.24 161.06 97.96 161.14 97.7C161.34 96.98 160.02 95.7 159.58 95.21C158.88 94.44 158.26 93.86 157.67 92.97C156.29 90.92 154.35 89.27 152.15 88.16C151.37 87.77 150.56 87.45 149.72 87.21C148.25 86.8 146.71 86.62 145.19 86.61C143.68 86.61 142.09 87.02 140.6 87.28C137.32 87.86 134.08 88.59 130.88 89.48C126.59 90.67 122.38 92.13 118.27 93.85C116.22 94.71 114.2 95.63 112.2 96.62C111.4 97.02 110.7 97.31 109.84 97.54C108.77 97.83 107.83 98.62 106.91 99.19C104.66 100.58 102.42 101.97 100.19 103.39C93.41 107.71 87.42 112.88 81.89 118.63C75.56 125.22 69.32 131.9 63.04 138.54C59.74 142.03 57.11 146.06 54.6 150.09C47.84 160.92 41.27 171.87 34.88 182.92C34.23 184.05 33.57 185.19 32.95 186.34C32.47 187.2 32.02 188.07 31.58 188.95C30.28 191.6 29.2 194.35 28.62 197.3C28.77 197.62 28.76 197.86 28.55 198.03C28.48 198.08 28.38 198.13 28.27 198.17C28.26 198.19 28.24 198.23 28.24 198.23C28.4 198.51 28.37 198.74 28.2 198.91C28.14 198.97 28.07 199.02 27.97 199.07C27.88 199.35 27.78 199.63 27.68 199.91C27.61 199.96 27.57 200.02 27.55 200.09C27.53 200.15 27.53 200.22 27.55 200.3C27.7 200.59 27.79 200.85 27.78 201.09C27.77 201.18 27.75 201.27 27.71 201.35C27.62 201.53 27.44 201.68 27.14 201.79C24.46 210.23 21.84 218.68 19.09 227.08C18.95 227.51 18.82 227.93 18.68 228.35C16.4 235.37 14.25 242.45 12.47 249.62C11.67 252.87 11.36 256.57 10.08 259.64C8.73 262.86 7.72 266.23 7.07 269.66C6.63 271.97 6.34 274.35 5.27 276.44C4.7 277.57 3.3 279.59 1.9 279.79C-0.15 280.08 0.78 276.43 0.9 275.54C3.3 257.09 6.94 238.77 12.25 220.93C21.84 188.73 37.02 157.9 58.87 132.22C69.84 119.32 82.53 107.28 96.85 98.16C106.69 91.89 117.91 87.29 129.32 84.74C131.06 84.35 132.81 84.01 134.57 83.73C136.52 83.42 138.71 82.93 140.7 83.03C141.35 83.07 141.93 83.05 142.59 82.98C144.09 82.85 145.6 82.87 147.09 83.04C150.25 83.41 153.06 84.66 155.99 85.79C157.46 86.36 158.82 87.91 159.93 89C161.27 90.31 162.52 91.7 163.74 93.11C164.12 93.55 164.5 93.99 164.87 94.43C164.76 94.3 168.13 90.54 168.53 90.01C169.86 88.22 171.21 86.43 172.57 84.65C175.3 81.09 178.08 77.56 180.9 74.07C181.78 72.99 182.66 71.92 183.54 70.84C188.11 65.28 192.88 59.86 198.03 54.82C199.54 53.33 201.09 51.87 202.67 50.45C207.17 46.42 211.94 42.71 216.71 39.02C222.53 34.53 228.37 30.07 234.43 25.91C237.82 23.59 241.29 21.38 244.84 19.32C242.3 14.35 239.7 9.41 237.03 4.5C236.87 4.2 237.05 4.01 237.36 3.88C237.18 3.53 237 3.18 236.83 2.83C236.44 2.05 238.08 2.01 238.5 1.98C244.85 1.55 251.2 1.09 257.55 0.69C263.89 0.29 270.2 0.25 276.5 1.28C276.65 1.3 279.18 1.85 278.88 2.44ZM166.25 110.96C165.9 110.06 165.67 109.11 165.41 108.17C165.38 108.06 165.35 107.95 165.32 107.84L164.84 106.12C164.77 105.9 164.35 104.91 164.42 104.68C164.27 105.03 164.15 105.43 163.94 105.74C163.88 105.84 163.73 105.85 163.67 105.94C163.29 106.48 163.17 107.11 162.86 107.67C159.31 113.95 157.12 120.84 154.06 127.35C147.94 140.36 141.95 153.43 137.34 167.08C135.81 171.64 134.91 176.26 135.84 181.09C136.17 182.78 136.6 183.49 138.5 182.28C145.43 177.89 150.38 171.63 155.08 165.12C160.78 157.22 162.89 147.87 165.46 138.74C166.41 135.39 167.1 131.97 167.47 128.51C167.89 124.57 167.88 120.59 167.39 116.65C167.16 114.77 166.93 112.73 166.25 110.96ZM164.43 104.66C164.42 104.67 164.42 104.68 164.42 104.68C164.42 104.68 164.42 104.67 164.43 104.66ZM271.67 2.5C267.43 2.16 263.12 2.49 258.9 2.78C253.86 3.12 248.82 3.46 243.78 3.81C244.64 5.52 245.5 7.24 246.36 8.96C246.49 9.22 246.38 9.39 246.16 9.52C247.42 11.88 248.66 14.24 249.89 16.61C250.03 16.54 250.16 16.48 250.3 16.41C250.63 16.25 250.96 16.09 251.29 15.91C252.57 15.23 253.85 14.54 255.14 13.85C255.87 13.46 257.09 12.47 257.92 13.15C258.4 13.53 258.46 13.98 258.05 14.35C257.52 14.83 256.9 15.24 256.33 15.66C255.24 16.48 254.12 17.26 252.99 18.02C252.41 18.41 251.81 18.78 251.21 19.16C253.05 22.75 254.86 26.35 256.64 29.97C261.96 20.99 266.99 11.83 271.67 2.5Z" />
	</g>
</svg>