<svg version="1.2" baseProfile="tiny-ps" xmlns="http://www.w3.org/2000/svg" viewBox="0 0 115 87" width="115" height="87">
	<title>Graphic Elements</title>
	<style>
		tspan { white-space:pre }
		.shp0 { fill: #3f3f3f } 
	</style>
	<g id="Graphic Elements">
		<g id="&lt;Group&gt;">
			<path id="&lt;Path&gt;" class="shp0" d="M94.62 72.24C94.62 72.24 94.62 72.24 94.62 72.24C94.77 72.31 94.86 72.42 94.86 72.59C96.6 73.34 97.95 74.53 99.06 76.12C97.89 77.04 97.05 76.13 96.14 75.84C92.14 75.28 88.14 74.67 84.13 74.16C82.24 73.92 80.41 74.13 78.99 75.64C78.43 77.55 80.1 77.75 81.13 78.44C82.35 78.55 83.57 78.67 84.79 78.79C85.44 78.35 86.1 78.38 86.76 78.76C89.2 79.16 91.64 79.55 94.07 79.95C99.36 80.92 104.31 82.66 108.45 86.24C108.45 86.24 108.45 86.24 108.45 86.24C108.56 86.44 108.67 86.77 108.78 86.92C108.82 86.97 108.86 87 108.9 87.01C111.02 87.12 113.1 86.54 114.39 84.97C115.22 83.96 114.11 82.54 113.38 81.44C113.11 81.04 113.01 80.53 112.78 80.11C108.33 71.94 105.12 63.12 99.68 55.48C98.73 54.15 97.94 52.37 95.85 53.37C93.98 54.25 92.51 55.55 93.54 57.98C94.55 59.13 95.67 60.21 95.61 61.91C95.61 61.91 95.62 61.94 95.65 61.99C97.12 63.25 97.33 65.14 98.67 67.42C96.69 66.19 95.71 65.27 95.37 63.79C95.11 63.72 94.88 63.62 94.65 63.51C93.99 63.18 93.44 62.68 92.88 62.11C90.16 59.36 87.52 56.47 84.48 54.1C75.18 46.86 65.52 40.09 55.46 33.92C49.77 30.43 44.3 26.65 38.93 22.68C34.14 19.15 28.88 16.27 23.82 13.14C16.72 8.74 8.62 6.04 2.44 -0.06C-0.74 9.2 -0.72 9.25 7.39 13.11C7.57 13.2 7.79 13.23 7.97 13.32C21.51 20.11 35.2 26.61 47.03 36.32C54.2 42.2 61.82 47.46 69.68 52.38C71.9 53.38 74.05 54.5 75.99 56C76.52 56.4 77.06 56.79 77.6 57.18C78.36 57.44 79.05 57.79 79.68 58.25C80.3 58.7 80.85 59.25 81.32 59.9C81.33 59.9 81.33 59.9 81.33 59.9C81.75 60.31 82.18 60.71 82.6 61.12C85 61.87 86.45 63.69 87.8 65.65C87.8 65.65 87.8 65.65 87.8 65.65C87.93 65.67 88.01 65.75 88.04 65.89C90.12 67.04 91.8 68.62 93.06 70.64C93.06 70.64 93.06 70.64 93.06 70.64C93.21 70.68 93.3 70.77 93.32 70.93C94.1 71.02 94.56 71.44 94.62 72.24Z" />
		</g>
	</g>
</svg>