<svg version="1.2" baseProfile="tiny-ps" xmlns="http://www.w3.org/2000/svg" viewBox="0 0 145 185" width="145" height="185">
	<title>Graphic Elements</title>
	<style>
		tspan { white-space:pre }
		.shp0 { fill: #000000 } 
	</style>
	<g id="Graphic Elements">
		<path id="&lt;Compound Path&gt;" fill-rule="evenodd" class="shp0" d="M3.78 166.09C6.93 159.74 11.2 154 14.09 147.49C15.26 144.84 16.16 142.36 18.65 140.62C18.97 140.4 19.35 140.18 19.74 140.26C20.16 140.35 20.42 140.76 20.63 141.13C21.89 143.31 23.14 145.48 24.4 147.66C25.49 149.55 26.47 153.46 29.31 152.03C36.26 148.52 42.77 144.16 48.72 139.15C52.31 136.13 56.14 132.95 58.78 129.07C60.69 126.26 63.41 123.77 65.61 121.17C70.11 115.82 74.45 110.33 78.63 104.72C86.98 93.5 94.65 81.77 101.6 69.63C104.95 63.79 107.45 57.46 109.96 51.18C114.86 38.9 119.03 26.12 120.23 12.89C120.45 10.48 121.08 7.87 120.6 5.46C120.47 4.8 120.09 4.03 120.17 3.34C120.42 1.31 123.77 1.6 125.23 1.49C130.78 1.04 136.32 0.6 141.87 0.16C142.45 0.11 143.07 0.07 143.58 0.34C145.8 1.48 143.55 4.93 143.31 6.55C142.84 9.79 142.46 13.05 142.18 16.31C141.45 24.89 140.12 33.26 137.33 41.4C136.65 43.39 136.15 45.44 135.51 47.44C134.07 51.93 132.51 56.39 130.67 60.74C129.79 62.82 128.61 64.82 128.16 67.03C127.69 69.39 126.14 71.82 125.07 73.96C122.75 78.63 120.19 83.19 117.63 87.74C115.42 91.66 113.21 95.59 111 99.51C108.49 103.98 106.18 108.7 103.16 112.84C99.34 118.1 94.88 122.82 91.13 128.13C88.35 132.07 84.66 135.35 81.76 139.21C78.31 143.78 74.72 148.12 70.25 151.76C67.28 154.19 63.79 155.75 60.79 158.08C55 162.57 48.96 166.68 42.52 170.18C41.12 170.94 41.05 171.8 41.5 172.93C41.96 174.07 42.53 175.19 43.22 176.21C44.37 177.94 45.29 179.76 45.46 181.84C45.61 183.78 44.63 185.17 42.69 184.99C38.02 184.56 33.62 182.78 28.94 182.22C24.02 181.63 19.1 180.82 14.31 179.62C10.01 178.54 5.23 178.66 1.69 175.31C0.61 174.74 0.58 173.71 0.91 172.83C1.77 170.55 2.7 168.28 3.78 166.09ZM10.31 175.09C19.45 176.69 28.55 178.59 37.66 180.37C38.09 180.45 38.59 180.87 38.96 180.32C39.32 179.77 39.09 179.21 38.79 178.71C37.76 176.99 36.38 175.51 35.67 173.56C34.19 169.47 34.18 168.92 37.92 166.84C47.24 161.66 55.84 155.38 64.76 149.59C69.02 146.83 71.9 142.73 75.07 138.91C82.71 129.68 90.59 120.65 98.02 111.25C101.08 107.37 103.17 102.74 105.39 98.26C108.09 92.77 111.54 87.66 114.3 82.2C118.85 73.24 123.2 64.17 127.46 55.06C133.55 42.05 136.17 28.15 137.6 13.96C137.83 11.58 138.05 9.19 138.4 6.82C138.6 5.42 138.19 4.84 136.75 4.9C135.51 4.96 134.25 4.86 133.01 4.87C128.56 4.9 128.42 4.9 128.07 9.21C127.17 20.15 123.36 30.3 119.71 40.47C116.73 48.77 113.61 57.02 110.28 65.18C107.54 71.93 103.59 78.07 99.81 84.28C95.55 91.28 90.56 97.83 86.94 105.23C84.02 111.23 79.62 116.17 75.35 121.18C72.31 124.75 69.44 128.54 65.96 131.61C60.27 136.61 56.15 143.28 49.53 147.22C44.93 149.97 40.1 152.33 35.37 154.87C33.68 155.78 31.95 156.61 30.33 157.63C27.07 159.7 24 158.83 22.55 155.27C21.97 153.86 21.45 152.44 20.31 151.19C15.62 157.62 12.46 164.63 8.75 171.31C7.72 173.15 7.2 174.55 10.31 175.09Z" />
	</g>
</svg>