<svg version="1.2" baseProfile="tiny-ps" xmlns="http://www.w3.org/2000/svg" viewBox="0 0 171 156" width="171" height="156">
	<title>Graphic Elements</title>
	<style>
		tspan { white-space:pre }
		.shp0 { fill: #000000 } 
	</style>
	<g id="Graphic Elements">
		<path id="&lt;Compound Path&gt;" class="shp0" d="M170.33 117.14C170.29 117.1 170.25 117.07 170.2 117.04C168.92 116.21 167.64 118.09 167.24 119.56C166.15 123.55 164.88 127.48 163.42 131.34C162.7 133.27 161.95 135.2 161.1 137.08C159.97 139.57 159.32 135.8 158.84 134.49C157.22 130.07 155.9 125.55 154.21 121.16C152.15 115.83 150.9 110.35 148.67 105.11C142.62 90.88 136.77 76.47 128.71 63.22C126.31 59.28 123.85 55.37 121.33 51.5C120 49.47 118.39 47.51 117.26 45.39C116.11 43.22 114.75 41.17 113.19 39.28C112.34 38.25 111.29 37.35 110.61 36.2C109.27 33.95 107.36 32.52 105.4 30.71C102.29 27.82 99.05 25.07 95.71 22.45C90.33 18.23 84.67 14.36 78.77 10.88C75.82 9.14 72.82 7.5 69.76 5.96C61.31 1.71 51.58 0.47 42.18 0.89C28.09 1.52 14.98 5.13 2.71 12C1.79 12.52 1.1 13.09 0.82 14.14C3.31 14.68 3.23 14.51 5.86 13.33C16.11 8.73 26.45 4.93 37.97 4.22C47.12 3.65 55.65 3.78 64.04 8.14C74.84 13.76 85.2 19.93 93.83 28.6C99.12 33.92 104.47 39.29 108.75 45.44C110.25 47.6 112.24 49.44 113.75 51.64C123.9 66.39 131.82 82.11 137.7 99.03C139.13 103.12 140.47 107.24 141.78 111.37C142.94 115.04 144.5 118.44 145.6 122.1C145.91 123.11 146.2 124.12 146.48 125.13C147.11 127.41 147.35 129.76 148.04 132.02C148.55 133.66 149.11 135.29 149.64 136.93C150.02 138.08 150.86 139.64 150.69 140.85C148.68 139.8 146.82 138.09 144.98 136.75C143.03 135.34 141.09 133.93 139.15 132.52C138.36 131.94 137.06 131.45 136.57 132.3C135.8 133.29 136.81 134.65 137.76 135.47C144.93 141.73 152.11 147.99 159.28 154.25C160.27 155.11 161.65 156.02 162.77 155.35C163.44 154.95 163.71 154.14 163.94 153.39C165.45 148.34 167.44 143.33 168.38 138.17C168.38 136.61 168.98 134.84 169.25 133.29C169.55 131.58 169.84 129.87 170.12 128.15C170.34 126.77 170.8 125.45 170.84 124.06C170.89 122.46 170.9 120.85 170.93 119.25C170.94 118.49 170.89 117.61 170.33 117.14Z" />
	</g>
</svg>