<svg version="1.2" baseProfile="tiny-ps" xmlns="http://www.w3.org/2000/svg" viewBox="0 0 179 209" width="179" height="209">
	<title>Graphic Elements</title>
	<style>
		tspan { white-space:pre }
		.shp0 { fill: #3f3f3f } 
	</style>
	<g id="Graphic Elements">
		<path id="&lt;Path&gt;" class="shp0" d="M2.24 207.58C3.59 207 4.92 206.42 6.25 205.85C9.3 204.53 12.18 203.28 15.14 202.06L16.37 201.55C20.67 199.79 25.13 197.96 29.14 195.25C32.36 193.07 35.71 190.96 38.95 188.92C41.22 187.49 43.49 186.06 45.74 184.59C55.62 178.16 67.06 170.25 76.98 160.4C78.69 158.7 80.41 157.02 82.13 155.34C88.48 149.13 95.04 142.71 100.85 135.75C106.53 128.95 111.88 121.72 117.06 114.73L119.66 111.22C124.87 104.22 130.33 96.69 134.84 88.34C137.63 83.19 140.64 77.74 144.13 72.56C145.17 71.01 146.2 69.45 147.2 67.88C149.99 63.53 152.62 59.09 155.02 54.51C156.03 52.59 157.37 50.53 157.76 48.38C158.21 45.93 159.55 43.32 160.61 41.06C161.32 39.53 162.15 38.05 162.97 36.57C164.83 33.23 166.69 29.88 168.55 26.54C169.48 24.86 170.4 23.19 171.34 21.52C171.68 20.91 171.91 20.37 172.43 21.12C172.59 21.34 172.64 21.65 172.67 21.91C172.9 23.76 172.43 25.96 172.32 27.84C172.05 32.72 171.81 37.61 171.61 42.5C172.83 43.1 174.1 43.6 175.41 43.99C175.25 43.95 176.24 39.07 176.48 38.49C177.22 36.76 177.55 34.93 177.71 33.06C177.9 30.84 178.16 28.62 178.22 26.4C178.31 23.12 178.44 19.82 178.23 16.55C178.05 13.79 178.94 10.93 177.6 8.26C177.65 8.21 177.75 8.15 177.74 8.11C177.72 8.06 177.69 8 177.66 7.94C177.63 7.89 177.6 7.83 177.57 7.78C177.3 6.07 177.04 4.36 176.77 2.64C176.63 1.74 176.3 0.78 175.32 0.73C173.26 0.64 171.42 0.87 169.9 2.84C167.84 5.49 165.5 7.95 163.8 10.86C162.08 13.8 158.99 15.76 158.06 19.28C157.8 20.28 157.37 21.05 158.47 21.59C159.73 22.21 160.96 22.07 161.76 20.81C162.19 20.12 162.37 19.31 162.8 18.57C164.18 16.22 165.88 14.08 167.57 11.95C168.56 10.7 169.47 9.39 170.39 8.08C170.59 7.79 171.59 5.81 172.06 5.88C172.61 5.97 172.5 7.05 172.5 7.54C172.48 9.51 171.52 11.1 171.07 12.94C170.92 13.52 170.84 14.09 170.61 14.65C169.83 16.54 168.64 18.33 167.66 20.13C165.58 23.93 163.5 27.73 161.42 31.53C156.14 41.18 150.85 50.85 144.83 60.07C143.54 62.04 141.72 64.03 141.04 66.31C140.35 68.63 138.75 70.6 137.48 72.64C134.7 77.13 132.03 81.68 129.53 86.33C129.38 86.6 129.24 86.87 129.1 87.13C125.09 94.67 119.96 101.64 115.01 108.39L113.81 110.02C108.98 116.6 103.83 123.21 99.39 128.9C97.03 131.91 94.57 134.8 92.05 137.5C88.88 140.91 85.51 144.26 82.26 147.5L81.71 148.04C80.39 149.35 79.1 150.68 77.8 152C74.52 155.36 71.13 158.82 67.54 161.88C56.67 171.13 44.76 179.05 32.51 187.01C25.2 191.75 16.94 195.97 6.69 200.2C6.05 200.43 5.25 200.66 4.56 201.06C4.48 201.09 4.41 201.12 4.32 201.15C2.89 201.63 -0.07 202.64 0.11 206.18C0.11 206.21 0.11 206.25 0.12 206.28L0.26 208.43L2.24 207.58Z" />
	</g>
</svg>