<svg version="1.2" baseProfile="tiny-ps" xmlns="http://www.w3.org/2000/svg" viewBox="0 0 149 224" width="149" height="224">
	<title>Graphic Elements</title>
	<style>
		tspan { white-space:pre }
		.shp0 { fill: #000000 } 
	</style>
	<g id="Graphic Elements">
		<path id="&lt;Path&gt;" class="shp0" d="M147.7 213.44C147.6 213.22 147.5 213.01 147.4 212.8C147.37 211.45 147.26 210.15 145.56 209.85L145.55 209.84C145.43 209.05 145.26 208.29 144.77 207.79C144.47 207.49 144.05 207.28 143.46 207.21C143.29 206.99 143.12 206.77 142.95 206.55C142.78 206.33 142.61 206.11 142.44 205.89L142.44 205.89C142.4 205.21 142.33 204.54 141.4 204.56C141.18 203.43 140.78 202.45 139.88 201.89C139.59 201.7 139.23 201.56 138.81 201.47C138.76 201.46 138.72 201.43 138.69 201.4C138.66 201.36 138.64 201.32 138.63 201.26C138.46 199.86 138.35 198.43 136.71 197.86C136.61 197.8 136.56 197.7 136.58 197.58C136.64 196.98 136.71 196.37 136.1 196.11C136.02 196.07 135.91 196.04 135.8 196.01C135.74 195.97 135.69 195.92 135.66 195.86C135.63 195.8 135.6 195.74 135.59 195.67C135.47 195.49 135.35 195.31 135.23 195.14C135.08 194.78 134.93 194.43 134.78 194.08C135.02 191.62 133.17 190.04 132.16 188.14C131.5 186.88 130.92 185.28 129.21 184.85C129.23 184.4 129.19 183.98 128.92 183.74C128.77 183.6 128.53 183.52 128.18 183.53C128.17 182.83 128.14 182.16 127.18 182.16L127.18 182.15C127.17 181.89 127.14 181.63 127.07 181.42C127.01 181.28 126.94 181.16 126.83 181.07C126.67 180.93 126.44 180.86 126.08 180.9C126.11 180.17 126.04 179.51 125.06 179.54C123.58 177.93 122.25 176.22 121.45 174.15C122.02 173.39 121.52 173.29 120.9 173.26C120.7 172.96 120.51 172.65 120.31 172.34C120.37 172.25 120.43 172.16 120.49 172.07C120.37 172.07 120.25 172.07 120.13 172.07C120.04 171.97 120.01 171.87 120.05 171.74C120.15 170.91 120.07 170.16 119.54 169.62C119.37 169.45 119.14 169.29 118.85 169.16C118.69 168.82 118.52 168.47 118.35 168.13C118.1 166.26 117.46 164.6 116.48 163.11C115.9 162.22 115.18 161.4 114.35 160.64C113.93 159.97 113.52 159.31 113.1 158.64C113.17 157.03 112.43 155.93 111.21 155.14C111.04 155.03 110.86 154.93 110.66 154.82C110.14 154.11 109.61 153.39 109.08 152.67C109.09 152.31 109.08 151.95 108.94 151.7C108.91 151.63 108.86 151.57 108.81 151.52C108.66 151.37 108.42 151.29 108.04 151.31C107.98 150.89 107.94 150.46 107.85 150.06C107.79 149.79 107.7 149.54 107.56 149.32C107.45 149.16 107.31 149.01 107.13 148.89C106.95 148.77 106.73 148.67 106.46 148.6C106.42 147.44 106.17 146.39 105.41 145.61C105.29 145.48 105.15 145.35 104.99 145.24C104.84 145.13 104.67 145.02 104.48 144.92C104.32 144.58 104.16 144.23 104 143.88C103.7 141.5 103.01 139.3 101.01 137.73C100.91 137.52 100.81 137.31 100.7 137.1C100.81 136.22 100.62 135.5 100.15 134.94C99.87 134.6 99.5 134.31 99.03 134.08C98.44 133.4 97.86 132.71 97.27 132.03C97.24 131.09 97.16 130.17 96.22 129.8C96.09 129.75 95.94 129.71 95.77 129.68C95.71 129.66 95.67 129.63 95.64 129.59C95.61 129.56 95.6 129.51 95.59 129.45C95.75 128.76 95.5 128.37 94.77 128.33C94.43 127.87 94.09 127.41 93.75 126.95C93.65 126.51 93.71 125.96 93.47 125.6C93.32 125.39 93.07 125.25 92.61 125.24C92.21 125.02 91.92 124.7 91.73 124.31C91.66 124.18 91.6 124.05 91.56 123.9C92.27 122.89 91.5 122.7 90.77 122.49C90.65 122.39 90.57 122.26 90.55 122.11C90.39 121.54 90.25 120.95 90.04 120.41C89.91 120.04 89.75 119.69 89.54 119.37C89.47 119.24 89.38 119.13 89.29 119.02C89.01 118.68 88.67 118.38 88.22 118.14C87.78 117.15 87.35 116.16 86.91 115.16C86.61 113.74 86.29 112.32 85.73 111.02C85.45 110.37 85.11 109.76 84.69 109.18C84.47 108.89 84.24 108.62 83.97 108.36C83.71 108.09 83.43 107.84 83.11 107.61C83 107.38 82.89 107.15 82.78 106.93C82.81 105.43 82.31 104.23 80.86 103.57C80.69 103.27 80.52 102.98 80.35 102.68C80.63 101.58 80.32 100.8 79.18 100.44C79 100.15 78.82 99.86 78.63 99.57C78.19 97.81 77.53 96.18 76.01 95.04C75.25 93.93 74.69 92.72 74.3 91.44C74.76 90.91 74.62 90.69 74.25 90.59C74.13 90.55 73.98 90.53 73.82 90.52C73.77 90.49 73.72 90.46 73.69 90.42C73.66 90.37 73.64 90.32 73.64 90.26C73.55 89.47 73.54 88.64 73.22 87.95C73.02 87.53 72.72 87.16 72.22 86.87C72.12 86.65 72.02 86.42 71.92 86.19C71.77 84.53 71.5 82.92 69.94 81.9C69.81 81.7 69.69 81.5 69.57 81.3C69.58 80.21 69.65 79.09 68.19 78.81C68.01 78.5 67.84 78.19 67.67 77.88C68.29 77.19 67.88 77.01 67.21 76.96C65.88 75.87 65.71 74.09 64.76 72.77C64.57 71.55 64.42 70.31 63.07 69.74C62.82 69.31 62.57 68.87 62.32 68.44C62.55 68.14 62.61 67.94 62.58 67.81C62.55 67.73 62.48 67.67 62.38 67.63C62.33 67.61 62.27 67.6 62.2 67.59C62.07 67.57 61.92 67.57 61.76 67.57C61.71 67.55 61.67 67.52 61.65 67.48C61.62 67.44 61.61 67.4 61.61 67.34C61.55 66.29 61.59 65.17 60.21 64.85C59.11 63.59 58.45 62.09 57.91 60.52C57.48 58.82 56.92 57.17 56.1 55.66C55.77 55.05 55.4 54.46 54.98 53.9C54.77 53.62 54.55 53.34 54.31 53.07C54.18 52.86 54.05 52.65 53.92 52.44C53.8 52.22 53.68 52 53.57 51.78C53.36 51.34 53.19 50.87 53.1 50.37C53.12 48.76 52.95 47.23 51.33 46.34C51.17 46.03 51.01 45.71 50.86 45.39C50.84 44.11 51.33 42.59 49.4 42.17C49.29 42.07 49.23 41.95 49.2 41.81C49.2 41.47 49.2 41.14 49.08 40.89C49.02 40.76 48.94 40.65 48.81 40.56C48.69 40.47 48.52 40.41 48.3 40.39C48.18 40.18 48.07 39.97 47.95 39.76C48.06 39.24 47.95 38.88 47.57 38.74C47.44 38.69 47.29 38.66 47.11 38.66C47.11 37.68 46.81 36.94 45.7 36.83C44.53 35.17 42.84 34.04 41.48 32.59C41.4 31.45 41.22 30.37 40.1 29.73C39.74 28.97 39.49 28.11 38.97 27.47C38.35 26.7 37.38 26.52 36.41 26.82C35.95 26.96 35.48 27.4 35.66 27.85C36.24 29.3 36.32 30.96 37.53 32.17C39.37 34.01 41.24 35.83 42.93 37.79C46.74 42.21 48.5 47.74 50.89 52.92C53.06 57.62 55.24 62.29 57.86 66.78C60.85 71.9 64.12 76.89 66.54 82.35C68.26 86.24 70.19 90.05 72.03 93.89C75.22 100.52 79.41 106.61 82.53 113.28C85.25 119.1 87.99 124.94 92.21 129.88C95.42 133.64 97.74 137.95 99.67 142.4C101.41 146.41 103.64 150.05 105.98 153.68C108 156.8 110.21 159.83 112.01 163.07C115.64 169.63 118.53 176.63 123.4 182.47C126.47 186.15 128.95 190.21 131.07 194.48C131.37 195.09 131.67 195.71 131.96 196.32C131.79 196.34 131.62 196.36 131.45 196.38C131.29 196.4 131.12 196.42 130.95 196.43C130.24 195.21 129.69 193.86 128.8 192.78C122.94 185.54 117.82 177.78 112.37 170.25C103.84 158.49 96.24 146.15 88.32 134C84.03 127.43 80.62 120.36 76.38 113.76C73.06 108.61 69.48 103.62 66.69 98.15C64 92.88 60.77 87.97 57.42 83.1C55.49 80.3 53.4 77.58 51.94 74.48C51.8 74.28 51.66 74.08 51.52 73.88C51.31 73.48 51.09 73.08 50.87 72.68C50.76 72.48 50.65 72.27 50.53 72.07C48.39 68.11 46.25 64.15 44.11 60.19C44.14 60.11 44.16 60.03 44.16 59.96C44.16 59.75 44.03 59.62 43.76 59.57C42.52 57.78 41.25 56.01 40.06 54.19C38.87 52.38 37.77 50.5 36.89 48.49C36.94 48.17 36.8 47.96 36.51 47.83C35.55 45.61 34.59 43.39 33.62 41.17C33.62 40.49 33.85 39.71 33.17 39.3C33.07 39.24 32.96 39.19 32.82 39.15C32.01 37.7 31.21 36.24 30.4 34.79C30.26 33.38 29.88 32.12 28.4 31.54C28.29 31.49 28.23 31.41 28.22 31.29C28.06 31.1 27.91 30.9 27.75 30.71C27.57 30.45 27.39 30.19 27.2 29.92C27.28 29.28 26.99 28.93 26.35 28.88C26.24 28.82 26.18 28.74 26.16 28.61C26.03 28.41 25.9 28.2 25.77 28C25.53 27.64 25.28 27.27 25.03 26.91C25.05 26.79 25.05 26.69 25.02 26.6C24.98 26.43 24.86 26.31 24.69 26.24C24.61 26.21 24.51 26.19 24.4 26.17C24.34 26.14 24.29 26.09 24.25 26.04C24.21 25.98 24.18 25.92 24.17 25.84C24.14 25.18 24.05 24.57 23.69 24.12C23.47 23.85 23.16 23.64 22.71 23.52C22.38 23.27 22.06 23 21.82 22.69C21.57 22.38 21.38 22.03 21.3 21.59C20.99 19.6 20.64 17.63 18.83 16.34C18.71 15.98 18.59 15.61 18.47 15.25C18.77 14.58 18.54 14.18 17.83 14.04C16.94 12.75 15.68 11.16 14.22 12.15C12.78 13.13 13.9 14.91 14.33 16.45C14.83 18.28 15.9 19.83 16.35 21.64C16.02 21.7 15.69 21.76 15.36 21.81C14.74 21.17 14.13 20.53 13.52 19.9C13.4 19.77 13.27 19.65 13.14 19.52C12.51 18.72 11.87 17.92 11.23 17.12C11.3 16.77 11.27 16.5 11.12 16.31C10.98 16.13 10.73 16.04 10.36 16.04C10.13 14.9 9.71 13.88 9.04 13.01C8.65 12.48 8.16 12.02 7.58 11.61C7.44 11.28 7.31 10.95 7.17 10.62C7.79 9.94 7.34 9.78 6.72 9.7C5.6 8.1 4.91 6.3 4.27 4.48C4.27 3.7 4.6 2.8 3.53 2.41C2.86 1.46 2.15 0.09 0.84 0.91C-0.38 1.68 1.3 2.59 1.28 3.52C1.28 3.8 1.55 4.07 1.64 4.36C3.49 10.55 6.39 16.18 10.62 21.08C14.66 25.78 18.79 30.39 21.46 36.1C23.49 40.43 25.92 44.58 28.93 48.3C31.31 51.23 31.94 55.06 34.22 57.94C36.42 60.73 38 63.74 39 67.14C40.06 70.71 42.09 73.87 44.12 76.9C48.41 83.31 52.63 89.73 55.41 96.97C57.38 102.12 61.01 106.14 64.27 110.44C66.84 113.84 69.97 116.88 71.69 120.86C73.31 124.61 75.03 128.3 77.15 131.78C79.2 135.16 81.69 138.28 83.81 141.58C86.49 145.76 88.15 150.6 90.26 155.16C90.19 155.87 90.17 156.55 91.11 156.69C92.16 161.74 94.86 166.05 97.45 170.36C100.07 174.72 102.18 179.32 104.42 183.87C106.52 188.13 108.43 192.48 110.8 196.62C112.32 199.28 114.56 201.48 116 204.07C119.3 210 124.02 215.12 126.07 221.79C126.6 223.52 128.62 223.72 130.17 223.52C131.69 223.32 131.35 221.85 131.26 220.72C132.25 220.25 132.28 219.36 132.02 218.53C131.91 218.18 131.79 217.83 131.67 217.49C131.54 217.14 131.4 216.81 131.24 216.48C131.16 216.32 131.07 216.16 130.98 216C130.84 215.77 130.69 215.54 130.51 215.32C130.34 215.11 130.15 214.9 129.93 214.71C129.85 214.08 129.78 213.45 129.7 212.82C129.78 212.75 129.86 212.67 129.94 212.59C129.82 212.58 129.71 212.58 129.59 212.57C129.35 211.85 129.11 211.13 128.87 210.42C128.92 210.24 128.92 210.1 128.85 210C128.78 209.9 128.66 209.84 128.48 209.82C127.9 208.79 127.35 207.74 126.79 206.7C126.23 205.66 125.66 204.63 125.05 203.61C122.83 199.86 119.85 196.55 118.39 192.36C118.43 192.05 118.49 191.74 118.42 191.48C118.35 191.22 118.17 191.01 117.73 190.92C117.57 190.5 117.41 190.07 117.25 189.65C117.13 189.43 117.02 189.2 116.91 188.98C115.16 185.89 114.44 182.33 112.41 179.34C108.88 174.11 105.51 168.77 102.07 163.48C102.35 163.21 102.63 162.94 102.9 162.67C103.23 162.98 103.61 163.25 103.88 163.61C108.6 169.8 112.27 176.69 116.93 182.91C120.17 187.24 123.7 191.32 126.51 195.98C128.49 199.27 130.3 202.67 132.85 205.63C135.94 209.21 139.81 211.93 143.05 215.33C144.69 217.06 146.43 217.19 148.43 216.22C148.54 216.04 148.65 215.86 148.76 215.69C148.74 215.61 148.73 215.54 148.73 215.46C148.73 215.39 148.74 215.31 148.76 215.24C149.34 214.09 148.66 213.68 147.7 213.44Z" />
	</g>
</svg>