<svg version="1.2" baseProfile="tiny-ps" xmlns="http://www.w3.org/2000/svg" viewBox="0 0 183 178" width="183" height="178">
	<title>Graphic Elements</title>
	<style>
		tspan { white-space:pre }
		.shp0 { fill: #000000 } 
	</style>
	<g id="Graphic Elements">
		<path id="&lt;Compound Path&gt;" fill-rule="evenodd" class="shp0" d="M180.49 100.35C178.35 109.07 174.88 117.47 170.37 125.22C168.53 128.39 166.51 131.45 164.33 134.4C162.82 137.27 161.21 140.08 159.52 142.82C154.56 150.86 148.54 158.45 141.03 164.26C132.82 170.61 123.06 174.34 112.89 176.16C103.68 177.81 94.22 178.11 84.91 177.1C75.74 176.11 66.77 173.92 58.19 170.56C49.69 167.24 41.66 162.72 34.44 157.15C27.29 151.64 20.94 145.02 15.84 137.56C10.76 130.14 6.85 121.91 4.26 113.3C1.68 104.71 0.35 95.73 0.49 86.75C0.61 77.82 2.13 68.89 5.21 60.49C8.17 52.4 12.5 44.85 17.93 38.15C23.3 31.52 29.62 25.72 36.62 20.83C43.73 15.87 51.42 11.81 59.51 8.7C67.65 5.56 76.12 3.32 84.75 2.07C94.64 0.64 104.76 0.38 114.68 1.62C124.76 2.87 134.69 5.73 143.55 10.78C151.03 15.05 157.64 20.67 163.23 27.2C168.8 33.71 173.3 41.15 176.59 49.06C179.9 56.98 181.99 65.45 182.69 74C183.41 82.82 182.59 91.77 180.49 100.35ZM173.07 87.3C172.82 78.66 171.12 70.1 168.14 61.98C162.16 45.7 151.06 31.34 136.35 22.03C121.26 12.48 103.2 8.05 85.39 9.08C68.15 10.07 51.59 16.59 37.97 27.15C33.88 30.32 30.05 33.84 26.53 37.64C26.56 38.05 26.42 38.47 26.06 38.76C25.3 39.36 24.56 40 23.85 40.65C19.63 45.61 15.93 51 12.84 56.73C12.56 57.4 12.29 58.08 12.05 58.77C9.04 67.16 8.18 76.12 9.18 84.95C10.3 94.92 13.67 104.51 18.14 113.45C26.2 129.57 37.8 144.38 52.26 155.23C66.15 165.66 83.19 171.96 100.7 170C119.58 167.89 137.22 157.73 150.64 144.6C154.4 140.92 157.89 136.93 161.03 132.68C164.04 126.95 166.65 120.99 168.7 114.9C171.71 105.99 173.34 96.72 173.07 87.3ZM149.84 150.27C144.22 155.27 138.05 159.64 131.47 163.27C122.43 168.26 112.48 171.89 102.19 173.12C92.87 174.23 83.44 173.35 74.49 170.51C65.88 167.77 57.89 163.45 50.62 158.12C43.21 152.69 36.6 146.21 30.75 139.13C24.61 131.7 19.32 123.54 14.95 114.95C10.26 105.74 6.78 95.83 5.52 85.53C5.15 82.5 5 79.44 5.06 76.39C3.33 88.1 4.25 100.21 7.54 111.6C12.4 128.41 22.28 143.29 35.99 154.16C49.59 164.94 66.4 171.67 83.61 173.72C92.47 174.78 101.5 174.68 110.32 173.24C120.09 171.66 129.63 168.4 137.6 162.42C142.23 158.94 146.27 154.8 149.84 150.27ZM173.34 50.57C167.22 35.49 156.44 22.04 142.27 13.82C125.58 4.13 105.12 2.51 86.31 5.17C84.08 5.48 81.85 5.87 79.63 6.32C81.06 6.15 82.49 6 83.93 5.9C93.19 5.23 102.59 6.03 111.62 8.19C120.68 10.35 129.45 13.91 137.37 18.82C145.19 23.66 152.13 29.75 157.93 36.89C163.59 43.87 168.11 51.79 171.31 60.18C174.5 68.54 176.39 77.45 176.76 86.4C177.02 92.75 176.46 99.06 175.2 105.24C175.76 103.5 176.26 101.74 176.71 99.97C180.84 83.53 179.73 66.29 173.34 50.57Z" />
	</g>
</svg>