<svg version="1.2" baseProfile="tiny-ps" xmlns="http://www.w3.org/2000/svg" viewBox="0 0 116 190" width="116" height="190">
	<title>Graphic Elements</title>
	<style>
		tspan { white-space:pre }
		.shp0 { fill: #000000 } 
	</style>
	<g id="Graphic Elements">
		<path id="&lt;Path&gt;" class="shp0" d="M0.82 5.08C0.86 5.47 0.9 5.85 0.92 6.2C1.13 9.85 1.35 13.49 1.57 17.14C1.59 17.52 1.54 18 1.71 18.35C1.86 18.66 1.98 18.64 2.01 19.03C2.09 19.89 1.94 20.84 1.94 21.71C1.92 23.53 1.97 25.34 2.01 27.15C2.01 27.38 1.99 27.64 1.98 27.89C1.98 27.98 1.98 28.08 1.98 28.17C2 28.8 2.22 29.32 3.42 29.1C3.54 29.09 3.62 29.14 3.65 29.25C3.68 29.35 3.72 29.43 3.76 29.5C3.89 29.7 4.11 29.8 4.4 29.78C5.82 30.42 6.81 30.82 7.48 30.92C7.7 30.95 7.89 30.95 8.05 30.91C8.32 30.83 8.5 30.65 8.61 30.34C8.69 30.14 8.73 29.87 8.76 29.55C8.8 28.9 8.76 28.01 8.67 26.83C8.66 26.56 8.65 26.28 8.64 26.01C8.71 25.96 8.86 25.88 8.85 25.86C8.8 25.72 8.72 25.59 8.65 25.45C8.67 24.63 8.83 23.68 8.68 22.87C8.55 22.14 8.43 21.49 8.41 20.73C8.39 19.91 8.5 19.12 8.46 18.31C8.43 17.84 8.42 17.36 8.43 16.88C8.44 16.61 8.64 15.77 8.52 15.56C9.86 17.87 11.13 20.21 12.35 22.58C13.07 23.98 14 25.28 14.78 26.68C15.62 28.19 16.47 29.71 17.31 31.23C17.99 32.45 18.67 33.68 19.35 34.9C19.89 35.87 20.11 36.83 20.58 37.84C21.61 40.04 23.39 41.79 24.37 44.03C25.89 47.53 27.77 50.84 29.65 54.16C30.48 55.63 31.32 57.1 32.11 58.59C32.51 59.33 32.85 60.1 33.28 60.82C33.56 61.3 33.99 61.61 34.31 62.05C35.34 63.49 36.15 65.14 37.06 66.67C37.98 68.22 38.9 69.78 39.82 71.33C41.67 74.45 43.52 77.57 45.37 80.69C46.29 82.25 47.21 83.81 48.14 85.36C48.6 86.14 49.06 86.92 49.52 87.7C50.15 88.77 50.56 89.9 51.22 90.98C52.17 92.52 53.12 94.05 54.07 95.58C54.99 97.06 56.1 98.52 56.88 100.08C60.67 106.15 64.5 112.2 68.36 118.23C70.29 121.24 72.23 124.25 74.17 127.25C74.9 128.37 75.65 129.56 76.57 130.52C77.54 131.53 78.23 132.99 78.98 134.17C82.84 140.2 86.67 146.24 90.47 152.31C94.27 158.37 98.05 164.45 101.79 170.55C103.67 173.59 105.53 176.65 107.39 179.7C108.32 181.23 109.25 182.76 110.17 184.29C110.64 185.06 111.1 185.82 111.56 186.59C111.8 186.99 112.04 187.38 112.28 187.78C112.42 188.01 112.89 188.54 112.89 188.79C113.18 189.28 113.56 189.86 114.11 190.06C114.7 190.28 115.25 189.93 115.2 189.27C115.16 188.8 114.85 188.7 114.52 188.45C114.33 188.29 114.19 188.14 114.08 187.92C113.45 186.76 113.2 185.57 112.29 184.53C111.8 183.96 111.52 183.23 111.19 182.56C110.44 181.03 109.67 179.5 108.9 177.98C107.35 174.93 105.77 171.9 104.14 168.89C100.89 162.87 97.49 156.94 93.94 151.1C92.1 148.07 90.22 145.07 88.3 142.09C87.34 140.6 86.38 139.12 85.4 137.65C84.57 136.4 83.67 135.24 83.19 133.82C82.91 132.99 82.28 132.19 81.83 131.43C81.38 130.65 80.92 129.87 80.47 129.09C79.55 127.52 78.64 125.96 77.73 124.4C75.91 121.27 74.08 118.15 72.26 115.02C71.71 114.48 71.34 113.45 70.95 112.78C70.49 112 70.04 111.22 69.58 110.44C68.67 108.88 67.76 107.32 66.85 105.76C66.4 104.98 65.94 104.2 65.49 103.42C65.11 102.78 64.79 102.06 64.23 101.56C63.15 100.56 62.4 99.42 61.61 98.18C59.55 94.95 57.72 91.58 55.86 88.22C53.4 83.78 51.6 78.92 48.78 74.74C44.59 68.52 41.34 61.82 37.6 55.37C34.4 49.85 32.17 43.81 28.75 38.39C24.09 31 19.32 23.69 15.77 15.66C15.4 14.83 15.19 14.14 15.52 13.27C18.2 14.31 20.64 15.81 23.42 16.63C24.91 17.07 25.86 16.78 26.42 15.58C27.06 14.22 25.64 13.73 24.86 13.44C21.51 12.23 18.53 10.23 15.65 8.17C14.15 7.1 12.66 6 11.12 4.98C10.15 4.33 9.11 3.51 8 3.1C6.39 2.51 5.37 1.13 3.94 0.27C3.64 0.1 3.32 -0.03 2.98 -0.04C2.33 -0.05 1.76 0.33 1.39 0.84C0.52 2 0.67 3.61 0.82 5.08Z" />
	</g>
</svg>