<svg version="1.2" baseProfile="tiny-ps" xmlns="http://www.w3.org/2000/svg" viewBox="0 0 163 316" width="163" height="316">
	<title>Graphic Elements</title>
	<style>
		tspan { white-space:pre }
		.shp0 { fill: #3f3f3f } 
	</style>
	<g id="Graphic Elements">
		<g id="&lt;Group&gt;">
			<path id="&lt;Compound Path&gt;" fill-rule="evenodd" class="shp0" d="M163.03 23.35C162.99 25.34 162.89 27.34 162.73 29.32C162.64 30.5 162.58 31.74 162.07 32.83C162.01 32.95 161.96 33.06 161.89 33.18C161.38 34.19 160.66 35.25 159.9 36.04C159.38 36.59 158.74 37.04 158.04 37.35C157.88 37.42 156.02 37.88 156.03 37.78C156.14 37.06 156.28 36.34 156.36 35.62C156.39 35.37 156.39 35.13 156.39 34.87C156.4 33.66 156.72 32.56 156.86 31.36C157.69 24.63 158.05 17.73 155.95 11.23C154.11 5.5 145.81 2.67 140.37 2.93C139.08 3 137.84 3.42 136.59 3.7C134.62 4.14 132.69 4.52 130.76 5.17C127.09 6.4 123.57 8.06 120.22 9.98C113.43 13.88 107.34 18.85 101.53 24.06C100.23 25.23 98.94 26.41 97.66 27.6C91.57 33.27 85.74 39.24 80.21 45.46C77.44 48.57 74.75 51.75 72.13 54.98C70.82 56.6 69.54 58.24 68.26 59.88C65.64 63.29 63.56 67.03 60.76 70.36C59.36 72.03 57.98 73.72 56.62 75.43C51.64 81.68 46.98 88.17 42.64 94.88C38.3 101.59 34.29 108.51 30.62 115.61C28.79 119.16 27.05 122.76 25.39 126.4C24.56 128.21 23.76 130.04 22.98 131.88C21.15 136.17 19.81 140.61 18.46 145.08C17.72 147.53 16.77 149.85 16.04 152.32C15.41 154.48 14.79 156.63 14.19 158.8C13.57 161.05 12.82 163.26 12.27 165.56C11.76 167.69 11.3 169.82 10.88 171.97C8.74 182.85 7.02 194.58 9.17 205.66C10.24 211.21 12.65 217.81 17.18 221.5C17.95 222.13 18.79 222.32 19.67 222.72C22.14 223.83 24.26 225.27 26.92 226C29.83 226.78 32.88 227.03 35.87 226.72C38.88 226.41 41.37 225.13 44.23 224.41C45.16 224.17 46.13 224.2 47.07 223.96C48.47 223.6 49.84 222.97 51.16 222.39C53.83 221.2 56.4 219.77 58.75 218.02C59.73 217.29 60.68 216.5 61.57 215.66C63.3 214.02 64.91 212.11 66.16 210.09C67.79 207.45 67.87 204.28 68.93 201.41C70.26 197.83 70.84 194.03 72.13 190.43C74.66 183.39 77 176.33 80.34 169.6C85.28 159.67 92.91 151.74 99.81 143.28C101.79 140.86 104.07 138.55 106.87 137.11C107.84 136.61 108.88 136.26 109.85 135.75C110.26 135.52 110.66 135.36 111.13 135.31C112.26 135.18 113.39 135.46 114.49 135.31C114.89 135.26 115.23 135.19 115.64 135.23C116.43 135.31 117.18 135.6 117.84 136.02C119.25 136.92 120.31 138.39 120.76 139.99C121.55 142.76 120.92 145.7 120.2 148.49C118.28 155.93 115.64 163.12 110.87 169.23C110.45 169.76 110.27 170.33 109.95 170.9C109.48 171.72 108.79 172.45 108.2 173.17C106.96 174.71 105.69 176.22 104.39 177.71C99.37 183.43 93.94 188.78 88.37 193.95C85.57 196.54 82.74 199.09 79.9 201.63C78.89 202.53 77.92 203.38 77.43 204.67C76.86 206.15 76.31 207.64 75.8 209.15C75.69 209.24 75.58 209.33 75.47 209.42C75.4 209.48 75.31 210.51 75.31 210.53C75.22 211.09 75.14 211.65 75.06 212.21C74.91 213.33 74.76 214.45 74.63 215.57C74.34 217.99 74.1 220.42 73.92 222.86C73.78 224.73 73.89 226.67 73.4 228.48C72.96 230.08 73.26 232.08 73.26 233.73C73.28 237.53 73.36 241.33 73.52 245.12C73.84 253.03 75.21 260.78 77.78 268.27C77.67 268.36 77.56 268.45 77.45 268.54C81.53 278.27 85.89 288.25 93.16 296.03C93.19 295.94 93.21 295.86 93.26 295.8C93.68 295.31 94.47 294.84 95.02 294.49C95.84 293.96 96.33 293.12 96.97 292.41C97.76 291.55 98.58 290.71 99.43 289.91C99.88 289.49 100.55 289.06 101.04 289.42C101.25 289.57 101.35 289.82 101.44 290.06C101.32 290.18 102.19 292.04 102.28 292.27C102.58 293.08 102.89 293.89 103.2 294.7C103.77 296.2 104.32 297.69 104.86 299.21C106.36 303.46 107.55 307.83 108.41 312.26C108.64 313.46 108.04 316.04 106.36 315.98C98.38 315.67 90.45 314.39 82.78 312.14C80.9 311.59 82.1 308.54 83.05 307.72C83.45 307.38 83.82 307.01 84.22 306.66C84.26 306.6 84.29 306.53 84.33 306.47C85.16 305.31 86.19 304.24 86.92 303.03C87.13 302.68 87.24 302.31 87.51 301.99C87.62 301.86 88.92 300.64 88.95 300.66C88.1 299.88 87.31 299.05 86.57 298.18C86.68 298.07 86.78 297.97 86.89 297.86C79.62 289.43 74.16 279.58 70.98 268.85C70.89 268.54 70.88 268.24 70.92 267.95C69.67 264.32 68.95 260.57 68.27 256.83C67.71 253.7 67.17 250.57 66.65 247.44C66.39 245.87 66.12 244.31 65.89 242.73C65.82 242.21 65.92 241.77 65.92 241.25C65.91 239.55 65.59 237.8 65.5 236.1C65.4 234.23 65.35 232.36 65.36 230.49C65.38 227.93 65.52 225.38 65.71 222.82C65.78 221.88 65.55 221.01 65.65 220.05C65.78 218.79 65.96 217.55 66.21 216.31C65.3 218 64 219.49 62.46 220.63C61.74 221.18 60.81 221.51 60.13 222.1C57.9 224.02 55.3 225.41 52.6 226.6C42.97 230.86 32.22 233.63 21.87 230.2C20.44 229.72 18.83 229.46 17.5 228.78C15.96 227.99 14.49 227.04 13.11 226C10.4 223.94 8.01 221.44 6.07 218.64C4.6 216.53 3.38 214.25 2.46 211.85C2.03 210.7 1.47 209.42 1.4 208.18C1.37 207.73 1.47 207.28 1.47 206.83C1.49 205.32 1 203.81 0.82 202.32C0.01 195.62 0.89 188.84 1.88 182.17C2.1 180.74 2.32 179.31 2.54 177.89C3.37 172.73 4.31 167.6 5.47 162.5C6.02 160.08 6.46 157.72 7.14 155.32C7.66 153.46 8.19 151.6 8.74 149.75C9.84 146.04 11 142.35 12.24 138.68C14.71 131.36 17.48 124.14 20.66 117.1C22.8 112.38 25.13 107.75 27.68 103.24C28.48 101.82 29.59 100.4 30.17 98.88C30.32 98.49 30.42 98.15 30.63 97.77C31.6 96.05 32.64 94.36 33.69 92.68C35.8 89.33 38.04 86.06 40.4 82.88C43.31 78.95 46.56 75.28 49.61 71.46C51.01 69.7 52.42 67.94 53.83 66.18C55.38 64.24 56.94 62.3 58.51 60.37C59.24 59.46 59.91 58.36 60.85 57.64C61.54 57.11 62.06 56.61 62.62 55.93C63.96 54.31 65.31 52.7 66.68 51.11C69.43 47.93 72.24 44.81 75.12 41.74C76.6 40.17 78.28 38.71 79.67 37.07C79.91 36.78 80.06 36.5 80.24 36.18C80.66 35.42 81.25 34.84 81.84 34.22C83.13 32.84 84.44 31.47 85.76 30.12C88.41 27.4 91.12 24.74 93.93 22.18C99.47 17.15 105.43 12.5 112 8.88C113.83 7.87 115.71 6.94 117.63 6.11C119.56 5.28 121.6 4.71 123.52 3.86C124.72 3.33 125.65 2.4 126.83 1.84C128.66 0.96 130.87 0.64 132.87 0.35C138.31 -0.44 143.84 0 149.22 1.02C152.52 1.65 155.48 3.32 158.04 5.42C158.91 6.13 159.66 6.98 160.29 7.9C163.35 12.38 163.12 18.14 163.03 23.35ZM79.86 194.75C80.68 194.38 81.5 193.4 82.19 192.82C83.73 191.51 85.24 190.18 86.73 188.82C89.7 186.1 92.57 183.26 95.33 180.32C96.82 178.73 98.29 177.11 99.71 175.45C100.53 174.51 101.28 173.57 102.21 172.73C103.11 171.92 103.97 171.07 104.79 170.18C106.42 168.4 107.9 166.47 109.19 164.42C112.96 158.43 115.18 151.44 115.4 144.35C115.43 143.36 115.55 142.13 115.23 141.18C114.73 139.68 112.94 140.57 111.86 140.9C110.5 141.31 109.15 141.9 108.17 142.73C106.73 143.97 105.32 145.35 104.01 146.75C100.81 150.17 97.93 153.9 95.42 157.85C93.82 160.37 92.36 162.99 91.07 165.68C90.42 167.02 89.81 168.39 89.25 169.77C89 170.37 88.83 171.16 88.41 171.66C88.26 171.84 88.05 171.96 87.89 172.13C87.05 173.03 86.72 174.4 86.22 175.5C85.56 176.98 84.94 178.48 84.38 179.99C83.82 181.5 83.31 183.02 82.85 184.56C82.85 185.2 82.3 186.1 82.05 186.67C81.33 188.35 80.38 189.95 79.89 191.7C79.8 192.03 78.31 195.46 79.86 194.75ZM94.74 301.4C93.96 302.16 93.19 302.93 92.42 303.7C91.84 304.27 91.27 304.85 90.7 305.43C90.05 306.1 89.41 306.79 88.74 307.45C88.43 307.75 87.99 308.02 87.79 308.41C87.63 308.74 87.62 309.09 87.96 309.28C88.28 309.46 88.99 309.37 89.36 309.4L90.94 309.51C93.04 309.66 95.38 309.55 97.39 310.17C98.41 310.48 99.61 310.49 100.67 310.6C101.84 310.71 103 310.82 104.17 310.92C103.98 310.91 102.94 306.34 102.8 305.87C102.19 303.86 101.52 301.88 100.77 299.93C100.6 299.47 99.85 296.84 99.39 296.93C99.19 296.96 98.81 297.48 98.68 297.61C97.35 298.86 96.04 300.13 94.74 301.4Z" />
		</g>
	</g>
</svg>