<svg version="1.2" baseProfile="tiny-ps" xmlns="http://www.w3.org/2000/svg" viewBox="0 0 177 277" width="177" height="277">
	<title>Graphic Elements</title>
	<style>
		tspan { white-space:pre }
		.shp0 { fill: #000000 } 
	</style>
	<g id="Graphic Elements">
		<path id="&lt;Compound Path&gt;" fill-rule="evenodd" class="shp0" d="M176.44 246.99C176.45 251.48 176.17 255.97 175.61 260.42C175.39 262.2 175.18 263.98 174.89 265.75C174.62 267.46 174.43 269.47 173.73 271.06C173.23 272.2 172.25 273.48 171.43 274.43C170.51 275.5 169.33 276.4 167.89 276.55C167.67 276.58 167.42 276.58 167.24 276.45C166.82 276.18 166.94 275.56 167.11 275.09C167.62 273.66 168.13 272.23 168.64 270.8C169.03 269.72 169.54 268.64 169.54 267.47C169.54 265.35 169.96 263.37 170.21 261.25C171.04 254.38 170.83 247.43 170.31 240.54C169.36 227.95 166.36 215.94 161.92 204.2C159.99 199.1 157.97 194.03 155.85 189.01C154.12 184.89 152.32 180.8 150.45 176.75C149.52 174.72 148.57 172.7 147.6 170.68C146.7 168.8 145.92 166.58 144.68 164.89C144.28 164.35 143.76 163.93 143.41 163.35C142.9 162.5 142.51 161.56 142.03 160.68C141.07 158.94 140 157.25 138.83 155.63C136.52 152.42 133.85 149.48 130.97 146.77C128.22 144.17 125.29 141.79 122.25 139.54C120.73 138.42 119.19 137.33 117.63 136.27C117.36 136.09 116.88 135.6 116.55 135.76C116.26 135.9 116.6 137.7 116.62 137.98C116.72 139.33 116.81 140.69 116.89 142.04C117.23 147.68 117.36 153.35 116.77 158.98C116.36 162.99 115.56 166.97 114.25 170.78C113.6 172.7 112.81 174.57 111.88 176.37C111.05 177.98 109.82 179.46 109.24 181.17C108.48 183.41 106.15 185.19 104.19 186.39C101.9 187.79 99.31 188.63 96.67 189.08C92.76 189.76 85.89 185.66 83.6 181.37C79.41 173.53 80.79 165.13 80.99 156.91C81.17 149.56 83.9 142.71 86.85 136.06C89.48 130.12 92.8 124.72 100.46 124.77C103.49 124.79 103.02 123.41 102.31 121.3C102.22 121.04 102.14 120.78 102.05 120.52C99.28 112.19 97.39 103.64 93.93 95.53C90.37 87.19 85.71 79.45 80.31 72.18C75.68 65.95 69.96 60.63 64.26 55.39C62.66 53.92 61.05 52.44 59.45 50.97C57.99 49.62 56.53 47.89 54.84 46.84C53.36 45.94 52.37 44.62 51.18 43.35C49.8 41.9 48.38 40.49 46.9 39.13C45.61 37.94 44.29 36.8 42.93 35.69C42.24 35.14 41.55 34.6 40.86 34.07C38.91 32.59 37.63 30.36 35.7 28.83C35.15 28.39 34.47 28.19 33.92 27.75C33.01 27.04 32.16 26.26 31.28 25.52C29.52 24.03 27.76 22.54 26 21.05C25.27 20.42 24.53 19.8 23.79 19.17C23.4 18.84 22.63 17.9 22 18.07C21.6 18.18 21.76 18.25 21.69 18.57C21.59 19.01 21.98 19.94 22.05 20.38C22.13 20.81 22.19 21.23 22.24 21.66C22.38 22.72 22.46 23.79 22.51 24.87C22.68 29.2 22.18 33.53 21.67 37.84C21.54 38.96 21.37 40.17 20.58 40.97C19.79 41.78 18.16 41.81 17.73 40.76C17.6 40.45 17.6 40.1 17.6 39.76C17.54 32.5 15.42 25.31 11.71 19.09C10.02 16.25 8 13.44 5.6 11.15C5.11 10.68 4.66 10.19 4.21 9.66C3.2 8.45 2.19 7.25 1.18 6.05C0.7 5.48 0.2 4.86 0.15 4.12C0.06 2.84 1.29 1.9 2.38 1.22C2.87 0.92 3.39 0.6 3.97 0.63C4.46 0.65 4.9 0.92 5.32 1.18C6.78 2.1 8.24 3.3 9.92 3.73C11.61 4.17 13.17 5.1 14.84 5.62C18.37 6.72 22.35 7.31 26.05 7C31.83 6.76 37.5 5.23 42.92 3.21C43.24 3.09 43.58 2.97 43.91 3.07C44.15 3.14 44.34 3.32 44.5 3.53C45.33 4.64 45.06 6.3 44.21 7.4C43.36 8.5 42.07 9.17 40.8 9.72C38.19 10.86 35.4 11.74 32.57 12.12C31.54 12.26 30.48 12.2 29.46 12.35C30.97 13.62 32.61 14.73 34.24 15.84C35.55 16.74 36.47 17.98 37.7 18.98C39.39 20.34 41.07 21.71 42.75 23.07C44.38 24.39 45.96 25.91 47.7 27.07C49.77 28.46 51.66 30.28 53.6 31.85C55.92 33.73 58.24 35.61 60.57 37.49C61.79 38.48 63.23 39.4 64.15 40.72C65.1 42.07 66.02 43.12 67.28 44.22C70.27 46.81 73.24 49.43 76.13 52.13C81.86 57.49 87.31 63.21 91.83 69.63C96.85 76.78 100.35 84.91 103.9 92.85C105.02 95.36 106.13 97.88 107.27 100.38C109.4 105.07 110.75 110.04 112.11 114.99C112.38 115.98 112.76 116.76 112.92 117.8C113.24 119.9 113.39 122.1 113.82 124.19C113.98 124.99 114.4 125.49 115.08 125.93C116.95 127.14 118.94 128.16 120.92 129.2C121.68 129.6 122.53 129.9 123.27 130.3C124.08 130.74 124.61 131.7 125.38 132.24C126.96 133.32 128.58 134.34 130.13 135.48C133.2 137.74 136.11 140.22 138.83 142.89C142.55 146.55 145.91 150.58 148.9 154.86C150.22 156.76 151.97 158.81 152.68 161.07C152.86 161.66 152.91 162.27 153.08 162.86C153.34 163.79 153.84 164.63 154.28 165.48C156.28 169.36 158.18 173.28 159.98 177.26C163.56 185.2 166.73 193.34 169.47 201.61C169.94 203.04 170.63 204.44 170.65 205.96C170.67 206.76 170.74 207.46 170.96 208.23C171.58 210.37 172.2 212.51 172.72 214.68C173.77 219.02 174.58 223.41 175.14 227.83C175.64 231.83 175.74 235.86 176.28 239.85C176.3 240.03 176.33 240.22 176.35 240.4C176.57 242.54 176.44 244.85 176.44 246.99ZM107 146.28C106.99 144.82 107.36 143.41 107.18 141.98C106.7 138.16 105.83 134.38 104.61 130.74C104.45 130.28 104.28 129.8 103.9 129.51C103.32 129.07 102.94 129.43 102.47 129.71C102.02 129.98 101.52 130.04 101.03 130.26C99.79 130.82 98.92 131.94 98.14 133.02C93.31 139.71 91.27 147.64 90.63 155.38C90.01 162.7 88.79 170.55 92.3 177.79C93.3 179.85 93.94 182.43 96.62 182.66C99.48 182.91 100.1 180.15 101.22 178.26C106.43 169.49 106.87 159.78 106.86 151.93C106.95 150.05 107.01 148.16 107 146.28Z" />
	</g>
</svg>