<svg version="1.2" baseProfile="tiny-ps" xmlns="http://www.w3.org/2000/svg" viewBox="0 0 3710 3710" width="3710" height="3710">
	<title>20943565-ai</title>
	<defs>
		<linearGradient id="grd1" gradientUnits="userSpaceOnUse"  x1="2458.018" y1="4844.803" x2="65.699" y2="1873.692">
			<stop offset="0" stop-color="#dae3fe"  />
			<stop offset="1" stop-color="#e9effd"  />
		</linearGradient>
		<linearGradient id="grd2" gradientUnits="userSpaceOnUse"  x1="1354.218" y1="2940.759" x2="1359.089" y2="433.285">
			<stop offset="0" stop-color="#09005d"  />
			<stop offset="1" stop-color="#1a0f91"  />
		</linearGradient>
		<linearGradient id="grd3" gradientUnits="userSpaceOnUse"  x1="4192.267" y1="2722.125" x2="2622.224" y2="515.339">
			<stop offset="0" stop-color="#4f52ff"  />
			<stop offset="1" stop-color="#4042e2"  />
		</linearGradient>
		<linearGradient id="grd4" gradientUnits="userSpaceOnUse"  x1="2291.921" y1="1176.517" x2="2940.597" y2="2096.416">
			<stop offset="0" stop-color="#4f52ff"  />
			<stop offset="1" stop-color="#4042e2"  />
		</linearGradient>
		<linearGradient id="grd5" gradientUnits="userSpaceOnUse"  x1="2150.774" y1="1275.982" x2="2802.864" y2="2200.722">
			<stop offset="0" stop-color="#4f52ff"  />
			<stop offset="1" stop-color="#4042e2"  />
		</linearGradient>
		<linearGradient id="grd6" gradientUnits="userSpaceOnUse"  x1="2503.851" y1="487.084" x2="1888.005" y2="1336.573">
			<stop offset="0" stop-color="#09005d"  />
			<stop offset="1" stop-color="#1a0f91"  />
		</linearGradient>
		<linearGradient id="grd7" gradientUnits="userSpaceOnUse"  x1="1698.469" y1="657.534" x2="2310.049" y2="1425.235">
			<stop offset="0" stop-color="#09005d"  />
			<stop offset="1" stop-color="#1a0f91"  />
		</linearGradient>
		<linearGradient id="grd8" gradientUnits="userSpaceOnUse"  x1="1724.133" y1="1059.489" x2="1704.82" y2="195.214">
			<stop offset="0" stop-color="#09005d"  />
			<stop offset="1" stop-color="#1a0f91"  />
		</linearGradient>
		<linearGradient id="grd9" gradientUnits="userSpaceOnUse"  x1="1746.606" y1="2231.458" x2="1946.096" y2="2231.458">
			<stop offset="0" stop-color="#4f52ff"  />
			<stop offset="1" stop-color="#4042e2"  />
		</linearGradient>
		<linearGradient id="grd10" gradientUnits="userSpaceOnUse"  x1="3624.841" y1="1607.472" x2="2718.145" y2="2548.514">
			<stop offset="0" stop-color="#09005d"  />
			<stop offset="1" stop-color="#1a0f91"  />
		</linearGradient>
		<linearGradient id="grd11" gradientUnits="userSpaceOnUse"  x1="3719.25" y1="1646.151" x2="2797.628" y2="2602.685">
			<stop offset="0" stop-color="#09005d"  />
			<stop offset="1" stop-color="#1a0f91"  />
		</linearGradient>
		<linearGradient id="grd12" gradientUnits="userSpaceOnUse"  x1="3540.619" y1="1526.329" x2="2633.923" y2="2467.371">
			<stop offset="0" stop-color="#09005d"  />
			<stop offset="1" stop-color="#1a0f91"  />
		</linearGradient>
		<linearGradient id="grd13" gradientUnits="userSpaceOnUse"  x1="1689.573" y1="2587.02" x2="1917.975" y2="2587.02">
			<stop offset="0" stop-color="#febbba"  />
			<stop offset="1" stop-color="#ff928e"  />
		</linearGradient>
		<linearGradient id="grd14" gradientUnits="userSpaceOnUse"  x1="-3719.737" y1="6540.426" x2="-2980.114" y2="6068.855">
			<stop offset="0" stop-color="#53d8ff"  />
			<stop offset="1" stop-color="#3840f7"  />
		</linearGradient>
		<linearGradient id="grd15" gradientUnits="userSpaceOnUse"  x1="2017.934" y1="2806.053" x2="1724.222" y2="2300.869">
			<stop offset="0" stop-color="#febbba"  />
			<stop offset="1" stop-color="#ff928e"  />
		</linearGradient>
		<linearGradient id="grd16" gradientUnits="userSpaceOnUse"  x1="3090.975" y1="1794.213" x2="2459.178" y2="2556.49">
			<stop offset="0" stop-color="#ff928e"  />
			<stop offset="1" stop-color="#fe7062"  />
		</linearGradient>
		<linearGradient id="grd17" gradientUnits="userSpaceOnUse"  x1="-3765.625" y1="6204.264" x2="-3095.563" y2="5777.044">
			<stop offset="0" stop-color="#53d8ff"  />
			<stop offset="1" stop-color="#3840f7"  />
		</linearGradient>
		<linearGradient id="grd18" gradientUnits="userSpaceOnUse"  x1="2105.419" y1="1728.761" x2="2249.432" y2="2215.664">
			<stop offset="0" stop-color="#ff928e"  />
			<stop offset="1" stop-color="#fe7062"  />
		</linearGradient>
		<linearGradient id="grd19" gradientUnits="userSpaceOnUse"  x1="1973.934" y1="2227.844" x2="1950.46" y2="2077.22">
			<stop offset="0" stop-color="#febbba"  />
			<stop offset="1" stop-color="#ff928e"  />
		</linearGradient>
		<linearGradient id="grd20" gradientUnits="userSpaceOnUse"  x1="1899.027" y1="1911.557" x2="2100.582" y2="1945.413">
			<stop offset="0" stop-color="#febbba"  />
			<stop offset="1" stop-color="#ff928e"  />
		</linearGradient>
		<linearGradient id="grd21" gradientUnits="userSpaceOnUse"  x1="2161.693" y1="1715.93" x2="2030.87" y2="2091.289">
			<stop offset="0" stop-color="#09005d"  />
			<stop offset="1" stop-color="#1a0f91"  />
		</linearGradient>
		<linearGradient id="grd22" gradientUnits="userSpaceOnUse"  x1="1927.684" y1="1961.781" x2="2076.785" y2="1986.827">
			<stop offset="0" stop-color="#febbba"  />
			<stop offset="1" stop-color="#ff928e"  />
		</linearGradient>
		<linearGradient id="grd23" gradientUnits="userSpaceOnUse"  x1="2159.365" y1="2443.057" x2="2611.566" y2="2443.057">
			<stop offset="0" stop-color="#febbba"  />
			<stop offset="1" stop-color="#ff928e"  />
		</linearGradient>
		<linearGradient id="grd24" gradientUnits="userSpaceOnUse"  x1="2423.25" y1="1801.322" x2="2299.734" y2="2155.716">
			<stop offset="0" stop-color="#09005d"  />
			<stop offset="1" stop-color="#1a0f91"  />
		</linearGradient>
		<linearGradient id="grd25" gradientUnits="userSpaceOnUse"  x1="909.195" y1="2565.441" x2="1204.671" y2="2565.441">
			<stop offset="0" stop-color="#4f52ff"  />
			<stop offset="1" stop-color="#4042e2"  />
		</linearGradient>
		<linearGradient id="grd26" gradientUnits="userSpaceOnUse"  x1="943.722" y1="2565.439" x2="1239.199" y2="2565.439">
			<stop offset="0" stop-color="#4f52ff"  />
			<stop offset="1" stop-color="#4042e2"  />
		</linearGradient>
		<linearGradient id="grd27" gradientUnits="userSpaceOnUse"  x1="2032.139" y1="2565.441" x2="2327.615" y2="2565.441">
			<stop offset="0" stop-color="#4f52ff"  />
			<stop offset="1" stop-color="#4042e2"  />
		</linearGradient>
		<linearGradient id="grd28" gradientUnits="userSpaceOnUse"  x1="2066.664" y1="2565.439" x2="2362.14" y2="2565.439">
			<stop offset="0" stop-color="#4f52ff"  />
			<stop offset="1" stop-color="#4042e2"  />
		</linearGradient>
		<linearGradient id="grd29" gradientUnits="userSpaceOnUse"  x1="821.363" y1="2537.732" x2="2437.918" y2="2537.732">
			<stop offset="0" stop-color="#4f52ff"  />
			<stop offset="1" stop-color="#4042e2"  />
		</linearGradient>
		<linearGradient id="grd30" gradientUnits="userSpaceOnUse"  x1="1043.724" y1="3158.252" x2="1250.95" y2="3158.252">
			<stop offset="0" stop-color="#4f52ff"  />
			<stop offset="1" stop-color="#4042e2"  />
		</linearGradient>
		<linearGradient id="grd31" gradientUnits="userSpaceOnUse"  x1="1308.763" y1="2786.143" x2="1252.403" y2="3175.538">
			<stop offset="0" stop-color="#09005d"  />
			<stop offset="1" stop-color="#1a0f91"  />
		</linearGradient>
		<linearGradient id="grd32" gradientUnits="userSpaceOnUse"  x1="1054.132" y1="3078.898" x2="1110.51" y2="3078.898">
			<stop offset="0" stop-color="#febbba"  />
			<stop offset="1" stop-color="#ff928e"  />
		</linearGradient>
		<linearGradient id="grd33" gradientUnits="userSpaceOnUse"  x1="1370.538" y1="3058.792" x2="1537.326" y2="3058.792">
			<stop offset="0" stop-color="#4f52ff"  />
			<stop offset="1" stop-color="#4042e2"  />
		</linearGradient>
		<linearGradient id="grd34" gradientUnits="userSpaceOnUse"  x1="1570.901" y1="2834.386" x2="1516.148" y2="3212.681">
			<stop offset="0" stop-color="#09005d"  />
			<stop offset="1" stop-color="#1a0f91"  />
		</linearGradient>
		<linearGradient id="grd35" gradientUnits="userSpaceOnUse"  x1="1260.316" y1="2751.014" x2="852.148" y2="3582.656">
			<stop offset="0" stop-color="#09005d"  />
			<stop offset="1" stop-color="#1a0f91"  />
		</linearGradient>
		<linearGradient id="grd36" gradientUnits="userSpaceOnUse"  x1="1321.164" y1="3069.617" x2="1388.472" y2="3069.617">
			<stop offset="0" stop-color="#febbba"  />
			<stop offset="1" stop-color="#ff928e"  />
		</linearGradient>
		<linearGradient id="grd37" gradientUnits="userSpaceOnUse"  x1="1998.293" y1="2371.258" x2="1509.815" y2="2925.095">
			<stop offset="0" stop-color="#09005d"  />
			<stop offset="1" stop-color="#1a0f91"  />
		</linearGradient>
		<linearGradient id="grd38" gradientUnits="userSpaceOnUse"  x1="-6916.38" y1="-10099.487" x2="-6475.124" y2="-9370.672">
			<stop offset="0" stop-color="#ff928e"  />
			<stop offset="1" stop-color="#fe7062"  />
		</linearGradient>
		<linearGradient id="grd39" gradientUnits="userSpaceOnUse"  x1="754.868" y1="1942.737" x2="875.313" y2="1942.737">
			<stop offset="0" stop-color="#febbba"  />
			<stop offset="1" stop-color="#ff928e"  />
		</linearGradient>
		<linearGradient id="grd40" gradientUnits="userSpaceOnUse"  x1="985.616" y1="1921.791" x2="912.571" y2="2165.615">
			<stop offset="0" stop-color="#febbba"  />
			<stop offset="1" stop-color="#ff928e"  />
		</linearGradient>
		<linearGradient id="grd41" gradientUnits="userSpaceOnUse"  x1="775.833" y1="1852.774" x2="956.338" y2="1785.615">
			<stop offset="0" stop-color="#09005d"  />
			<stop offset="1" stop-color="#1a0f91"  />
		</linearGradient>
		<linearGradient id="grd42" gradientUnits="userSpaceOnUse"  x1="735.165" y1="2090.708" x2="797.705" y2="1949.292">
			<stop offset="0" stop-color="#febbba"  />
			<stop offset="1" stop-color="#ff928e"  />
		</linearGradient>
		<linearGradient id="grd43" gradientUnits="userSpaceOnUse"  x1="-6862.204" y1="-7189.559" x2="-6518.849" y2="-6622.445">
			<stop offset="0" stop-color="#ff928e"  />
			<stop offset="1" stop-color="#fe7062"  />
		</linearGradient>
		<linearGradient id="grd44" gradientUnits="userSpaceOnUse"  x1="-4327.693" y1="6411.337" x2="-3061.517" y2="5392.533">
			<stop offset="0" stop-color="#e1473d"  />
			<stop offset="1" stop-color="#e9605a"  />
		</linearGradient>
		<linearGradient id="grd45" gradientUnits="userSpaceOnUse"  x1="-4383.123" y1="6371.407" x2="-3109.823" y2="5346.871">
			<stop offset="0" stop-color="#e1473d"  />
			<stop offset="1" stop-color="#e9605a"  />
		</linearGradient>
		<linearGradient id="grd46" gradientUnits="userSpaceOnUse"  x1="1392.699" y1="1817.225" x2="1208.049" y2="2297.317">
			<stop offset="0" stop-color="#febbba"  />
			<stop offset="1" stop-color="#ff928e"  />
		</linearGradient>
	</defs>
	<style>
		tspan { white-space:pre }
		.shp0 { fill: url(#grd1) } 
		.shp1 { fill: #91b3fa } 
		.shp2 { mix-blend-mode: soft-light;fill: #ffffff } 
		.shp3 { opacity: 0.451;fill: #ffffff } 
		.shp4 { fill: #bdd0fb } 
		.shp5 { opacity: 0.431;fill: #ffffff } 
		.shp6 { fill: url(#grd2) } 
		.shp7 { fill: url(#grd3) } 
		.shp8 { opacity: 0.78;fill: #ffffff } 
		.shp9 { fill: url(#grd4) } 
		.shp10 { fill: url(#grd5) } 
		.shp11 { fill: #ffffff } 
		.shp12 { opacity: 0.6;fill: #ffffff } 
		.shp13 { opacity: 0.251;fill: #ffffff } 
		.shp14 { fill: url(#grd6) } 
		.shp15 { fill: url(#grd7) } 
		.shp16 { fill: url(#grd8) } 
		.shp17 { fill: url(#grd9) } 
		.shp18 { fill: url(#grd10) } 
		.shp19 { fill: url(#grd11) } 
		.shp20 { fill: url(#grd12) } 
		.shp21 { fill: url(#grd13) } 
		.shp22 { fill: url(#grd14) } 
		.shp23 { fill: url(#grd15) } 
		.shp24 { fill: url(#grd16) } 
		.shp25 { fill: url(#grd17) } 
		.shp26 { fill: url(#grd18) } 
		.shp27 { fill: url(#grd19) } 
		.shp28 { fill: url(#grd20) } 
		.shp29 { fill: url(#grd21) } 
		.shp30 { fill: url(#grd22) } 
		.shp31 { fill: url(#grd23) } 
		.shp32 { fill: url(#grd24) } 
		.shp33 { fill: url(#grd25) } 
		.shp34 { fill: url(#grd26) } 
		.shp35 { fill: url(#grd27) } 
		.shp36 { fill: url(#grd28) } 
		.shp37 { fill: url(#grd29) } 
		.shp38 { fill: url(#grd30) } 
		.shp39 { fill: url(#grd31) } 
		.shp40 { fill: url(#grd32) } 
		.shp41 { fill: url(#grd33) } 
		.shp42 { fill: url(#grd34) } 
		.shp43 { fill: url(#grd35) } 
		.shp44 { fill: url(#grd36) } 
		.shp45 { fill: url(#grd37) } 
		.shp46 { fill: url(#grd38) } 
		.shp47 { fill: url(#grd39) } 
		.shp48 { fill: url(#grd40) } 
		.shp49 { fill: url(#grd41) } 
		.shp50 { fill: url(#grd42) } 
		.shp51 { fill: url(#grd43) } 
		.shp52 { fill: url(#grd44) } 
		.shp53 { fill: url(#grd45) } 
		.shp54 { fill: url(#grd46) } 
	</style>
	<g id="Illustration">
		<g id="&lt;Group&gt;">
			<path id="&lt;Path&gt;" class="shp0" d="M2940.82 2861.15C2882.77 2921.4 2827.84 2960.25 2784.45 2990.95C2274.33 3351.78 1670.72 3246.6 1542.43 3220.91C1353 3182.98 986.83 3109.66 722.09 2802.75C321.57 2338.41 383.93 1606.87 694.61 1123.96C751.43 1035.63 1051.61 545.37 1661.72 466.75C2030.95 419.17 2461.36 515.13 2773.04 772.57C3427.3 1312.94 3380.73 2404.59 2940.82 2861.15Z" />
			<g id="&lt;Group&gt;">
				<path id="&lt;Path&gt;" class="shp1" d="M3238.92 1583.71C3241.36 1573.31 3226.74 1566.4 3217.78 1573.66C3126.85 1647.4 2908.35 1868.23 2962.8 2254.14C3031.12 2738.32 2914.32 2914.99 2768.93 3022.76C2902.04 2988.97 3010.47 2912.32 3094.22 2792.81C3402.65 2352.65 3195.5 1768.56 3238.92 1583.71Z" />
				<path id="&lt;Path&gt;" class="shp2" d="M3169.72 1734.94C3158.34 1788.84 3148.2 1842.9 3140.37 1897.21C3132.2 1951.48 3125.94 2005.93 3121.66 2060.47C3117.62 2115.02 3114.77 2169.63 3114.61 2224.27C3114.16 2278.9 3116.43 2333.48 3118.94 2388.28C3121.08 2443.06 3123.61 2498.23 3119.6 2553.79C3115.65 2609.25 3103.98 2665.18 3080.82 2717.62C3075.03 2730.68 3068.94 2743.71 3062.02 2756.3C3055.37 2769 3048.07 2781.46 3040.51 2793.79C3025.25 2818.4 3008.07 2842.18 2988.93 2864.75C2950.5 2909.82 2904.16 2949.79 2853.1 2983.62C2847.73 2987.18 2840.03 2986.31 2835.9 2981.67C2831.85 2977.11 2832.76 2970.62 2837.88 2967.01L2837.92 2966.99C2850.07 2958.46 2862.09 2949.82 2873.62 2940.74C2879.47 2936.28 2885.08 2931.61 2890.79 2927.03C2896.29 2922.27 2902.01 2917.69 2907.33 2912.79C2929.01 2893.49 2949.1 2872.9 2967.32 2851.14C3003.97 2807.8 3033.31 2759.52 3055.54 2709.46C3066.33 2684.31 3074.96 2658.53 3081.26 2632.25C3087.53 2605.97 3091.48 2579.24 3093.66 2552.29C3098.03 2498.36 3096.06 2443.73 3094.37 2388.94C3092.76 2334.14 3091.58 2279.06 3093.02 2224.02C3093.66 2196.51 3094.87 2169 3096.65 2141.53C3097.45 2127.79 3098.55 2114.07 3099.63 2100.35C3100.86 2086.63 3102.18 2072.93 3103.62 2059.23C3109.53 2004.46 3117.36 1949.88 3127.19 1895.58C3137.31 1841.32 3149.1 1787.32 3163.27 1733.79C3163.68 1732.26 3165.44 1731.31 3167.21 1731.66C3168.93 1732 3170.03 1733.45 3169.72 1734.94Z" />
			</g>
			<g id="&lt;Group&gt;">
				<path id="&lt;Path&gt;" class="shp1" d="M1466.82 2901.63C1506 2747.91 1467.25 2589.48 1350.56 2426.36C1188.17 2199.33 780.35 1672.57 731.13 1389.4C728.95 1376.86 709.12 1379.58 705.27 1392.99C663.94 1536.77 589.6 1898.56 747.13 2269.37C882.56 2588.15 1122.46 2798.9 1466.82 2901.63Z" />
				<path id="&lt;Path&gt;" class="shp3" d="M746.97 1651.11C746.5 1654.75 746.09 1660.01 745.74 1666.88C745.22 1677.19 744.9 1692.33 745.48 1711.56C746.13 1730.79 747.84 1754.11 751.42 1780.64C755.07 1807.16 760.29 1836.92 768.05 1868.91C775.79 1900.9 786.19 1935.06 799.39 1970.35C812.66 2005.61 828.42 2042.14 847.19 2078.7C865.96 2115.24 887.33 2152 911.18 2187.96C917.26 2196.87 923.37 2205.82 929.49 2214.79C935.88 2223.57 942.29 2232.38 948.72 2241.21C961.74 2258.76 975.11 2276.39 988.49 2293.79C1015.29 2328.69 1042.71 2363.15 1069.96 2396.84C1097.22 2430.53 1124.49 2463.33 1151.15 2494.87C1204.2 2558.17 1254.87 2616.37 1296.74 2667.7C1317.7 2693.35 1336.09 2717.58 1351.68 2739.58C1367.25 2761.61 1379.78 2781.57 1389.11 2798.59C1398.47 2815.59 1404.54 2829.62 1408.45 2839.25C1410.39 2844.07 1411.65 2847.86 1412.6 2850.37C1413.22 2852.05 1413.68 2853.32 1414 2854.19C1414.33 2855.08 1413.87 2856.07 1412.98 2856.39C1412.1 2856.71 1411.14 2856.28 1410.79 2855.43L1410.76 2855.35C1410.42 2854.5 1409.92 2853.25 1409.25 2851.61C1408.23 2849.17 1406.86 2845.47 1404.79 2840.78C1400.64 2831.39 1394.07 2817.82 1384.43 2801.24C1374.8 2784.66 1361.91 2765.21 1345.94 2743.74C1330.02 2722.23 1310.9 2698.81 1289.75 2673.48C1247.32 2622.92 1195.8 2565.48 1141.82 2502.8C1114.94 2471.38 1087.4 2438.67 1059.86 2405.06C1032.31 2371.46 1004.95 2336.83 977.99 2301.85C964.48 2284.32 951.21 2266.83 938.05 2249.13C931.6 2240.17 925.16 2231.24 918.74 2222.32C912.6 2213.22 906.47 2204.14 900.38 2195.09C876.48 2158.59 854.94 2121.34 836.52 2084.08C818.06 2046.84 802.31 2009.79 789.85 1973.8C777.3 1937.84 767.56 1903.12 760.46 1870.67C753.33 1838.23 748.65 1808.1 746.06 1781.27C743.38 1754.44 742.48 1730.94 742.5 1711.6C742.51 1692.26 743.61 1677.1 744.6 1666.8C745.26 1659.93 745.92 1654.68 746.55 1651.05C746.57 1650.94 746.68 1650.86 746.8 1650.88C746.91 1650.89 746.99 1651 746.97 1651.11Z" />
			</g>
			<g id="&lt;Group&gt;">
				<path id="&lt;Path&gt;" class="shp4" d="M1155.42 841.52C1160.95 826.76 1182.63 829.23 1184.63 844.86C1203.97 995.97 1267.09 1390.62 1420.23 1617.66C1669.57 1987.34 1789.51 2545.66 1558.68 2791.69C888.21 2563.39 753.79 1913.33 1155.42 841.52Z" />
				<path id="&lt;Path&gt;" class="shp5" d="M1157.89 1053.35C1157.87 1054.4 1157.84 1055.94 1157.81 1057.97C1157.88 1061 1157.87 1065.37 1158.08 1071.31C1158.36 1083.12 1159.1 1100.45 1160.18 1122.49C1161.38 1144.52 1162.9 1171.28 1165.18 1201.94C1167.29 1232.61 1170.38 1267.16 1173.64 1304.85C1177.19 1342.51 1181.14 1383.31 1186.21 1426.35C1191.02 1469.43 1197.09 1514.74 1203.48 1561.58C1210.2 1608.38 1217.39 1656.71 1225.88 1705.61C1227.99 1717.84 1230.1 1730.12 1232.22 1742.43C1234.51 1754.71 1236.81 1767.03 1239.11 1779.37C1243.55 1804.09 1248.76 1828.76 1253.71 1853.48C1258.63 1878.2 1264.41 1902.74 1269.59 1927.3C1275.2 1951.77 1280.89 1976.13 1286.67 2000.26C1289.71 2012.28 1292.75 2024.25 1295.77 2036.17C1298.84 2048.07 1301.68 2059.98 1305.01 2071.67C1308.24 2083.39 1311.45 2095.04 1314.63 2106.61C1316.22 2112.39 1317.81 2118.15 1319.39 2123.89C1321.08 2129.6 1322.77 2135.29 1324.45 2140.95C1327.83 2152.27 1331.18 2163.49 1334.5 2174.61C1336.17 2180.16 1337.84 2185.69 1339.49 2191.19C1341.27 2196.65 1343.03 2202.09 1344.79 2207.49C1348.28 2218.31 1351.73 2229.02 1355.14 2239.59C1356.86 2244.87 1358.48 2250.15 1360.24 2255.35C1362.05 2260.52 1363.85 2265.67 1365.63 2270.78C1369.2 2281 1372.72 2291.08 1376.19 2301.01C1377.92 2305.98 1379.65 2310.9 1381.35 2315.79C1383.19 2320.64 1385 2325.44 1386.81 2330.2C1394.14 2349.2 1400.87 2367.71 1407.98 2385.22C1415.24 2402.66 1422.2 2419.38 1428.81 2435.29C1435.65 2451.09 1442.55 2465.9 1448.82 2479.92C1451.99 2486.91 1455.06 2493.68 1458.03 2500.21C1461.22 2506.64 1464.29 2512.83 1467.24 2518.78C1473.15 2530.69 1478.57 2541.62 1483.47 2551.5C1485.84 2556.48 1488.42 2561.02 1490.77 2565.33C1493.11 2569.64 1495.31 2573.68 1497.36 2577.45C1501.45 2584.97 1504.93 2591.38 1507.75 2596.57C1511.51 2603.49 1514.39 2608.8 1516.4 2612.5L1516.43 2612.56C1516.88 2613.39 1516.58 2614.43 1515.74 2614.89C1514.92 2615.33 1513.9 2615.04 1513.43 2614.23C1511.34 2610.58 1508.33 2605.33 1504.4 2598.48C1501.46 2593.34 1497.82 2587 1493.55 2579.55C1491.42 2575.82 1489.13 2571.81 1486.69 2567.53C1484.26 2563.25 1481.59 2558.74 1479.13 2553.79C1474.05 2543.97 1468.42 2533.09 1462.29 2521.25C1459.23 2515.33 1456.04 2509.17 1452.73 2502.78C1449.64 2496.28 1446.44 2489.54 1443.14 2482.59C1436.63 2468.62 1429.39 2453.9 1422.34 2438.12C1415.53 2422.24 1408.38 2405.53 1400.91 2388.1C1393.59 2370.61 1386.65 2352.11 1379.09 2333.12C1377.23 2328.36 1375.35 2323.55 1373.46 2318.71C1371.69 2313.83 1369.92 2308.9 1368.13 2303.94C1364.54 2294.01 1360.9 2283.93 1357.21 2273.71C1342.6 2232.79 1328.58 2189.14 1315.1 2143.7C1313.4 2138.03 1311.69 2132.33 1309.97 2126.61C1308.36 2120.86 1306.75 2115.08 1305.13 2109.28C1301.9 2097.69 1298.64 2086.02 1295.37 2074.27C1291.98 2062.55 1289.09 2050.63 1285.98 2038.7C1282.9 2026.76 1279.81 2014.76 1276.71 2002.71C1270.84 1978.53 1265.05 1954.13 1259.34 1929.61C1256.67 1917.31 1253.99 1904.99 1251.31 1892.65C1248.65 1880.31 1245.92 1867.97 1243.54 1855.56C1238.65 1830.77 1233.51 1806.03 1229.13 1781.24C1226.86 1768.86 1224.6 1756.5 1222.34 1744.19C1220.25 1731.84 1218.17 1719.53 1216.09 1707.27C1207.72 1658.23 1200.67 1609.78 1194.08 1562.88C1187.9 1515.91 1182.37 1470.46 1177.89 1427.27C1173.2 1384.11 1169.62 1343.22 1166.4 1305.47C1160.35 1229.93 1157.27 1166.85 1155.64 1122.68C1154.91 1100.59 1154.45 1083.24 1154.35 1071.38C1154.24 1065.5 1154.32 1060.79 1154.31 1057.71C1154.38 1055.67 1154.43 1054.12 1154.47 1053.07C1154.5 1052.12 1155.29 1051.38 1156.24 1051.42C1157.18 1051.45 1157.91 1052.23 1157.89 1053.16L1157.89 1053.35Z" />
			</g>
			<g id="&lt;Group&gt;">
				<path id="&lt;Path&gt;" class="shp6" d="M2845.05 879.32L1541.52 908.85C1469.61 910.48 1411.58 968.18 1409.56 1040.08L1356.15 2932.13C1354.57 2988.4 1399.88 3034.8 1456.17 3034.55L2950.79 3027.86C3003.68 3027.62 3046.09 2984.04 3044.9 2931.16L3001.8 1029.13C2999.89 944.47 2929.7 877.4 2845.05 879.32Z" />
				<g id="&lt;Group&gt;">
					<path id="&lt;Path&gt;" class="shp7" d="M2841.18 885.5C2663.72 913.67 2053.28 1002.2 1546.31 974.82C1523.19 973.57 1503.55 991.51 1502.85 1014.65L1444.97 2915.23C1444.17 2941.29 1464.55 2963.1 1490.61 2964.05C1703.75 2971.82 2581.45 3000.66 2893.38 2960.82C2912.37 2958.4 2926.45 2942.05 2926.13 2922.91L2892.68 928.77C2892.23 901.68 2867.93 881.25 2841.18 885.5Z" />
					<path id="&lt;Path&gt;" class="shp1" d="M2823.23 935.18C2652.45 962.29 2065 1047.48 1577.11 1021.13C1554.86 1019.93 1535.97 1037.19 1535.29 1059.46L1479.59 2888.48C1478.83 2913.55 1498.44 2934.54 1523.51 2935.46C1728.63 2942.94 2573.28 2970.68 2873.47 2932.35C2891.74 2930.02 2905.29 2914.28 2904.98 2895.87L2872.79 976.81C2872.36 950.74 2848.98 931.09 2823.23 935.18Z" />
					<path id="&lt;Path&gt;" class="shp8" d="M2717.4 1121.25L2708.08 1513.31C2707.77 1526.35 2697.48 1536.95 2684.46 1537.61C2611.97 1541.3 2386.08 1551.93 2258.31 1548.17C2243.85 1547.74 2232.17 1536.32 2231.36 1521.89C2227.27 1448.49 2217.1 1234.84 2231.81 1145.09C2234.19 1130.59 2246.35 1119.73 2261.02 1118.89L2689.41 1094.18C2704.85 1093.29 2717.77 1105.78 2717.4 1121.25Z" />
					<path id="&lt;Path&gt;" class="shp9" d="M2389.69 1268.77C2390.74 1315.27 2429.29 1352.11 2475.79 1351.05C2522.28 1350 2559.12 1311.45 2558.07 1264.95C2557.02 1218.46 2518.47 1181.61 2471.97 1182.67C2425.47 1183.72 2388.63 1222.27 2389.69 1268.77Z" />
					<path id="&lt;Path&gt;" class="shp10" d="M2607.36 1511.15L2339.13 1517.23C2322.69 1517.6 2312.43 1499.66 2320.97 1485.61C2342.94 1449.44 2389.42 1395.99 2472.03 1396.48C2551.65 1396.96 2599.88 1443.2 2624.36 1476.59C2634.75 1490.76 2624.93 1510.75 2607.36 1511.15Z" />
					<g id="&lt;Group&gt;" style="opacity: 0.6">
						<path id="&lt;Path&gt;" class="shp11" d="M1644.03 1179.68C1636.47 1179.85 1630.33 1174.07 1630.38 1166.84C1630.43 1159.61 1636.64 1153.44 1644.19 1153.14L2117.21 1133.98C2124.76 1133.68 2129.02 1139.3 2126.67 1146.49L2123.61 1155.85C2121.26 1163.03 2113.16 1169.05 2105.6 1169.22L1644.03 1179.68Z" />
					</g>
					<g id="&lt;Group&gt;" style="opacity: 0.6">
						<path id="&lt;Path&gt;" class="shp11" d="M2118.86 1207C2126.41 1206.69 2130.67 1212.32 2128.32 1219.5L2125.26 1228.86C2122.91 1236.04 2114.81 1242.06 2107.26 1242.23L1645.68 1252.69C1638.13 1252.86 1631.99 1247.08 1632.03 1239.85C1632.08 1232.62 1638.3 1226.46 1645.85 1226.15L2118.86 1207Z" />
					</g>
					<g id="&lt;Group&gt;" style="opacity: 0.6">
						<path id="&lt;Path&gt;" class="shp11" d="M2120.54 1281.07C2128.09 1280.76 2132.35 1286.39 2130 1293.57L2126.94 1302.94C2124.59 1310.12 2116.49 1316.13 2108.94 1316.31L1647.36 1326.76C1639.81 1326.93 1633.66 1321.16 1633.71 1313.93C1633.76 1306.7 1639.98 1300.53 1647.52 1300.22L2120.54 1281.07Z" />
					</g>
					<path id="&lt;Path&gt;" class="shp12" d="M1812.74 1352.93C1776.41 1350.97 1708.48 1351.22 1671.09 1351.54C1655.25 1351.68 1641.6 1362.72 1638.24 1378.21C1631.7 1408.28 1622.92 1460.43 1625.42 1515.42C1626.17 1531.89 1639.97 1544.74 1656.44 1544.19L1794.35 1539.58C1811.3 1539.01 1825.09 1525.72 1826.29 1508.8L1835.47 1378.76C1836.43 1365.31 1826.2 1353.65 1812.74 1352.93Z" />
					<g id="&lt;Group&gt;" style="opacity: 0.6">
						<path id="&lt;Path&gt;" class="shp11" d="M1898.61 1417.01C1891.06 1417.18 1884.83 1411.41 1884.77 1404.18C1884.71 1396.95 1890.83 1390.67 1898.37 1390.23L2118.2 1377.31C2125.75 1376.87 2131 1382.62 2129.87 1390.09L2128.64 1398.26C2127.51 1405.73 2120.41 1411.98 2112.85 1412.16L1898.61 1417.01Z" />
					</g>
					<g id="&lt;Group&gt;" style="opacity: 0.6">
						<path id="&lt;Path&gt;" class="shp11" d="M2120.7 1463.29C2128.26 1463.12 2133.29 1469.06 2131.89 1476.48L2130.36 1484.6C2128.97 1492.03 2121.64 1498.02 2114.08 1497.91L1899.8 1494.93C1892.25 1494.82 1886.24 1488.83 1886.44 1481.6C1886.65 1474.37 1892.99 1468.32 1900.55 1468.16L2120.7 1463.29Z" />
					</g>
					<g id="&lt;Group&gt;" style="opacity: 0.6">
						<path id="&lt;Path&gt;" class="shp11" d="M1609.79 1685.02C1602.24 1685.19 1596.31 1679.41 1596.63 1672.18C1596.94 1664.94 1603.37 1658.83 1610.93 1658.6L2715.2 1624.87C2722.75 1624.64 2725.19 1629.37 2720.62 1635.39L2710.01 1649.35C2705.44 1655.36 2695.52 1660.42 2687.97 1660.59L1609.79 1685.02Z" />
					</g>
					<g id="&lt;Group&gt;" style="opacity: 0.6">
						<path id="&lt;Path&gt;" class="shp11" d="M2716.85 1697.88C2724.41 1697.65 2726.84 1702.38 2722.27 1708.4L2711.67 1722.36C2707.1 1728.37 2697.17 1733.44 2689.62 1733.61L1611.44 1758.03C1603.89 1758.21 1597.97 1752.42 1598.28 1745.19C1598.59 1737.95 1605.03 1731.84 1612.58 1731.61L2716.85 1697.88Z" />
					</g>
					<path id="&lt;Path&gt;" class="shp13" d="M2723.05 1819.72C2696.52 1818.29 2646.91 1818.47 2619.6 1818.71C2608.03 1818.81 2598.06 1826.88 2595.61 1838.18C2590.83 1860.14 2584.42 1898.23 2586.25 1938.4C2586.79 1950.42 2596.87 1959.81 2608.9 1959.4L2709.62 1956.04C2722 1955.62 2732.07 1945.92 2732.94 1933.56L2739.65 1838.59C2740.35 1828.77 2732.88 1820.25 2723.05 1819.72Z" />
					<g id="&lt;Group&gt;" style="opacity: 0.6">
						<path id="&lt;Path&gt;" class="shp11" d="M2539.18 1862.76C2546.72 1862.27 2552.11 1868.01 2551.15 1875.5L2548.69 1894.85C2547.74 1902.35 2540.78 1908.62 2533.23 1908.79L2285.49 1914.41C2277.94 1914.58 2271.69 1908.54 2271.62 1900.98L2271.54 1893.77C2271.47 1886.21 2277.57 1879.63 2285.11 1879.15L2539.18 1862.76Z" />
					</g>
					<path id="&lt;Path&gt;" class="shp13" d="M2174.25 1832.15C2147.72 1830.73 2098.11 1830.91 2070.8 1831.15C2059.23 1831.25 2049.26 1839.31 2046.8 1850.62C2042.03 1872.58 2035.62 1910.67 2037.45 1950.83C2037.99 1962.86 2048.07 1972.24 2060.1 1971.84L2160.81 1968.47C2173.2 1968.06 2183.27 1958.35 2184.14 1945.99L2190.85 1851.02C2191.55 1841.2 2184.08 1832.68 2174.25 1832.15Z" />
					<g id="&lt;Group&gt;" style="opacity: 0.6">
						<path id="&lt;Path&gt;" class="shp11" d="M1990.37 1875.19C1997.91 1874.7 2003.3 1880.44 2002.35 1887.93L1999.89 1907.29C1998.94 1914.78 1991.98 1921.06 1984.42 1921.23L1736.69 1926.84C1729.13 1927.01 1722.89 1920.97 1722.81 1913.41L1722.74 1906.2C1722.66 1898.65 1728.77 1892.07 1736.31 1891.58L1990.37 1875.19Z" />
					</g>
					<g id="&lt;Group&gt;" style="opacity: 0.6">
						<path id="&lt;Path&gt;" class="shp11" d="M1679.86 2171.53C1672.31 2171.7 1666.38 2165.92 1666.68 2158.68C1666.98 2151.45 1673.4 2145.34 1680.95 2145.1L2753.54 2112.1C2761.09 2111.87 2763.6 2116.65 2759.11 2122.73L2748.98 2136.44C2744.49 2142.52 2734.64 2147.63 2727.09 2147.8L1679.86 2171.53Z" />
					</g>
					<g id="&lt;Group&gt;" style="opacity: 0.6">
						<path id="&lt;Path&gt;" class="shp11" d="M2755.19 2185.11C2762.74 2184.88 2765.25 2189.66 2760.76 2195.74L2750.64 2209.45C2746.15 2215.53 2736.3 2220.65 2728.74 2220.82L1681.52 2244.54C1673.97 2244.71 1668.03 2238.93 1668.33 2231.7C1668.63 2224.46 1675.06 2218.35 1682.61 2218.12L2755.19 2185.11Z" />
					</g>
					<g id="&lt;Group&gt;" style="opacity: 0.6">
						<path id="&lt;Path&gt;" class="shp11" d="M2756.87 2259.19C2764.42 2258.95 2766.93 2263.74 2762.44 2269.82L2752.32 2283.53C2747.83 2289.61 2737.97 2294.72 2730.42 2294.89L1683.2 2318.62C1675.64 2318.79 1669.71 2313.01 1670.01 2305.77C1670.31 2298.53 1676.73 2292.42 1684.29 2292.19L2756.87 2259.19Z" />
					</g>
				</g>
				<path id="&lt;Compound Path&gt;" fill-rule="evenodd" class="shp14" d="M2106.6 638.24C2152.94 604.42 2193.9 604.14 2222.91 611.99C2249.38 619.15 2266.99 644.15 2265.11 671.5L2255.76 807.45L2108.15 823.92C2046.53 744.36 2046.01 682.46 2106.6 638.24ZM2174.12 746.21C2194.49 745.75 2210.63 728.87 2210.16 708.5C2209.7 688.13 2192.82 671.99 2172.45 672.46C2152.08 672.92 2135.95 689.8 2136.41 710.17C2136.87 730.54 2153.75 746.68 2174.12 746.21Z" />
				<path id="&lt;Compound Path&gt;" class="shp1" d="M2239.36 750.71C2237.39 750.57 2235.91 748.87 2236.04 746.9L2237.53 725.25C2237.67 723.28 2239.33 721.79 2241.34 721.93C2243.31 722.07 2244.79 723.77 2244.66 725.74L2243.17 747.39C2243.04 749.25 2241.51 750.67 2239.69 750.71C2239.58 750.72 2239.47 750.72 2239.36 750.71ZM2242.28 708.28C2240.31 708.14 2238.83 706.44 2238.96 704.47L2240.1 688.04C2241.66 665.37 2226.96 644.63 2205.14 638.73C2188.52 634.23 2171.48 633.92 2154.49 637.8C2152.56 638.23 2150.66 637.03 2150.22 635.12C2149.78 633.19 2150.98 631.28 2152.9 630.84C2171.03 626.69 2189.24 627.02 2207.01 631.83C2232.1 638.63 2249.01 662.47 2247.22 688.53L2246.09 704.96C2245.96 706.82 2244.43 708.25 2242.61 708.29C2242.5 708.29 2242.39 708.29 2242.28 708.28Z" />
				<path id="&lt;Path&gt;" class="shp15" d="M2459.6 890.55L2458.06 822.34C2457.52 798.79 2437.58 780.38 2414.07 781.72L1944.17 808.48C1923.32 809.67 1906.79 826.53 1906.01 847.4L1903.57 913.03L2459.6 890.55Z" />
				<path id="&lt;Path&gt;" class="shp1" d="M2282.35 810.42L2302.57 809.96C2304.54 809.91 2306.1 808.28 2306.06 806.31C2306.01 804.34 2304.38 802.77 2302.41 802.82L2282.19 803.28C2280.22 803.32 2278.65 804.95 2278.7 806.93C2278.74 808.9 2280.38 810.46 2282.35 810.42Z" />
				<path id="&lt;Path&gt;" class="shp1" d="M2433.66 869.71C2435.63 869.66 2437.2 868.03 2437.15 866.06L2436.53 838.46C2436.04 817.14 2418.3 800.19 2396.99 800.68L2322.63 802.36C2320.66 802.41 2319.1 804.04 2319.15 806.01C2319.19 807.98 2320.83 809.54 2322.8 809.5L2397.15 807.81C2414.53 807.42 2428.99 821.24 2429.39 838.62L2430.01 866.22C2430.06 868.19 2431.69 869.75 2433.66 869.71Z" />
				<path id="&lt;Path&gt;" class="shp16" d="M2606.38 862.24L1784.05 880.85C1754.48 881.52 1729.68 903.37 1725.3 932.62L1724.69 936.66C1719.89 968.7 1745.12 997.33 1777.51 996.6L2621.18 977.48C2640.56 977.04 2655.64 960.49 2654.27 941.15L2651.6 903.43C2649.93 879.84 2630.03 861.71 2606.38 862.24Z" />
			</g>
			<g id="&lt;Group&gt;">
				<g id="&lt;Group&gt;">
					<path id="&lt;Path&gt;" class="shp17" d="M1947.21 2508.1L1837.62 2241.96C1835.5 2236.81 1830.49 2233.45 1824.92 2233.45L1757.52 2233.45C1747.51 2233.45 1740.87 2243.81 1745.04 2252.91L1872.1 2530.14C1874.8 2536.03 1881.25 2539.23 1887.57 2537.83L1937.49 2526.74C1945.81 2524.89 1950.45 2515.98 1947.21 2508.1Z" />
					<g id="&lt;Group&gt;">
						<path id="&lt;Path&gt;" class="shp18" d="M2115.86 3170.73L2083.59 3170.73L2083.59 2821.73L2115.86 2821.73L2115.86 3170.73Z" />
						<path id="&lt;Path&gt;" class="shp19" d="M2241.05 3177.46L1958.4 3177.46L1958.4 3159.83C1958.4 3157.96 1959.9 3156.45 1961.77 3156.45L2237.68 3156.45C2239.54 3156.45 2241.05 3157.96 2241.05 3159.83L2241.05 3177.46Z" />
						<path id="&lt;Path&gt;" class="shp20" d="M2283 2809.61C2283 2828.7 2267.39 2844.32 2248.3 2844.32L1962.32 2844.32C1943.23 2844.32 1927.61 2828.7 1927.61 2809.61L1927.61 2778.23C1927.61 2759.14 1943.23 2743.53 1962.32 2743.53L2248.3 2743.53C2267.39 2743.53 2283 2759.14 2283 2778.23L2283 2809.61Z" />
					</g>
					<g id="&lt;Group&gt;">
						<path id="&lt;Path&gt;" class="shp21" d="M1861.47 2589.02C1829.5 2593.98 1795.55 2608.47 1759.6 2632.5C1751.12 2638.17 1746.46 2648.06 1747.74 2658.18C1754.2 2709.32 1780.74 2874.85 1868.28 3036.51C1872.89 3045.04 1874.22 3054.96 1872.18 3064.44L1856.97 3135.21L1828.77 3161.66L1901.41 3161.66L1949.78 3030.77L1929.1 3024.23C1913.06 3019.16 1902.06 3004.41 1901.77 2987.59L1899.34 2847.18C1900.72 2805.48 1887.94 2770.24 1860.99 2741.47L1977 2735.83L1861.47 2589.02Z" />
						<path id="&lt;Path&gt;" class="shp22" d="M1800.41 3174.42C1793.79 3183.08 1871.61 3194.51 1910.93 3175.57C1947.26 3112.36 1965.43 3064.47 1965.43 3031.93C1962.54 3025.29 1950.43 3022.72 1929.1 3024.23C1916.9 3099.08 1904.36 3140.7 1891.48 3149.08C1878.59 3157.46 1860.57 3157.89 1837.42 3150.35C1819.25 3157.88 1806.91 3165.91 1800.41 3174.42Z" />
						<path id="&lt;Path&gt;" class="shp23" d="M1962.32 2743.53C1961.91 2742.81 1920.27 2737.83 1837.42 2728.58C1840.13 2753.77 1837.25 2783.71 1828.77 2818.39C1820.3 2853.07 1755.23 2945.54 1633.58 3095.8L1652.71 3156.45C1593.55 3177.06 1535.36 3180.35 1478.1 3166.96L1596.68 3095.8C1670.66 2843.67 1730.31 2695.12 1775.63 2650.15L1900.21 2607.04L1962.32 2743.53Z" />
						<path id="&lt;Path&gt;" class="shp24" d="M2241.05 2523.47C2288.79 2594.48 2314.62 2646.18 2318.54 2678.57C2324.41 2727.15 2298.92 2746.89 2223.79 2750.15C2173.7 2752.32 2081.79 2753.38 1948.07 2753.35L1776.88 2607.04C1860.05 2577.37 1912.45 2558.33 1934.07 2549.94C1955.7 2541.55 2058.02 2532.73 2241.05 2523.47Z" />
						<path id="&lt;Path&gt;" class="shp25" d="M1645.48 3136.03C1659.21 3149.33 1661.44 3163.38 1652.17 3178.18C1543.38 3197.46 1474.21 3202.73 1444.68 3193.98C1450.81 3179.98 1470.51 3165.01 1503.77 3149.08L1500.09 3151.91C1495.43 3155.48 1498.16 3162.93 1504.02 3162.6C1536.9 3160.72 1604.93 3154.7 1645.48 3136.03Z" />
					</g>
					<g id="&lt;Group&gt;">
						<path id="&lt;Path&gt;" class="shp26" d="M2047.4 2509.37C1991.81 2456.44 1950.33 2412.44 1922.96 2377.38C1900.78 2348.95 1893.81 2311.53 1904.07 2276.96C1922.81 2213.82 1956.11 2148.43 1959.15 2138.25C1962.25 2127.85 1994.97 2122.87 2057.31 2123.3C2179.96 2202.91 2265.39 2310.13 2313.58 2444.98L2232.4 2470.26C2200.37 2416.53 2168.54 2372.58 2136.89 2338.42C2191.65 2410.75 2219.99 2461.73 2221.92 2491.34L2047.4 2509.37Z" />
						<path id="&lt;Path&gt;" class="shp27" d="M1947.84 2051.07C1948.82 2054.31 1973.22 2135.21 1975.13 2136.89C1977.04 2138.57 2028.65 2141.35 2052.94 2124.74L2011.73 2038.47L1947.84 2051.07Z" />
						<path id="&lt;Path&gt;" class="shp28" d="M1917.69 1932.38C1898.4 1953.47 1888.55 1985.04 1888.15 2027.08C1887.55 2090.15 1916.76 2105.73 1941.17 2098.51C1965.57 2091.3 1999.57 2075.08 2020.41 2024.96C2041.25 1974.83 1956.1 1893.01 1917.69 1932.38Z" />
						<path id="&lt;Path&gt;" class="shp29" d="M1983.36 2008.44C1978.2 1949.56 1953.05 1930.12 1907.92 1950.11L1897.17 1968.44C1867.84 1947.94 1863.61 1924.8 1884.48 1899.02C1915.77 1860.34 1984.44 1850.47 2026.73 1897.15C2069.02 1943.82 2075.11 1983.7 2058.41 2022.98C2047.28 2049.17 2033.24 2054.2 2016.3 2038.07C2019.24 2017.01 2016.59 2003.09 2008.35 1996.33C2000.11 1989.56 1993.52 1993.68 1988.56 2008.68L1983.36 2008.44Z" />
						<path id="&lt;Path&gt;" class="shp30" d="M1994.78 2013.43C1991.95 1983.18 1999.01 1970.45 2015.94 1975.24C2041.35 1982.42 2017.67 2018.16 2007.76 2030.76L1994.78 2013.43Z" />
						<path id="&lt;Path&gt;" class="shp31" d="M1877.52 2515.27L1938.78 2456.22L2023.54 2492.02C2079.78 2500.74 2124 2500.74 2156.19 2492.02C2188.37 2483.31 2204.47 2478.95 2204.47 2478.95L2313.58 2444.98L2330.72 2493.41C2335.07 2505.71 2330.7 2519.36 2320.06 2526.91C2310.63 2533.62 2299.56 2541 2292.51 2544.08C2282.93 2548.27 2164.86 2546.82 1938.29 2539.73L1877.52 2515.27Z" />
						<path id="&lt;Path&gt;" class="shp32" d="M2025.38 1908.12C2012.68 1903.25 2011.45 1885.75 2022.79 1878.23C2059.41 1853.98 2122.42 1832.66 2186.43 1905.5C2258.53 1987.54 2298.87 2026.59 2321.71 2026.22C2336.7 2025.97 2345.46 2042.93 2335.58 2054.22C2328.28 2062.57 2315.79 2070.07 2295.05 2074.57C2135.04 2109.3 2099.91 1936.67 2025.38 1908.12Z" />
					</g>
					<g id="&lt;Group&gt;">
						<g id="&lt;Group&gt;">
							<path id="&lt;Path&gt;" class="shp33" d="M920.45 3196.42C918.73 3196.42 916.99 3196.09 915.31 3195.4C908.71 3192.7 905.66 3185.41 908.5 3179.12L1181.45 2574.93C1184.29 2568.65 1191.94 2565.74 1198.55 2568.45C1205.16 2571.15 1208.21 2578.44 1205.37 2584.73L932.41 3188.92C930.29 3193.61 925.49 3196.42 920.45 3196.42Z" />
							<path id="&lt;Path&gt;" class="shp34" d="M1227.94 3196.42C1222.9 3196.42 1218.1 3193.61 1215.98 3188.92L943.03 2584.73C940.19 2578.44 943.24 2571.15 949.84 2568.45C956.44 2565.74 964.1 2568.64 966.94 2574.93L1239.89 3179.12C1242.73 3185.41 1239.68 3192.7 1233.08 3195.4C1231.41 3196.09 1229.66 3196.42 1227.94 3196.42Z" />
							<path id="&lt;Path&gt;" class="shp35" d="M2043.39 3196.42C2041.68 3196.42 2039.93 3196.09 2038.26 3195.4C2031.65 3192.7 2028.6 3185.41 2031.44 3179.12L2304.4 2574.93C2307.24 2568.65 2314.89 2565.74 2321.5 2568.45C2328.1 2571.15 2331.15 2578.44 2328.31 2584.73L2055.36 3188.92C2053.24 3193.61 2048.44 3196.42 2043.39 3196.42Z" />
							<path id="&lt;Path&gt;" class="shp36" d="M2350.89 3196.42C2345.84 3196.42 2341.04 3193.61 2338.92 3188.92L2065.97 2584.73C2063.13 2578.44 2066.18 2571.15 2072.78 2568.45C2079.38 2565.74 2087.04 2568.64 2089.88 2574.93L2362.83 3179.12C2365.68 3185.41 2362.63 3192.7 2356.02 3195.4C2354.35 3196.09 2352.6 3196.42 2350.89 3196.42Z" />
						</g>
						<path id="&lt;Path&gt;" class="shp37" d="M2438.24 2556.09C2439.12 2552.06 2437.91 2547.9 2434.94 2544.73C2431.96 2541.56 2427.53 2539.73 2422.85 2539.73L838.48 2539.73C832.33 2539.73 826.6 2542.48 823.29 2547.03C819.97 2551.58 819.53 2557.29 822.11 2562.19L839.28 2594.8C843.21 2602.26 851.73 2607.04 861.1 2607.04L2411.98 2607.04C2420.7 2607.04 2428.2 2601.62 2429.85 2594.11L2438.24 2556.09Z" />
					</g>
				</g>
				<g id="&lt;Group&gt;">
					<g id="&lt;Group&gt;">
						<path id="&lt;Path&gt;" class="shp1" d="M640.35 2766.83C630.78 2780.99 592.74 3101.68 586.79 3220.12C586.38 3228.13 592.79 3234.81 600.81 3234.81C607.73 3234.81 613.61 3229.77 614.68 3222.93L684.26 2777.03L640.35 2766.83Z" />
						<path id="&lt;Path&gt;" class="shp1" d="M946.22 2766.83C955.79 2780.99 993.83 3101.68 999.78 3220.12C1000.19 3228.13 993.78 3234.81 985.76 3234.81C978.84 3234.81 972.96 3229.77 971.89 3222.93L902.31 2777.03L946.22 2766.83Z" />
						<path id="&lt;Path&gt;" class="shp1" d="M582.81 2741.8L582.78 2745.3C582.55 2770.46 604.22 2791.09 631.36 2791.55L952.98 2797.03C979.73 2797.48 1002.03 2778.15 1003.32 2753.38L1003.49 2750.18C1004.84 2724.35 982.91 2702.59 955.01 2702.09L633.25 2696.32C605.72 2695.83 583.04 2716.27 582.81 2741.8Z" />
					</g>
					<g id="&lt;Group&gt;">
						<g id="&lt;Group&gt;">
							<path id="&lt;Path&gt;" class="shp38" d="M1127.51 3168.63C1076.43 3168.63 1053.83 3164.25 1043.72 3160.25C1045.69 3168.64 1053.16 3175.26 1062.6 3175.26L1243.31 3175.26C1249.4 3175.26 1253.24 3169.44 1251.78 3164.16C1231.18 3165.82 1187.43 3168.63 1127.51 3168.63Z" />
							<path id="&lt;Path&gt;" class="shp39" d="M1251.78 3164.16C1251.49 3163.1 1251.06 3162.05 1250.3 3161.09C1236.54 3143.51 1208.89 3115.91 1171.27 3116.44C1116.17 3117.22 1096.95 3123.2 1054.13 3116.78L1044.03 3150.26C1043 3153.68 1042.98 3157.09 1043.72 3160.25C1053.83 3164.25 1076.43 3168.63 1127.51 3168.63C1187.43 3168.63 1231.18 3165.82 1251.78 3164.16Z" />
						</g>
						<path id="&lt;Path&gt;" class="shp40" d="M1066.53 3080.69L1054.13 3122.87C1072.45 3131.21 1089.66 3132.03 1105.77 3125.33L1110.51 3088.8L1066.53 3080.69Z" />
						<g id="&lt;Group&gt;">
							<path id="&lt;Path&gt;" class="shp41" d="M1441.08 3142.07C1401.26 3174.07 1380.91 3184.82 1370.54 3188.05C1377.3 3193.33 1387.25 3193.79 1394.61 3187.87L1535.48 3074.69C1540.23 3070.87 1539.59 3063.95 1535.17 3060.77C1520.14 3074.95 1487.79 3104.54 1441.08 3142.07Z" />
							<path id="&lt;Path&gt;" class="shp42" d="M1535.17 3060.77C1534.28 3060.13 1533.29 3059.58 1532.1 3059.31C1510.41 3054.3 1471.65 3050.2 1442.66 3074.17C1400.18 3109.29 1388.93 3125.96 1351.55 3147.8L1364.55 3180.11C1365.87 3183.4 1367.99 3186.06 1370.54 3188.05C1380.91 3184.82 1401.26 3174.07 1441.08 3142.07C1487.79 3104.54 1520.14 3074.95 1535.17 3060.77Z" />
						</g>
						<path id="&lt;Path&gt;" class="shp43" d="M801.27 2600.19C1005.15 2616.84 1128.01 2635.01 1169.83 2654.7C1211.66 2674.39 1194.59 2822.21 1118.63 3098.17C1107.25 3103.65 1088.89 3102.45 1063.55 3094.57C1089.53 2890.93 1092.85 2767.03 1073.52 2722.87L742.39 2668.71L801.27 2600.19Z" />
						<path id="&lt;Path&gt;" class="shp44" d="M1321.16 3089.66C1323.06 3091.38 1333.19 3110.77 1351.55 3147.8C1372 3143.38 1384.3 3134.7 1388.47 3121.76L1360.88 3071.62L1321.16 3089.66Z" />
						<path id="&lt;Path&gt;" class="shp45" d="M617.07 2597.64C610.43 2613.63 607.24 2632.24 607.51 2653.49C608.07 2697.56 643.51 2733.32 687.53 2735.52L1049.06 2752.01C1056.7 2752.36 1063.16 2757.64 1065.07 2765.04C1073.57 2797.9 1115.09 2898.81 1318.08 3100.18C1323.48 3105.53 1331.9 3106.45 1338.33 3102.38L1367.22 3084.13C1370.26 3082.21 1371.23 3078.24 1369.41 3075.14L1158.91 2715.67C1147.85 2697.43 1130.08 2684.25 1109.41 2678.96L801.27 2600.19L617.07 2597.64Z" />
						<path id="&lt;Path&gt;" class="shp46" d="M616.09 2596.58C613.7 2477.12 624.45 2361.17 648.33 2248.75C661.56 2186.48 695.99 2130.72 745.99 2091.32L762.72 2078.14L846.51 2112.18L889.57 2186.58C913.27 2233.99 907.45 2336.95 889.57 2386.84C859.67 2470.27 835.76 2556.73 825.56 2599.2C733.05 2611.42 663.22 2610.54 616.09 2596.58Z" />
						<path id="&lt;Path&gt;" class="shp47" d="M820.33 1944.6L754.87 2096.47C768.83 2127.89 800.25 2137.49 849.13 2125.27L875.31 2020.54L820.33 1944.6Z" />
						<g id="&lt;Group&gt;">
							<path id="&lt;Path&gt;" class="shp48" d="M950.05 1875.34C950.58 1876.76 951.42 1927.34 952.57 2027.08L867.12 2026.26L844.41 1884.69C906.03 1854.79 941.24 1851.67 950.05 1875.34Z" />
							<path id="&lt;Path&gt;" class="shp49" d="M869.47 1911.92L875.59 1987.37C875.67 1988.34 875.88 1989.27 876.21 1990.18C878.28 1995.75 886.79 2014.4 905.34 2004.53C922.17 1995.58 937.66 1987.66 949.77 1988.68C955.21 1989.13 959.4 1993.63 959.46 1999.09C959.61 2012.68 959.39 2043.32 955.14 2069.91C954.28 2075.31 949.39 2079.1 943.94 2078.71C927.52 2077.55 892.95 2074.12 865.78 2064.85C862.1 2063.6 859.39 2060.47 858.73 2056.64C855.51 2037.95 845.51 1981.19 840.28 1965.81C835.36 1951.37 815.27 1946.42 806.68 1944.95C803.87 1944.47 801.4 1942.86 799.8 1940.5C794.16 1932.12 784.54 1912 809.38 1897.54C814.58 1894.51 816.23 1887.84 813.04 1882.74C806.7 1872.57 801.4 1856.12 820.07 1842.38C839.05 1828.42 857.17 1836.23 867.61 1843.5C871.83 1846.44 877.45 1845.82 881.12 1842.21C883.21 1840.16 886.22 1838.98 890.49 1840.52C896.25 1842.58 902.51 1838.97 903.97 1833.03C906.77 1821.61 914.63 1808.33 935.97 1807.41C973.82 1805.77 986.7 1845.33 982.2 1871.11C977.69 1896.9 936.54 1896.35 914.3 1888.65C897.39 1882.79 880.05 1896.51 872.72 1903.42C870.39 1905.61 869.22 1908.73 869.47 1911.92Z" />
							<path id="&lt;Path&gt;" class="shp50" d="M842.78 1993.26C846.73 1963.08 842.82 1945.67 831.06 1941.03C813.41 1934.07 791.73 1944.35 803.34 1973.71C812.97 1998.05 826.11 2004.57 842.78 1993.26Z" />
						</g>
						<path id="&lt;Path&gt;" class="shp51" d="M1022.01 2452.66C806.22 2520.4 817.69 2216.67 816.3 2214.54C730.75 2083.81 682.71 2258.02 691 2282.58C766.88 2557.28 958.16 2543.68 1032.69 2489.72C1023.41 2475.28 1021.29 2462.57 1022.01 2452.66Z" />
						<path id="&lt;Path&gt;" class="shp52" d="M856.59 2405.8C855.4 2405.43 854.32 2404.66 853.6 2403.53C820.9 2352.58 811.67 2281.78 809.69 2231.35C809.57 2228.32 811.93 2225.77 814.96 2225.65C817.99 2225.53 820.54 2227.89 820.66 2230.92C822.24 2271.09 829.82 2346.15 862.84 2397.6C864.47 2400.15 863.73 2403.54 861.18 2405.18C859.76 2406.09 858.08 2406.27 856.59 2405.8Z" />
						<path id="&lt;Path&gt;" class="shp53" d="M796.33 2474.82C795.65 2474.61 795 2474.27 794.43 2473.79C745.11 2432.46 707.95 2367.52 683.99 2280.76C683.18 2277.84 684.9 2274.81 687.82 2274.01C690.74 2273.2 693.77 2274.92 694.57 2277.84C717.93 2362.41 753.9 2425.5 801.48 2465.37C803.81 2467.32 804.11 2470.78 802.16 2473.11C800.7 2474.85 798.38 2475.46 796.33 2474.82Z" />
						<path id="&lt;Path&gt;" class="shp54" d="M1149.04 2389.24C1146.7 2392.97 1137.11 2401.36 1120.27 2414.41C1095 2433.99 1069.57 2445.28 1088.88 2418.38C1108.2 2391.47 1098.8 2377.59 1076.75 2406.57C1062.06 2425.89 1049.46 2439.29 1038.95 2446.75C1033.15 2448.97 1027.51 2450.93 1022.01 2452.66C1021.29 2462.57 1023.41 2475.28 1032.69 2489.72C1038.52 2487.79 1043.08 2486.11 1046.37 2484.69C1090.92 2476.58 1117.97 2463.04 1127.51 2444.07C1137.06 2425.1 1144.23 2406.82 1149.04 2389.24Z" />
					</g>
				</g>
			</g>
			<g id="&lt;Group&gt;">
				<path id="&lt;Path&gt;" class="shp11" d="M1637.28 2247.26C1268.35 2064.97 1144.21 1906.72 1264.87 1772.51C1445.85 1571.19 1783.25 1651.66 1800.35 1863.55C1817.44 2075.44 1406.77 2025.73 1637.28 2247.26Z" />
				<g id="&lt;Group&gt;">
					<path id="&lt;Path&gt;" class="shp1" d="M1311.68 1830.09L1555.91 1830.09C1558.99 1830.09 1561.49 1827.59 1561.49 1824.51C1561.49 1821.42 1558.99 1818.93 1555.91 1818.93L1311.68 1818.93C1308.6 1818.93 1306.1 1821.42 1306.1 1824.51C1306.1 1827.59 1308.6 1830.09 1311.68 1830.09Z" />
					<path id="&lt;Path&gt;" class="shp1" d="M1628.43 1830.09L1700.9 1830.09C1703.98 1830.09 1706.48 1827.59 1706.48 1824.51C1706.48 1821.42 1703.98 1818.93 1700.9 1818.93L1628.43 1818.93C1625.35 1818.93 1622.85 1821.42 1622.85 1824.51C1622.85 1827.59 1625.35 1830.09 1628.43 1830.09Z" />
					<path id="&lt;Path&gt;" class="shp1" d="M1303.45 1879.53L1395.16 1879.53C1398.24 1879.53 1400.74 1877.03 1400.74 1873.95C1400.74 1870.87 1398.24 1868.37 1395.16 1868.37L1303.45 1868.37C1300.37 1868.37 1297.87 1870.87 1297.87 1873.95C1297.87 1877.03 1300.37 1879.53 1303.45 1879.53Z" />
					<path id="&lt;Path&gt;" class="shp1" d="M1529.72 1879.53L1692.67 1879.53C1695.75 1879.53 1698.25 1877.03 1698.25 1873.95C1698.25 1870.87 1695.75 1868.37 1692.67 1868.37L1529.72 1868.37C1526.64 1868.37 1524.14 1870.87 1524.14 1873.95C1524.14 1877.03 1526.64 1879.53 1529.72 1879.53Z" />
					<path id="&lt;Path&gt;" class="shp1" d="M1295.22 1928.98L1539 1928.98C1542.09 1928.98 1544.58 1926.48 1544.58 1923.4C1544.58 1920.31 1542.09 1917.82 1539 1917.82L1295.22 1917.82C1292.14 1917.82 1289.64 1920.31 1289.64 1923.4C1289.64 1926.48 1292.14 1928.98 1295.22 1928.98Z" />
					<path id="&lt;Path&gt;" class="shp1" d="M1600.05 1928.98L1684.44 1928.98C1687.52 1928.98 1690.02 1926.48 1690.02 1923.4C1690.02 1920.31 1687.52 1917.82 1684.44 1917.82L1600.05 1917.82C1596.97 1917.82 1594.47 1920.31 1594.47 1923.4C1594.47 1926.48 1596.97 1928.98 1600.05 1928.98Z" />
				</g>
			</g>
		</g>
	</g>
</svg>