<svg version="1.2" baseProfile="tiny-ps" xmlns="http://www.w3.org/2000/svg" viewBox="0 0 3710 3710" width="3710" height="3710">
	<title>Wavy_Tech-08_Single-04-ai</title>
	<defs>
		<linearGradient id="grd1" gradientUnits="userSpaceOnUse"  x1="1921.782" y1="1089.028" x2="1865.445" y2="2437.81">
			<stop offset="0" stop-color="#ffc444"  />
			<stop offset="0.592" stop-color="#f8924f"  />
			<stop offset="0.996" stop-color="#f36f56"  />
		</linearGradient>
		<clipPath clipPathUnits="userSpaceOnUse" id="cp1">
			<path d="M1704.59 2525.65C1807.11 2453.26 1825.44 2263.62 1800.34 2136.36C1771.03 1987.77 1694.28 1983.83 1680.48 1866.5C1654.79 1648.05 1910.3 1572.11 1901.86 1349.75C1894.96 1167.98 1721.58 1149.76 1723.1 948.11C1724.2 802.6 1815 742.15 1774.22 615.19C1770.73 604.33 1731.45 487.82 1631.94 460.59C1531.5 433.1 1428.45 512.65 1377.49 576.72C1283.29 695.16 1353.02 778.4 1292.87 959.78C1210.98 1206.72 1033.25 1198.6 1010.54 1392.89C991.78 1553.33 1108.64 1595.88 1084.31 1773.36C1061.72 1938.16 952.74 1961.37 948.16 2073.7C937.63 2332.12 1495.49 2673.3 1704.59 2525.65Z" />
		</clipPath>
		<linearGradient id="grd2" gradientUnits="userSpaceOnUse"  x1="329.497" y1="2775.3" x2="504.837" y2="1273.749">
			<stop offset="0" stop-color="#aa80f9"  />
			<stop offset="0.996" stop-color="#6165d7"  />
		</linearGradient>
		<clipPath clipPathUnits="userSpaceOnUse" id="cp2">
			<path d="M1539.79 3150.62C1566.07 3151.39 1623.93 3129.89 1636.7 3118.07C1721.7 3039.38 1890.4 2902.41 1902.49 2780.56C1904.56 2759.76 1815.47 2725.96 1805.57 2704.98C1754 2669.65 1733.91 2660.59 1701.39 2602.92C1605.37 2432.64 1924.36 2192.35 1621.62 2041.89C1399.87 1931.68 1189.96 1980.72 1272.71 1622.41C1355.45 1264.1 1173.18 558.2 750.41 750.06C507.78 860.18 681.65 1203.73 532.52 1413C390.82 1611.87 454.08 1804.22 662.87 1970.31C871.66 2136.41 733.27 2216.54 633.95 2411.15C514.64 2644.92 886.9 2748.93 1062.86 2782.28C1204.55 2809.14 1547.24 2973.13 1539.79 3150.62Z" />
		</clipPath>
		<linearGradient id="grd3" gradientUnits="userSpaceOnUse"  x1="581.072" y1="2848.07" x2="3224.295" y2="2848.07">
			<stop offset="0.494" stop-color="#ebeff2"  />
			<stop offset="1" stop-color="#ffffff"  />
		</linearGradient>
		<linearGradient id="grd4" gradientUnits="userSpaceOnUse"  x1="3132.028" y1="1253.097" x2="1478.815" y2="4559.516">
			<stop offset="0.004" stop-color="#e38ddd"  />
			<stop offset="1" stop-color="#9571f6"  />
		</linearGradient>
		<linearGradient id="grd5" gradientUnits="userSpaceOnUse"  x1="2044.845" y1="-383.768" x2="2328.501" y2="750.861">
			<stop offset="0.004" stop-color="#e38ddd"  />
			<stop offset="1" stop-color="#9571f6"  />
		</linearGradient>
		<linearGradient id="grd6" gradientUnits="userSpaceOnUse"  x1="1935.895" y1="1706.61" x2="1471.907" y2="2682.822">
			<stop offset="0" stop-color="#444b8c"  />
			<stop offset="0.996" stop-color="#26264f"  />
		</linearGradient>
		<linearGradient id="grd7" gradientUnits="userSpaceOnUse"  x1="1060.031" y1="2908.642" x2="1907.403" y2="2908.642">
			<stop offset="0" stop-color="#ffc444"  />
			<stop offset="0.996" stop-color="#f36f56"  />
		</linearGradient>
		<linearGradient id="grd8" gradientUnits="userSpaceOnUse"  x1="1935.879" y1="2960.533" x2="1792.814" y2="3354.865">
			<stop offset="0" stop-color="#ffc444"  />
			<stop offset="0.592" stop-color="#f8924f"  />
			<stop offset="0.996" stop-color="#f36f56"  />
		</linearGradient>
		<linearGradient id="grd9" gradientUnits="userSpaceOnUse"  x1="1924.189" y1="2953.656" x2="1772.807" y2="3370.913">
			<stop offset="0" stop-color="#ffc444"  />
			<stop offset="0.592" stop-color="#f8924f"  />
			<stop offset="0.996" stop-color="#f36f56"  />
		</linearGradient>
		<linearGradient id="grd10" gradientUnits="userSpaceOnUse"  x1="1735.527" y1="2195.774" x2="1704.706" y2="3199.402">
			<stop offset="0" stop-color="#ffc444"  />
			<stop offset="0.996" stop-color="#f36f56"  />
		</linearGradient>
		<linearGradient id="grd11" gradientUnits="userSpaceOnUse"  x1="1216.889" y1="2370.531" x2="1539.351" y2="2370.531">
			<stop offset="0" stop-color="#ffc444"  />
			<stop offset="0.996" stop-color="#f36f56"  />
		</linearGradient>
		<linearGradient id="grd12" gradientUnits="userSpaceOnUse"  x1="2882.29" y1="1936.598" x2="2875.468" y2="2077.302">
			<stop offset="0" stop-color="#ffc444"  />
			<stop offset="0.996" stop-color="#f36f56"  />
		</linearGradient>
		<linearGradient id="grd13" gradientUnits="userSpaceOnUse"  x1="2427.048" y1="3181.906" x2="2475.568" y2="3181.906">
			<stop offset="0" stop-color="#ffc444"  />
			<stop offset="0.996" stop-color="#f36f56"  />
		</linearGradient>
		<linearGradient id="grd14" gradientUnits="userSpaceOnUse"  x1="2374.557" y1="3191.102" x2="2454.494" y2="3191.102">
			<stop offset="0" stop-color="#444b8c"  />
			<stop offset="0.996" stop-color="#26264f"  />
		</linearGradient>
		<linearGradient id="grd15" gradientUnits="userSpaceOnUse"  x1="2467.844" y1="3215.587" x2="2459.285" y2="3235.372">
			<stop offset="0" stop-color="#444b8c"  />
			<stop offset="0.996" stop-color="#26264f"  />
		</linearGradient>
		<linearGradient id="grd16" gradientUnits="userSpaceOnUse"  x1="2696.728" y1="873.548" x2="1885.051" y2="2298.093">
			<stop offset="0" stop-color="#311944"  />
			<stop offset="1" stop-color="#893976"  />
		</linearGradient>
		<linearGradient id="grd17" gradientUnits="userSpaceOnUse"  x1="2718.846" y1="886.444" x2="1919.819" y2="2288.79">
			<stop offset="0" stop-color="#ff9085"  />
			<stop offset="1" stop-color="#fb6fbb"  />
		</linearGradient>
		<linearGradient id="grd18" gradientUnits="userSpaceOnUse"  x1="2760.084" y1="2783.302" x2="2496.371" y2="3240.922">
			<stop offset="0" stop-color="#311944"  />
			<stop offset="1" stop-color="#893976"  />
		</linearGradient>
		<linearGradient id="grd19" gradientUnits="userSpaceOnUse"  x1="2760.084" y1="2783.303" x2="2496.371" y2="3240.922">
			<stop offset="0" stop-color="#311944"  />
			<stop offset="1" stop-color="#893976"  />
		</linearGradient>
		<linearGradient id="grd20" gradientUnits="userSpaceOnUse"  x1="3137.374" y1="3068.317" x2="3172.198" y2="3068.317">
			<stop offset="0" stop-color="#444b8c"  />
			<stop offset="0.996" stop-color="#26264f"  />
		</linearGradient>
		<linearGradient id="grd21" gradientUnits="userSpaceOnUse"  x1="3303.533" y1="2765.131" x2="3127.682" y2="3159.966">
			<stop offset="0" stop-color="#311944"  />
			<stop offset="1" stop-color="#893976"  />
		</linearGradient>
		<linearGradient id="grd22" gradientUnits="userSpaceOnUse"  x1="2391.932" y1="1913.132" x2="2385.284" y2="2050.252">
			<stop offset="0" stop-color="#ffc444"  />
			<stop offset="0.996" stop-color="#f36f56"  />
		</linearGradient>
		<linearGradient id="grd23" gradientUnits="userSpaceOnUse"  x1="2530.889" y1="2104.677" x2="2719.255" y2="2632.102">
			<stop offset="0" stop-color="#aa80f9"  />
			<stop offset="0.996" stop-color="#6165d7"  />
		</linearGradient>
		<linearGradient id="grd24" gradientUnits="userSpaceOnUse"  x1="2822.056" y1="2003.164" x2="3007.244" y2="2521.692">
			<stop offset="0" stop-color="#aa80f9"  />
			<stop offset="0.996" stop-color="#6165d7"  />
		</linearGradient>
		<linearGradient id="grd25" gradientUnits="userSpaceOnUse"  x1="2990.477" y1="1939.227" x2="3178.843" y2="2466.653">
			<stop offset="0" stop-color="#aa80f9"  />
			<stop offset="0.996" stop-color="#6165d7"  />
		</linearGradient>
		<linearGradient id="grd26" gradientUnits="userSpaceOnUse"  x1="2763.258" y1="2244.692" x2="2720.561" y2="2090.917">
			<stop offset="0" stop-color="#ffc444"  />
			<stop offset="0.996" stop-color="#f36f56"  />
		</linearGradient>
		<linearGradient id="grd27" gradientUnits="userSpaceOnUse"  x1="2657.939" y1="2209.13" x2="2654.94" y2="2116.425">
			<stop offset="0" stop-color="#311944"  />
			<stop offset="1" stop-color="#6b3976"  />
		</linearGradient>
		<linearGradient id="grd28" gradientUnits="userSpaceOnUse"  x1="2657.251" y1="2128.138" x2="2613.992" y2="2232.891">
			<stop offset="0" stop-color="#ffc444"  />
			<stop offset="0.996" stop-color="#f36f56"  />
		</linearGradient>
		<linearGradient id="grd29" gradientUnits="userSpaceOnUse"  x1="2614.808" y1="1691.537" x2="2898.609" y2="2486.181">
			<stop offset="0" stop-color="#aa80f9"  />
			<stop offset="0.996" stop-color="#6165d7"  />
		</linearGradient>
		<linearGradient id="grd30" gradientUnits="userSpaceOnUse"  x1="2250.704" y1="498.314" x2="1638.65" y2="1572.509">
			<stop offset="0" stop-color="#311944"  />
			<stop offset="1" stop-color="#893976"  />
		</linearGradient>
		<linearGradient id="grd31" gradientUnits="userSpaceOnUse"  x1="2267.383" y1="508.039" x2="1664.867" y2="1565.494">
			<stop offset="0" stop-color="#ff9085"  />
			<stop offset="1" stop-color="#fb6fbb"  />
		</linearGradient>
	</defs>
	<style>
		tspan { white-space:pre }
		.shp0 { fill: #f4f7fa } 
		.shp1 { fill: url(#grd1) } 
		.shp2 { fill: #ffffff } 
		.shp3 { fill: url(#grd2) } 
		.shp4 { fill: #fcfdfe } 
		.shp5 { fill: #bfc8d6 } 
		.shp6 { fill: #d8dee8 } 
		.shp7 { mix-blend-mode: soft-light;fill: #ffffff } 
		.shp8 { opacity: 0.478;mix-blend-mode: soft-light;fill: #ffffff } 
		.shp9 { fill: url(#grd3) } 
		.shp10 { fill: url(#grd4) } 
		.shp11 { opacity: 0.741;mix-blend-mode: soft-light;fill: #ffffff } 
		.shp12 { fill: url(#grd5) } 
		.shp13 { opacity: 0.502;fill: #ffffff } 
		.shp14 { fill: url(#grd6) } 
		.shp15 { fill: url(#grd7) } 
		.shp16 { opacity: 0.302;mix-blend-mode: multiply;fill: url(#grd8) } 
		.shp17 { fill: url(#grd9) } 
		.shp18 { fill: url(#grd10) } 
		.shp19 { opacity: 0.2;mix-blend-mode: multiply;fill: url(#grd11) } 
		.shp20 { fill: url(#grd12) } 
		.shp21 { fill: url(#grd13) } 
		.shp22 { fill: url(#grd14) } 
		.shp23 { fill: url(#grd15) } 
		.shp24 { fill: url(#grd16) } 
		.shp25 { fill: url(#grd17) } 
		.shp26 { fill: url(#grd18) } 
		.shp27 { opacity: 0.302;mix-blend-mode: multiply;fill: url(#grd19) } 
		.shp28 { fill: url(#grd20) } 
		.shp29 { fill: url(#grd21) } 
		.shp30 { fill: url(#grd22) } 
		.shp31 { fill: url(#grd23) } 
		.shp32 { fill: url(#grd24) } 
		.shp33 { fill: url(#grd25) } 
		.shp34 { fill: url(#grd26) } 
		.shp35 { fill: url(#grd27) } 
		.shp36 { fill: url(#grd28) } 
		.shp37 { opacity: 0.302;mix-blend-mode: multiply;fill: url(#grd29) } 
		.shp38 { fill: url(#grd30) } 
		.shp39 { fill: url(#grd31) } 
	</style>
	<g id="Illustration">
		<g id="&lt;Group&gt;">
			<path id="&lt;Path&gt;" class="shp0" d="M1885.22 455.64C1155.38 434.08 523.19 963.65 427.68 1658.51C323.25 2418.24 898.02 3101.82 1605.25 3211.31C2484.93 3347.49 3338.16 2559.66 3261.55 1704.99C3203.83 1061.07 2627.12 477.54 1885.22 455.64Z" />
			<g id="&lt;Group&gt;">
				<path id="&lt;Path&gt;" class="shp1" d="M1704.59 2525.65C1807.11 2453.26 1825.44 2263.62 1800.34 2136.36C1771.03 1987.77 1694.28 1983.83 1680.48 1866.5C1654.79 1648.05 1910.3 1572.11 1901.86 1349.75C1894.96 1167.98 1721.58 1149.76 1723.1 948.11C1724.2 802.6 1815 742.15 1774.22 615.19C1770.73 604.33 1731.45 487.82 1631.94 460.59C1531.5 433.1 1428.45 512.65 1377.49 576.72C1283.29 695.16 1353.02 778.4 1292.87 959.78C1210.98 1206.72 1033.25 1198.6 1010.54 1392.89C991.78 1553.33 1108.64 1595.88 1084.31 1773.36C1061.72 1938.16 952.74 1961.37 948.16 2073.7C937.63 2332.12 1495.49 2673.3 1704.59 2525.65Z" />
				<g id="&lt;Clip Group&gt;" clip-path="url(#cp1)">
					<g id="&lt;Group&gt;">
						<g id="&lt;Group&gt;" style="opacity: 0.702;mix-blend-mode: soft-light">
							<path id="&lt;Path&gt;" class="shp2" d="M1556.76 2647.04C1556.15 2647.04 1555.54 2646.88 1554.98 2646.55C1458.75 2590.03 1378.56 2515.85 1316.65 2426.08C1257.93 2340.93 1197.21 2252.89 1202.11 2142.78C1205.84 2059 1244.82 2014.24 1294.17 1957.58C1341.23 1903.55 1399.79 1836.32 1440.76 1711.79C1464.15 1640.71 1493.25 1552.25 1470.81 1446.35C1457.79 1384.88 1433.74 1350.1 1412.52 1319.41C1390.29 1287.28 1371.1 1259.52 1374.77 1211.9C1380.64 1135.62 1421.38 1086.91 1468.55 1030.5C1497.16 996.29 1526.74 960.92 1552.68 914.98C1625.6 785.83 1627.54 611.97 1558.43 398.21C1557.83 396.36 1558.85 394.37 1560.7 393.77C1562.55 393.17 1564.54 394.19 1565.14 396.04C1634.87 611.75 1632.75 787.51 1558.82 918.44C1532.56 964.95 1502.77 1000.57 1473.96 1035.02C1427.56 1090.5 1387.5 1138.41 1381.8 1212.44C1378.32 1257.57 1395.97 1283.09 1418.31 1315.4C1439.91 1346.64 1464.39 1382.04 1477.71 1444.89C1500.54 1552.65 1471.11 1642.11 1447.45 1713.99C1406.04 1839.87 1346.96 1907.71 1299.49 1962.21C1251.04 2017.83 1212.77 2061.77 1209.15 2143.09C1204.36 2250.84 1264.39 2337.88 1322.45 2422.07C1383.78 2511 1463.21 2584.48 1558.54 2640.47C1560.22 2641.46 1560.79 2643.62 1559.8 2645.3C1559.14 2646.41 1557.96 2647.04 1556.76 2647.04Z" />
						</g>
						<g id="&lt;Group&gt;" style="opacity: 0.702;mix-blend-mode: soft-light">
							<path id="&lt;Path&gt;" class="shp2" d="M1481.44 1500.22C1480.48 1500.22 1479.51 1499.83 1478.81 1499.05C1477.52 1497.59 1477.64 1495.37 1479.09 1494.07C1642.16 1348.37 1718.77 1213.19 1754.33 1125.45C1792.84 1030.42 1792.82 969.04 1792.82 968.43C1792.8 966.49 1794.37 964.9 1796.31 964.88C1796.32 964.88 1796.33 964.88 1796.34 964.88C1798.27 964.88 1799.85 966.44 1799.87 968.37C1799.89 970.9 1799.96 1031.43 1761.05 1127.64C1725.24 1216.18 1648.07 1352.54 1483.79 1499.33C1483.12 1499.93 1482.28 1500.22 1481.44 1500.22Z" />
						</g>
						<g id="&lt;Group&gt;" style="opacity: 0.702;mix-blend-mode: soft-light">
							<path id="&lt;Path&gt;" class="shp2" d="M1403 1815.26C1402.22 1815.26 1401.43 1815 1400.77 1814.46C1309.75 1740.09 1240.54 1655.74 1195.07 1563.74C1158.67 1490.09 1137.32 1411.42 1131.62 1329.92C1121.9 1191.13 1161.59 1090.77 1161.99 1089.77C1162.72 1087.96 1164.77 1087.09 1166.58 1087.82C1168.38 1088.54 1169.26 1090.6 1168.53 1092.4C1168.13 1093.39 1128.99 1192.51 1138.67 1329.76C1147.6 1456.33 1201.09 1642.21 1405.23 1809C1406.74 1810.23 1406.96 1812.45 1405.73 1813.96C1405.04 1814.81 1404.02 1815.26 1403 1815.26Z" />
						</g>
						<g id="&lt;Group&gt;" style="opacity: 0.702;mix-blend-mode: soft-light">
							<path id="&lt;Path&gt;" class="shp2" d="M1254.03 2335.75C1252.51 2335.75 1251.1 2334.75 1250.65 2333.21C1250.1 2331.35 1251.17 2329.39 1253.04 2328.84C1493.48 2258.3 1618.86 2130.13 1681.7 2035.02C1749.69 1932.13 1761.08 1845.01 1761.18 1844.14C1761.42 1842.21 1763.2 1840.83 1765.11 1841.07C1767.05 1841.31 1768.42 1843.07 1768.18 1845C1768.07 1845.88 1756.48 1934.66 1687.59 2038.91C1624.09 2134.99 1497.51 2264.46 1255.03 2335.6C1254.69 2335.7 1254.36 2335.75 1254.03 2335.75Z" />
						</g>
						<g id="&lt;Group&gt;" style="opacity: 0.702;mix-blend-mode: soft-light">
							<path id="&lt;Path&gt;" class="shp2" d="M1563.8 895.77C1562.84 895.77 1561.9 895.38 1561.2 894.63C1423.68 745.51 1406.94 589.91 1417.1 485.64C1428.12 372.7 1472.3 293.88 1472.74 293.1C1473.71 291.41 1475.86 290.82 1477.55 291.78C1479.24 292.74 1479.84 294.89 1478.87 296.58C1478.44 297.36 1434.91 375.09 1424.09 486.62C1414.13 589.38 1430.73 742.75 1566.39 889.85C1567.7 891.28 1567.62 893.51 1566.18 894.83C1565.51 895.46 1564.65 895.77 1563.8 895.77Z" />
						</g>
					</g>
				</g>
			</g>
			<g id="&lt;Group&gt;">
				<g id="&lt;Group&gt;">
					<path id="&lt;Path&gt;" class="shp3" d="M1539.79 3150.62C1566.07 3151.39 1623.93 3129.89 1636.7 3118.07C1721.7 3039.38 1890.4 2902.41 1902.49 2780.56C1904.56 2759.76 1815.47 2725.96 1805.57 2704.98C1754 2669.65 1733.91 2660.59 1701.39 2602.92C1605.37 2432.64 1924.36 2192.35 1621.62 2041.89C1399.87 1931.68 1189.96 1980.72 1272.71 1622.41C1355.45 1264.1 1173.18 558.2 750.41 750.06C507.78 860.18 681.65 1203.73 532.52 1413C390.82 1611.87 454.08 1804.22 662.87 1970.31C871.66 2136.41 733.27 2216.54 633.95 2411.15C514.64 2644.92 886.9 2748.93 1062.86 2782.28C1204.55 2809.14 1547.24 2973.13 1539.79 3150.62Z" />
					<g id="&lt;Clip Group&gt;" clip-path="url(#cp2)">
						<g id="&lt;Group&gt;" style="opacity: 0.702;mix-blend-mode: soft-light">
							<g id="&lt;Group&gt;">
								<path id="&lt;Path&gt;" class="shp4" d="M1764.72 2959.2L1767.93 2954.63C1062.58 2460.36 726.92 1601.16 870.03 656.29L864.5 655.45C796.68 1103.25 838.49 1548.75 985.42 1943.77C1139.89 2359.07 1409.37 2710.2 1764.72 2959.2Z" />
								<path id="&lt;Path&gt;" class="shp4" d="M573.21 2502.63C805.81 2465.27 1175.86 2522.11 1398.13 2629.34L1400.55 2624.3C1177.42 2516.65 805.88 2459.59 572.33 2497.1L573.21 2502.63Z" />
								<path id="&lt;Path&gt;" class="shp4" d="M1627.37 2860.59L1631.72 2857.08C1551.19 2757.24 1524.22 2620.51 1551.58 2450.71C1571.63 2326.21 1619.89 2187.15 1695 2037.39L1690 2034.88C1614.63 2185.15 1566.2 2324.76 1546.06 2449.82C1518.44 2621.26 1545.8 2759.46 1627.37 2860.59Z" />
								<path id="&lt;Path&gt;" class="shp4" d="M966.75 1886.89L971.27 1883.61C829.15 1687.6 589.02 1603.02 412.59 1566.57L411.46 1572.05C586.92 1608.29 825.68 1692.34 966.75 1886.89Z" />
								<path id="&lt;Path&gt;" class="shp4" d="M846.11 1345.96L851.68 1346.43C874.94 1074.68 1067.19 862.52 1179.71 760.25L1175.95 756.11C1062.82 858.94 869.53 1072.3 846.11 1345.96Z" />
							</g>
						</g>
					</g>
				</g>
			</g>
			<g id="&lt;Group&gt;">
				<g id="&lt;Group&gt;">
					<path id="&lt;Path&gt;" class="shp5" d="M3224.29 2965.62L581.07 2942.77L581.07 3010.38C581.07 3028.72 592.6 3044.33 608.21 3047.11L1355.64 3180.23C1364.51 3181.81 1373.5 3182.23 1382.46 3181.48L3195.57 3029.7C3211.76 3028.34 3224.29 3012.69 3224.29 2993.84L3224.29 2965.62Z" />
					<g id="&lt;Group&gt;">
						<path id="&lt;Path&gt;" class="shp5" d="M2251.58 2857.29L571.6 2980.96C541.54 2983.17 517.1 2959.65 517.1 2928.43L517.1 1677.4C517.1 1646.17 541.54 1620.86 571.6 1620.86L631.04 1655.11L2251.58 1620.86C2276.35 1620.86 2296.38 1643.74 2296.38 1671.97L2296.38 2802.88C2296.38 2831.11 2276.35 2855.46 2251.58 2857.29Z" />
						<path id="&lt;Path&gt;" class="shp2" d="M2278.37 2857.29L598.39 2980.96C568.33 2983.17 543.89 2959.65 543.89 2928.43L543.89 1677.4C543.89 1646.17 568.33 1620.86 598.39 1620.86L2278.37 1620.86C2303.14 1620.86 2323.16 1643.74 2323.16 1671.97L2323.16 2802.88C2323.16 2831.11 2303.14 2855.46 2278.37 2857.29Z" />
						<path id="&lt;Path&gt;" class="shp6" d="M2226.04 2777.56L661.31 2884.98C636.85 2886.66 616.96 2867.36 616.96 2841.87L616.96 1746.58C616.96 1721.09 636.85 1700.34 661.31 1700.24L2226.04 1693.49C2246.47 1693.4 2262.99 1712.15 2262.99 1735.37L2262.99 2732.98C2262.99 2756.2 2246.47 2776.15 2226.04 2777.56Z" />
						<g id="&lt;Group&gt;" style="mix-blend-mode: soft-light">
							<path id="&lt;Path&gt;" class="shp7" d="M1216.26 1803.03L793.98 1804.13L793.92 1763.87L1216.2 1764L1216.26 1803.03Z" />
							<path id="&lt;Path&gt;" class="shp7" d="M1415.11 1791.37L1317.56 1791.54L1317.52 1764.04L1415.07 1764.07L1415.11 1791.37Z" />
							<path id="&lt;Path&gt;" class="shp7" d="M1415.17 1829.31L1317.62 1829.76L1317.58 1802.25L1415.13 1802L1415.17 1829.31Z" />
							<path id="&lt;Path&gt;" class="shp2" d="M1901.31 1827.05L1522.86 1828.81L1522.81 1801.73L1901.27 1800.76L1901.31 1827.05Z" />
							<path id="&lt;Path&gt;" class="shp2" d="M1963.42 1863.11L1588.74 1865.94L1588.69 1838.99L1963.38 1836.95L1963.42 1863.11Z" />
							<path id="&lt;Path&gt;" class="shp2" d="M1963.48 1899.46L1588.79 1903.37L1588.75 1876.43L1963.44 1873.3L1963.48 1899.46Z" />
							<path id="&lt;Path&gt;" class="shp7" d="M1963.54 1935.81L1588.85 1940.81L1588.81 1913.86L1963.5 1909.65L1963.54 1935.81Z" />
							<path id="&lt;Path&gt;" class="shp7" d="M1415.23 1867.24L1317.68 1867.98L1317.64 1840.47L1415.19 1839.94L1415.23 1867.24Z" />
							<path id="&lt;Path&gt;" class="shp7" d="M1415.29 1905.18L1317.74 1906.2L1317.7 1878.69L1415.25 1877.88L1415.29 1905.18Z" />
							<path id="&lt;Path&gt;" class="shp7" d="M1415.35 1943.12L1317.8 1944.42L1317.76 1916.91L1415.31 1915.81L1415.35 1943.12Z" />
							<path id="&lt;Path&gt;" class="shp7" d="M1415.41 1981.05L1317.86 1982.63L1317.82 1955.13L1415.36 1953.75L1415.41 1981.05Z" />
							<path id="&lt;Path&gt;" class="shp7" d="M1676.81 1976.82L1436.69 1980.71L1436.65 1953.45L1676.76 1950.06L1676.81 1976.82Z" />
							<path id="&lt;Path&gt;" class="shp7" d="M1415.47 2018.99L1317.92 2020.85L1317.87 1993.35L1415.42 1991.69L1415.47 2018.99Z" />
							<path id="&lt;Path&gt;" class="shp7" d="M1415.52 2056.93L1317.98 2059.07L1317.93 2031.56L1415.48 2029.62L1415.52 2056.93Z" />
							<path id="&lt;Path&gt;" class="shp7" d="M1415.58 2094.86L1318.04 2097.29L1317.99 2069.78L1415.54 2067.56L1415.58 2094.86Z" />
							<path id="&lt;Path&gt;" class="shp2" d="M1789.36 2011.85L1523.15 2016.93L1523.1 1989.85L1789.32 1985.32L1789.36 2011.85Z" />
							<path id="&lt;Path&gt;" class="shp7" d="M1927.72 2045.66L1589.02 2053.11L1588.98 2026.17L1927.68 2019.42L1927.72 2045.66Z" />
							<path id="&lt;Path&gt;" class="shp7" d="M1927.78 2082.12L1589.08 2090.55L1589.04 2063.6L1927.74 2055.88L1927.78 2082.12Z" />
							<path id="&lt;Path&gt;" class="shp7" d="M1415.64 2132.8L1318.09 2135.51L1318.05 2108L1415.6 2105.49L1415.64 2132.8Z" />
							<path id="&lt;Path&gt;" class="shp7" d="M1415.7 2170.74L1318.15 2173.73L1318.11 2146.22L1415.66 2143.43L1415.7 2170.74Z" />
							<path id="&lt;Path&gt;" class="shp7" d="M1415.76 2208.67L1318.21 2211.95L1318.17 2184.44L1415.72 2181.37L1415.76 2208.67Z" />
							<path id="&lt;Path&gt;" class="shp7" d="M1415.82 2246.61L1318.27 2250.16L1318.23 2222.66L1415.78 2219.3L1415.82 2246.61Z" />
							<path id="&lt;Path&gt;" class="shp7" d="M1415.88 2284.55L1318.33 2288.38L1318.29 2260.88L1415.83 2257.24L1415.88 2284.55Z" />
							<path id="&lt;Path&gt;" class="shp7" d="M1415.93 2322.48L1318.39 2326.6L1318.35 2299.09L1415.89 2295.18L1415.93 2322.48Z" />
							<path id="&lt;Path&gt;" class="shp7" d="M1415.99 2360.42L1318.45 2364.82L1318.41 2337.31L1415.95 2333.11L1415.99 2360.42Z" />
							<path id="&lt;Path&gt;" class="shp7" d="M1416.05 2398.35L1318.51 2403.04L1318.47 2375.53L1416.01 2371.05L1416.05 2398.35Z" />
							<path id="&lt;Path&gt;" class="shp7" d="M1416.11 2436.29L1318.57 2441.26L1318.52 2413.75L1416.07 2408.99L1416.11 2436.29Z" />
							<path id="&lt;Path&gt;" class="shp7" d="M1416.17 2474.23L1318.63 2479.48L1318.58 2451.97L1416.13 2446.92L1416.17 2474.23Z" />
							<path id="&lt;Path&gt;" class="shp7" d="M1416.23 2512.16L1318.68 2517.69L1318.64 2490.19L1416.19 2484.86L1416.23 2512.16Z" />
							<path id="&lt;Path&gt;" class="shp7" d="M1416.29 2550.1L1318.74 2555.91L1318.7 2528.4L1416.24 2522.8L1416.29 2550.1Z" />
							<path id="&lt;Path&gt;" class="shp7" d="M1416.35 2588.04L1318.8 2594.13L1318.76 2566.62L1416.3 2560.73L1416.35 2588.04Z" />
							<path id="&lt;Path&gt;" class="shp7" d="M1416.4 2625.97L1318.86 2632.35L1318.82 2604.84L1416.36 2598.67L1416.4 2625.97Z" />
							<path id="&lt;Path&gt;" class="shp7" d="M1416.46 2663.91L1318.92 2670.57L1318.88 2643.06L1416.42 2636.61L1416.46 2663.91Z" />
							<path id="&lt;Path&gt;" class="shp7" d="M1416.52 2701.85L1318.98 2708.79L1318.94 2681.28L1416.48 2674.54L1416.52 2701.85Z" />
							<path id="&lt;Path&gt;" class="shp7" d="M1416.58 2739.78L1319.04 2747L1319 2719.5L1416.54 2712.48L1416.58 2739.78Z" />
							<path id="&lt;Path&gt;" class="shp7" d="M1416.64 2777.72L1319.1 2785.22L1319.06 2757.72L1416.6 2750.41L1416.64 2777.72Z" />
							<path id="&lt;Path&gt;" class="shp2" d="M1701.79 1790.87L1435.74 1791.33L1435.7 1764.07L1701.74 1764.16L1701.79 1790.87Z" />
							<path id="&lt;Path&gt;" class="shp7" d="M1902.44 2557.67L1524.02 2581.31L1523.98 2554.23L1902.4 2531.38L1902.44 2557.67Z" />
							<path id="&lt;Path&gt;" class="shp2" d="M1964.55 2590.14L1589.89 2614.63L1589.85 2587.69L1964.51 2563.98L1964.55 2590.14Z" />
							<path id="&lt;Path&gt;" class="shp2" d="M1964.6 2626.49L1589.95 2652.07L1589.91 2625.12L1964.56 2600.33L1964.6 2626.49Z" />
							<path id="&lt;Path&gt;" class="shp2" d="M2126.11 2651.36L1761.16 2677.32L1761.12 2650.74L2126.07 2625.53L2126.11 2651.36Z" />
							<path id="&lt;Path&gt;" class="shp7" d="M2126.16 2687.24L1761.21 2714.26L1761.17 2687.68L2126.12 2661.42L2126.16 2687.24Z" />
							<path id="&lt;Path&gt;" class="shp7" d="M2126.22 2723.13L1761.27 2751.2L1761.23 2724.62L2126.18 2697.3L2126.22 2723.13Z" />
							<path id="&lt;Path&gt;" class="shp2" d="M1702.93 2533.02L1436.91 2548.87L1436.87 2521.61L1702.89 2506.31L1702.93 2533.02Z" />
							<path id="&lt;Path&gt;" class="shp2" d="M1901.82 2155.83L1523.38 2167.43L1523.34 2140.35L1901.78 2129.53L1901.82 2155.83Z" />
							<path id="&lt;Path&gt;" class="shp7" d="M1963.93 2190.28L1589.26 2202.85L1589.21 2175.91L1963.89 2164.11L1963.93 2190.28Z" />
							<path id="&lt;Path&gt;" class="shp2" d="M1963.99 2226.63L1589.31 2240.28L1589.27 2213.34L1963.95 2200.46L1963.99 2226.63Z" />
							<path id="&lt;Path&gt;" class="shp2" d="M1964.04 2262.98L1589.37 2277.72L1589.33 2250.78L1964 2236.81L1964.04 2262.98Z" />
							<path id="&lt;Path&gt;" class="shp2" d="M1677.32 2311.44L1437.22 2321.58L1437.18 2294.32L1677.28 2284.68L1677.32 2311.44Z" />
							<path id="&lt;Path&gt;" class="shp7" d="M1789.87 2343.55L1523.67 2355.56L1523.63 2328.48L1789.83 2317.02L1789.87 2343.55Z" />
							<path id="&lt;Path&gt;" class="shp7" d="M1928.23 2373.76L1589.55 2390.02L1589.5 2363.08L1928.19 2347.52L1928.23 2373.76Z" />
							<path id="&lt;Path&gt;" class="shp2" d="M1928.28 2410.22L1589.6 2427.46L1589.56 2400.52L1928.24 2383.98L1928.28 2410.22Z" />
							<path id="&lt;Path&gt;" class="shp2" d="M2003.42 2442.63L1668.82 2460.63L1668.78 2433.86L2003.38 2416.55L2003.42 2442.63Z" />
							<path id="&lt;Path&gt;" class="shp2" d="M2003.48 2478.87L1668.87 2497.84L1668.83 2471.06L2003.44 2452.79L2003.48 2478.87Z" />
							<path id="&lt;Path&gt;" class="shp2" d="M1702.3 2124.84L1436.27 2132.23L1436.22 2104.97L1702.26 2098.13L1702.3 2124.84Z" />
							<path id="&lt;Path&gt;" class="shp7" d="M1216.36 1864L974.65 1865.74L974.59 1826.01L1216.3 1824.98L1216.36 1864Z" />
							<path id="&lt;Path&gt;" class="shp7" d="M912.14 1866.19L957.66 1865.86L957.6 1826.08L912.08 1826.27L912.14 1866.19Z" />
							<path id="&lt;Path&gt;" class="shp7" d="M1216.44 1920.1L974.74 1922.86L974.68 1883.12L1216.38 1881.08L1216.44 1920.1Z" />
							<path id="&lt;Path&gt;" class="shp7" d="M912.23 1923.57L957.75 1923.05L957.69 1883.27L912.16 1883.65L912.23 1923.57Z" />
							<path id="&lt;Path&gt;" class="shp7" d="M1216.53 1976.2L974.83 1979.97L974.77 1940.24L1216.47 1937.18L1216.53 1976.2Z" />
							<path id="&lt;Path&gt;" class="shp7" d="M912.32 1980.95L957.84 1980.24L957.78 1940.45L912.25 1941.03L912.32 1980.95Z" />
							<path id="&lt;Path&gt;" class="shp7" d="M1217.15 2374.4L794.89 2393.61L794.83 2353.35L1217.09 2335.37L1217.15 2374.4Z" />
							<path id="&lt;Path&gt;" class="shp7" d="M1217.24 2435.38L975.55 2447.48L975.49 2407.75L1217.18 2396.35L1217.24 2435.38Z" />
							<path id="&lt;Path&gt;" class="shp7" d="M913.04 2450.61L958.56 2448.33L958.5 2408.55L912.98 2410.69L913.04 2450.61Z" />
							<path id="&lt;Path&gt;" class="shp7" d="M1217.33 2491.47L975.64 2504.6L975.58 2464.86L1217.27 2452.45L1217.33 2491.47Z" />
							<path id="&lt;Path&gt;" class="shp7" d="M913.13 2507.99L958.65 2505.52L958.59 2465.74L913.07 2468.07L913.13 2507.99Z" />
							<path id="&lt;Path&gt;" class="shp7" d="M1217.41 2547.57L975.73 2561.71L975.67 2521.98L1217.35 2508.55L1217.41 2547.57Z" />
							<path id="&lt;Path&gt;" class="shp7" d="M913.22 2565.37L958.74 2562.71L958.68 2522.92L913.16 2525.45L913.22 2565.37Z" />
							<path id="&lt;Path&gt;" class="shp7" d="M1216.62 2032.68L794.35 2041.06L794.29 2000.8L1216.56 1993.65L1216.62 2032.68Z" />
							<path id="&lt;Path&gt;" class="shp7" d="M1216.71 2093.65L975.02 2099.56L974.95 2059.83L1216.65 2054.63L1216.71 2093.65Z" />
							<path id="&lt;Path&gt;" class="shp7" d="M912.5 2101.09L958.02 2099.97L957.96 2060.19L912.44 2061.17L912.5 2101.09Z" />
							<path id="&lt;Path&gt;" class="shp7" d="M1216.8 2149.75L975.1 2156.67L975.04 2116.94L1216.74 2110.73L1216.8 2149.75Z" />
							<path id="&lt;Path&gt;" class="shp7" d="M912.59 2158.46L958.11 2157.16L958.05 2117.38L912.53 2118.55L912.59 2158.46Z" />
							<path id="&lt;Path&gt;" class="shp7" d="M1216.97 2262.68L975.28 2271.65L975.22 2231.92L1216.91 2223.65L1216.97 2262.68Z" />
							<path id="&lt;Path&gt;" class="shp7" d="M912.77 2273.97L958.29 2272.28L958.23 2232.5L912.71 2234.05L912.77 2273.97Z" />
							<path id="&lt;Path&gt;" class="shp7" d="M1217.06 2318.78L975.37 2328.76L975.31 2289.03L1217 2279.75L1217.06 2318.78Z" />
							<path id="&lt;Path&gt;" class="shp7" d="M912.86 2331.35L958.38 2329.47L958.32 2289.68L912.8 2291.43L912.86 2331.35Z" />
							<path id="&lt;Path&gt;" class="shp7" d="M1216.89 2205.85L975.19 2213.79L975.13 2174.06L1216.83 2166.83L1216.89 2205.85Z" />
							<path id="&lt;Path&gt;" class="shp7" d="M912.68 2215.84L958.2 2214.35L958.14 2174.57L912.62 2175.93L912.68 2215.84Z" />
							<path id="&lt;Path&gt;" class="shp7" d="M1217.5 2603.65L795.26 2630.13L795.2 2589.87L1217.44 2564.63L1217.5 2603.65Z" />
							<path id="&lt;Path&gt;" class="shp7" d="M1217.6 2664.63L975.91 2680.89L975.85 2641.16L1217.54 2625.6L1217.6 2664.63Z" />
							<path id="&lt;Path&gt;" class="shp7" d="M913.4 2685.1L958.92 2682.04L958.86 2642.25L913.34 2645.18L913.4 2685.1Z" />
							<path id="&lt;Path&gt;" class="shp7" d="M1217.68 2720.73L976 2738.01L975.94 2698.28L1217.62 2681.7L1217.68 2720.73Z" />
							<path id="&lt;Path&gt;" class="shp7" d="M913.49 2742.48L959.01 2739.22L958.95 2699.44L913.43 2702.56L913.49 2742.48Z" />
							<path id="&lt;Path&gt;" class="shp7" d="M1217.77 2776.82L976.09 2795.12L976.03 2755.39L1217.71 2737.8L1217.77 2776.82Z" />
							<path id="&lt;Path&gt;" class="shp7" d="M913.58 2799.86L959.1 2796.41L959.04 2756.63L913.52 2759.94L913.58 2799.86Z" />
							<path id="&lt;Path&gt;" class="shp7" d="M1269.08 2773.13L1259.78 2773.84L1258.22 1764.02L1267.52 1764.02L1269.08 2773.13Z" />
						</g>
						<path id="&lt;Path&gt;" class="shp2" d="M1497.71 1655.07C1497.71 1666.7 1489.07 1676.15 1478.39 1676.18C1467.7 1676.22 1459.02 1666.8 1459.02 1655.15C1459.02 1643.5 1467.7 1634.05 1478.39 1634.04C1489.07 1634.03 1497.71 1643.45 1497.71 1655.07Z" />
						<path id="&lt;Path&gt;" class="shp8" d="M598.39 2980.96L2269.87 2857.91L2278.37 2857.29C2289.74 2856.45 2300.07 2850.83 2307.96 2842.31C2187.68 2835.73 2112.97 2793.04 2064.78 2748.94C1968 2660.37 1984.78 2573.02 1880.42 2514.78C1750.24 2442.15 1647.89 2534.19 1549.1 2443.37C1489.22 2388.32 1518.62 2347.26 1444.93 2264.99C1363.31 2173.86 1310.17 2204.49 1228.15 2122.48C1124.44 2018.78 1176.31 1938.1 1086.97 1863.64C978.59 1773.32 861.71 1856.92 758.55 1770.3C714.05 1732.94 689.63 1678.62 676.88 1620.85L598.39 1620.85C568.33 1620.85 543.89 1646.17 543.89 1677.39L543.89 2928.43C543.89 2959.65 568.32 2983.17 598.39 2980.96Z" />
					</g>
					<path id="&lt;Path&gt;" class="shp9" d="M2357.53 2850.43L581.07 2980.6L1355.64 3118.56C1364.51 3120.14 1373.5 3120.56 1382.46 3119.81L3224.29 2965.62L2385.78 2851.31C2376.41 2850.03 2366.95 2849.74 2357.53 2850.43Z" />
					<path id="&lt;Path&gt;" class="shp6" d="M840.28 2981.72L2319.23 2871.73L2776.96 2933.63L1310.75 3051.2L840.28 2981.72Z" />
				</g>
			</g>
			<g id="&lt;Group&gt;">
				<g id="&lt;Group&gt;">
					<path id="&lt;Path&gt;" class="shp10" d="M2361.07 1153.62L831.73 1104.29C779.49 1102.61 736.92 1143.07 736.92 1194.68L736.92 2685.5C736.92 2737.11 779.49 2776.34 831.73 2773.15L2361.07 2679.65C2404.51 2677 2439.55 2636.98 2439.55 2590.27L2439.55 1240.73C2439.55 1194.02 2404.51 1155.02 2361.07 1153.62Z" />
					<path id="&lt;Path&gt;" class="shp11" d="M831.73 2743.47C796.21 2745.58 767.3 2718.87 767.3 2683.8L767.3 1195.5C767.3 1160.43 796.21 1132.89 831.73 1133.97L2361.07 1180.76C2390.67 1181.66 2414.57 1208.21 2414.57 1240.06L2414.57 2591.67C2414.57 2623.51 2390.67 2650.75 2361.08 2652.51L831.73 2743.47Z" />
					<path id="&lt;Path&gt;" class="shp12" d="M2361.07 1153.62L831.73 1104.29C779.49 1102.61 736.92 1143.07 736.92 1194.68L736.92 1261.7L2439.55 1301.41L2439.55 1240.73C2439.55 1194.02 2404.51 1155.02 2361.07 1153.62Z" />
					<path id="&lt;Path&gt;" class="shp2" d="M905.34 1190.26C905.34 1207 891.63 1220.2 874.68 1219.77C857.7 1219.33 843.91 1205.36 843.91 1188.57C843.91 1171.78 857.7 1158.58 874.68 1159.07C891.63 1159.57 905.34 1173.53 905.34 1190.26Z" />
					<path id="&lt;Path&gt;" class="shp2" d="M1012.21 1193.21C1012.21 1209.84 998.66 1222.97 981.91 1222.54C965.14 1222.11 951.51 1208.22 951.51 1191.54C951.51 1174.85 965.14 1161.72 981.91 1162.21C998.66 1162.7 1012.21 1176.58 1012.21 1193.21Z" />
					<path id="&lt;Path&gt;" class="shp2" d="M1117.8 1196.12C1117.8 1212.65 1104.41 1225.71 1087.86 1225.28C1071.29 1224.85 1057.83 1211.05 1057.83 1194.47C1057.83 1177.88 1071.29 1164.82 1087.86 1165.31C1104.41 1165.79 1117.8 1179.59 1117.8 1196.12Z" />
					<g id="&lt;Group&gt;" style="opacity: 0.502;mix-blend-mode: soft-light">
						<path id="&lt;Path&gt;" class="shp2" d="M1773.05 1720.24C1594.78 1464.13 1284.45 1547.61 1086.97 1262.55C1051.26 1211.01 1027.02 1158.5 1010.38 1110.06L831.73 1104.29C779.49 1102.61 736.92 1143.07 736.92 1194.68L736.92 2685.5C736.92 2737.11 779.49 2776.34 831.73 2773.15L2306.01 2683.02C2272.8 2635.81 1982.43 2463.27 1907.1 2191.31C1838.09 1942.18 1880.26 1874.25 1773.05 1720.24Z" />
					</g>
				</g>
				<g id="&lt;Group&gt;">
					<g id="&lt;Group&gt;">
						<path id="&lt;Path&gt;" class="shp13" d="M1635.3 2185.41C1567.3 2186.63 1499.57 2170.93 1439.54 2139.84C1374.73 2106.3 1320.45 2056.05 1282.82 1994.5C1246.35 1934.83 1227.01 1866.4 1227.01 1796.78C1227.01 1578.43 1412.49 1405.62 1635.3 1411.43C1852.59 1417.09 2025.44 1591.34 2025.44 1799.98C2025.44 2008.63 1852.59 2181.49 1635.3 2185.41Z" />
						<path id="&lt;Path&gt;" class="shp2" d="M1991.69 1799.85C1991.69 1990.74 1833.92 2148.04 1635.3 2151.24C1571.01 2152.27 1510.22 2137.07 1457.03 2109.4C1398.05 2078.76 1348.62 2032.8 1314.49 1976.85C1282.32 1924.09 1263.83 1862.6 1263.83 1796.93C1263.83 1597.96 1432.08 1440.7 1635.3 1445.6C1833.92 1450.39 1991.69 1608.96 1991.69 1799.85Z" />
						<path id="&lt;Path&gt;" class="shp14" d="M1863.11 1743.31L1863.01 1844.7C1862.97 1854.41 1859.06 1863.68 1852.05 1870.53L1763.76 1957.11C1756.64 1964.07 1746.98 1968.02 1736.92 1968.01L1603.29 1968.02C1542.1 2027.09 1493.35 2074.22 1457.03 2109.4C1398.05 2078.76 1348.62 2032.8 1314.49 1976.85C1351.16 1941.66 1400.87 1893.84 1463.64 1833.37L1463.1 1701.94C1463.06 1691.96 1467.2 1682.41 1474.55 1675.46L1565.76 1588.94C1573 1582.09 1582.79 1578.34 1592.95 1578.51L1698.77 1580.32C1707.51 1580.47 1715.4 1585.73 1718.75 1593.65C1722.07 1601.59 1720.22 1610.6 1714.04 1616.53L1613.22 1713.14C1604.24 1721.72 1604.2 1735.82 1613.18 1744.58L1649.27 1779.86L1659.22 1789.57L1695.13 1824.71C1704.02 1833.38 1718.41 1833.41 1727.27 1824.79L1826.79 1728.21C1832.89 1722.28 1842.05 1720.57 1850.03 1723.87C1857.96 1727.18 1863.15 1734.84 1863.11 1743.31Z" />
					</g>
					<path id="&lt;Path&gt;" class="shp2" d="M2164.1 2479.12C2164.1 2501.09 2146.28 2519.57 2124.24 2520.41L1126.85 2558.49C1102.09 2559.44 1081.98 2541.27 1081.98 2517.91L1081.98 2359.29C1081.98 2335.93 1102.09 2316.49 1126.85 2315.88L2124.24 2291.2C2146.28 2290.65 2164.1 2308.02 2164.1 2329.98L2164.1 2479.12Z" />
				</g>
			</g>
			<g id="&lt;Group&gt;">
				<path id="&lt;Path&gt;" class="shp15" d="M1907.4 2994.6L1907.4 3025.51C1907.4 3033.42 1903.34 3039.96 1897.96 3040.67L1415.74 3084.37C1412.16 3084.87 1408.56 3084.78 1405.01 3084.16C1404.08 3083.99 1403.15 3083.79 1402.22 3083.56L1066.23 3020.23C1062.66 3019.3 1060.03 3014.63 1060.03 3009.2L1060.03 2976.54L1416.52 2932.36L1462.41 2910.64L1508.04 2917.21L1534.98 2912.05L1596.56 2929.97L1907.4 2994.6Z" />
				<path id="&lt;Path&gt;" class="shp16" d="M1907.4 2994.6L1907.4 3025.51C1907.4 3033.42 1903.34 3039.96 1897.96 3040.67L1415.76 3084.37C1412.18 3084.87 1407.72 3084.75 1405.05 3084.15L1405.05 2917.65L1462.43 2910.64L1508.05 2917.21L1534.99 2912.05L1596.57 2929.97L1907.4 2994.6Z" />
				<path id="&lt;Path&gt;" class="shp17" d="M1534.98 2912.05L1060.03 2975.09L1402.61 3039.62C1406.82 3040.7 1411.11 3040.95 1415.35 3040.37L1907.4 2994.6L1534.98 2912.05Z" />
				<g id="&lt;Group&gt;">
					<path id="&lt;Path&gt;" class="shp18" d="M1709.09 2968.99C1709.09 2991.61 1637.91 3009.2 1539.64 3013.76C1514.83 3014.9 1488.32 3015.22 1460.81 3014.59C1325.56 3011.47 1216.89 2986.31 1216.89 2958.46C1216.89 2957.83 1216.96 2956.45 1217.08 2956.46L1216.89 2956.45L1217.45 2955.11C1217.58 2954.65 1217.75 2954.24 1217.96 2953.81L1249.15 2872.27L1286.81 2773.88L1339.56 2635.99L1379.94 2530.43L1430.16 2399.18C1436.44 2382.75 1448.09 2372.53 1460.67 2372.53C1462.38 2372.53 1464.06 2372.7 1465.71 2373.08C1476.34 2375.4 1485.82 2384.97 1491.27 2399.21L1541.92 2531.38L1582.36 2638.33L1635.73 2778.99L1635.73 2779.02L1674.05 2880.09L1674.05 2880.12L1674.66 2880.18L1706.57 2962.31C1707.94 2964.5 1709.09 2966.74 1709.09 2968.99Z" />
					<path id="&lt;Path&gt;" class="shp2" d="M1674.66 2880.18C1643.87 2890.47 1594.64 2897.88 1535.71 2900.63C1511.96 2901.75 1486.84 2902.11 1460.66 2901.61C1369.79 2899.89 1291 2888.2 1249.07 2872.29L1286.78 2773.89C1330.9 2783.82 1392.39 2790.51 1460.73 2791.54C1482.83 2791.87 1504.36 2791.59 1524.87 2790.76C1568.03 2789.05 1606.08 2784.91 1636.06 2779.03L1674.05 2880.09L1674.05 2880.12L1674.66 2880.18Z" />
					<path id="&lt;Path&gt;" class="shp2" d="M1582.82 2638.33C1559.32 2640.87 1533.48 2642.6 1506.07 2643.38C1491.39 2643.81 1476.26 2643.96 1460.81 2643.81C1416.58 2643.38 1375.21 2640.55 1339.56 2635.99L1379.94 2530.43C1405.2 2532.43 1432.42 2533.57 1460.81 2533.73C1470.83 2533.79 1480.72 2533.73 1490.41 2533.53C1508.21 2533.19 1525.45 2532.48 1541.92 2531.38L1582.82 2638.33Z" />
					<path id="&lt;Path&gt;" class="shp19" d="M1539.64 3013.76C1514.83 3014.9 1488.32 3015.22 1460.81 3014.59C1325.56 3011.47 1216.89 2986.31 1216.89 2958.46C1216.89 2957.83 1216.96 2956.45 1217.08 2956.46L1216.89 2956.45L1217.45 2955.11C1217.58 2954.65 1217.75 2954.24 1217.96 2953.81L1249.15 2872.27L1286.81 2773.88L1339.56 2635.99L1379.94 2530.43L1430.16 2399.18C1436.44 2382.75 1448.09 2372.53 1460.67 2372.53C1462.38 2372.53 1464.06 2372.7 1465.71 2373.08C1471.08 2406.49 1480.26 2464.8 1490.41 2533.53C1495.5 2568.13 1500.84 2605.38 1506.07 2643.38C1512.81 2692.52 1519.34 2742.99 1524.88 2790.76C1529.41 2829.91 1533.27 2867.27 1536.01 2900.63C1540 2948.93 1541.65 2988.88 1539.64 3013.76Z" />
				</g>
			</g>
			<g id="&lt;Group&gt;">
				<path id="&lt;Path&gt;" class="shp20" d="M2871.59 1949.45C2863.33 1944.9 2857.99 1939.73 2855.59 1933.95C2851.98 1925.27 2851.93 1911.77 2864.2 1904.68C2876.48 1897.58 2850.76 1890.96 2855.19 1885.2C2858.14 1881.36 2864.45 1877.54 2874.13 1873.74C2880 1898.26 2882.2 1912.36 2880.74 1916.04C2878.55 1921.56 2866.72 1922.23 2877.73 1938L2871.59 1949.45Z" />
				<path id="&lt;Path&gt;" class="shp21" d="M2475.57 3195.48C2474.6 3196.12 2456.96 3219.98 2448.99 3235.58L2427.05 3223.8C2435.29 3220.86 2441.49 3211.42 2445.63 3195.48C2449.78 3179.54 2459.75 3179.54 2475.57 3195.48Z" />
				<path id="&lt;Path&gt;" class="shp22" d="M2417.9 3249.86C2427.06 3252.97 2433.56 3254.65 2437.37 3254.93L2437.95 3254.97C2441.19 3255.21 2444.32 3253.79 2446.26 3251.19C2449.64 3246.65 2454.53 3239.78 2454.62 3237.86C2454.77 3234.93 2446.83 3228.89 2439.75 3226.28C2432.67 3223.67 2431.02 3220.17 2417.9 3209.69C2404.78 3199.21 2382.61 3186.77 2372.23 3196.35C2361.86 3205.92 2371.44 3229.79 2417.9 3249.86Z" />
				<path id="&lt;Path&gt;" class="shp23" d="M2379.84 3197.86C2391.24 3202.4 2394.67 3215.22 2414.45 3228.24C2425.67 3235.62 2439.51 3242.4 2449.38 3246.89C2452.04 3243.13 2454.56 3239.23 2454.62 3237.86C2454.77 3234.92 2446.83 3228.89 2439.75 3226.28C2432.67 3223.67 2431.02 3220.17 2417.9 3209.69C2404.78 3199.21 2382.61 3186.77 2372.23 3196.35C2369.59 3198.78 2368.25 3202.16 2368.48 3206.15C2370.53 3200.62 2374.04 3195.55 2379.84 3197.86Z" />
				<g id="&lt;Group&gt;">
					<path id="&lt;Compound Path&gt;" fill-rule="evenodd" class="shp24" d="M2303.69 1660.71L2329.91 1658.32C2333.3 1636.74 2338.96 1615.71 2346.64 1595.51L2322.96 1584.28C2311.07 1578.65 2306.81 1564.21 2313.45 1552.04L2336.05 1510.61C2342.67 1498.46 2382.71 1489.51 2394.56 1495.17L2394.29 1510.7C2407.59 1493.49 2422.56 1477.56 2438.93 1463.16L2424.07 1439.67C2417.13 1428.72 2420.93 1413.63 2432.54 1406L2472.05 1380.01C2483.62 1372.4 2521.27 1367.76 2528.17 1378.7L2520.62 1410.05C2539.76 1401.27 2559.83 1394.27 2580.61 1389.33L2580.17 1360C2579.98 1346.74 2590.67 1335.12 2604.05 1334.02L2649.58 1330.3C2662.92 1329.21 2673.88 1339.03 2674.07 1352.25L2674.51 1381.5C2695.23 1382.97 2715.27 1386.58 2734.4 1392.11L2748.58 1365.85C2755.03 1353.88 2791.12 1344.6 2802.69 1350.24L2820.56 1373.58C2832.09 1379.2 2836.22 1393.43 2829.79 1405.38L2816 1431.01C2832.36 1442.45 2847.37 1455.62 2860.78 1470.3L2884.43 1454.49C2895.72 1446.95 2935.5 1441.86 2942.23 1452.66L2939.99 1497.15C2946.71 1507.92 2943.03 1522.78 2931.78 1530.34L2909.3 1545.43C2917.28 1563.9 2923.33 1583.51 2927.22 1604.06L2952.47 1601.77C2965.56 1600.58 2976.33 1610.23 2976.52 1623.32L2977.18 1667.96C2977.38 1681.05 2966.93 1692.66 2953.84 1693.88L2929.99 1696.12C2927.31 1717.81 2922.35 1739 2915.34 1759.4L2935.31 1768.93C2946.76 1774.4 2950.86 1788.53 2944.48 1800.52L2941.5 1848.17C2935.11 1860.18 2901.82 1858.73 2890.34 1853.29L2871.34 1844.28C2858.15 1862.66 2843.09 1879.72 2826.47 1895.16L2837.3 1912.34C2844.06 1923.07 2840.36 1938.02 2829.03 1945.76L2814.32 1973.53C2802.96 1981.28 2764.27 1977.47 2757.47 1966.73L2747 1950.17C2726.81 1960.19 2705.48 1968.2 2683.28 1973.88L2683.58 1994.02C2683.77 2007.23 2673.13 2019.05 2659.8 2020.42L2614.29 2025.09C2600.91 2026.47 2589.9 2016.84 2589.7 2003.59L2589.4 1983.4C2566.95 1982.22 2545.23 1978.55 2524.56 1972.6L2536.9 1995.94C2530.35 2008.12 2493.05 2009.01 2481.29 2003.55L2441.11 1984.92C2429.31 1979.44 2425.08 1965.1 2431.67 1952.89L2442.21 1933.36C2424.76 1921.13 2408.84 1906.92 2394.75 1890.99L2391.72 1906.58C2380.07 1914.41 2348.76 1909.26 2341.79 1898.37L2318.03 1861.21C2311.05 1850.3 2314.87 1835.12 2326.55 1827.31L2346.9 1813.71C2339.04 1794.38 2333.27 1773.84 2329.84 1752.32L2305.08 1754.64C2291.46 1755.92 2280.24 1746.11 2280.04 1732.74L2279.37 1687.16C2279.17 1673.79 2290.06 1661.94 2303.69 1660.71ZM2634.69 1862.59C2735.04 1852.77 2814.75 1764.46 2813.28 1665.28C2811.81 1566.09 2729.7 1492.73 2629.34 1501.45C2528.37 1510.23 2447.26 1598.68 2448.74 1698.96C2450.23 1799.24 2533.73 1872.47 2634.69 1862.59Z" />
					<path id="&lt;Compound Path&gt;" fill-rule="evenodd" class="shp25" d="M2334.23 1658.83L2360.45 1656.44C2363.85 1634.86 2369.51 1613.83 2377.18 1593.63L2353.5 1582.4C2341.61 1576.77 2337.36 1562.33 2343.99 1550.16L2366.59 1508.73C2373.22 1496.58 2388.2 1491.33 2400.05 1496.99L2424.83 1508.82C2438.13 1491.61 2453.1 1475.67 2469.47 1461.28L2454.61 1437.79C2447.68 1426.83 2451.47 1411.75 2463.08 1404.12L2502.6 1378.13C2514.17 1370.52 2529.14 1373.23 2536.04 1384.17L2551.17 1408.17C2570.31 1399.39 2590.37 1392.39 2611.15 1387.45L2610.72 1358.11C2610.52 1344.86 2621.22 1333.24 2634.6 1332.14L2680.13 1328.42C2693.46 1327.32 2704.42 1337.15 2704.62 1350.36L2705.05 1379.62C2725.78 1381.08 2745.81 1384.7 2764.94 1390.23L2779.12 1363.97C2785.58 1352 2800.19 1346.88 2811.75 1352.51L2851.1 1371.7C2862.63 1377.32 2866.76 1391.55 2860.33 1403.49L2846.54 1429.13C2862.9 1440.57 2877.91 1453.74 2891.32 1468.42L2914.98 1452.61C2926.27 1445.07 2940.87 1447.71 2947.6 1458.51L2970.53 1495.27C2977.25 1506.04 2973.58 1520.9 2962.32 1528.46L2939.85 1543.55C2947.83 1562.02 2953.88 1581.63 2957.77 1602.18L2983.02 1599.89C2996.11 1598.7 3006.87 1608.35 3007.06 1621.44L3007.73 1666.07C3007.92 1679.17 2997.47 1690.77 2984.38 1692L2960.53 1694.23C2957.86 1715.93 2952.9 1737.12 2945.88 1757.52L2965.86 1767.05C2977.3 1772.52 2981.41 1786.65 2975.02 1798.64L2953.25 1839.52C2946.85 1851.53 2932.36 1856.85 2920.88 1851.41L2901.88 1842.4C2888.69 1860.77 2873.64 1877.84 2857.01 1893.28L2867.84 1910.46C2874.6 1921.19 2870.91 1936.14 2859.58 1943.87L2820.9 1970.26C2809.54 1978.01 2794.81 1975.59 2788.02 1964.85L2777.55 1948.29C2757.35 1958.31 2736.02 1966.31 2713.82 1972L2714.12 1992.14C2714.32 2005.35 2703.68 2017.17 2690.35 2018.54L2644.83 2023.21C2631.45 2024.59 2620.44 2014.96 2620.25 2001.71L2619.95 1981.52C2597.49 1980.34 2575.78 1976.67 2555.1 1970.72L2545 1989.48C2538.45 2001.67 2523.6 2007.13 2511.83 2001.67L2471.66 1983.04C2459.85 1977.56 2455.62 1963.22 2462.21 1951.01L2472.75 1931.48C2455.3 1919.25 2439.38 1905.04 2425.3 1889.1L2406.05 1902.03C2394.4 1909.86 2379.3 1907.38 2372.34 1896.49L2348.57 1859.33C2341.59 1848.42 2345.41 1833.23 2357.1 1825.43L2377.45 1811.83C2369.58 1792.5 2363.82 1771.95 2360.39 1750.44L2335.63 1752.76C2322 1754.04 2310.79 1744.23 2310.59 1730.86L2309.91 1685.28C2309.72 1671.91 2320.61 1660.06 2334.23 1658.83ZM2665.23 1860.71C2765.58 1850.89 2845.29 1762.58 2843.82 1663.4C2842.36 1564.21 2760.25 1490.85 2659.89 1499.57C2558.91 1508.35 2477.8 1596.79 2479.29 1697.07C2480.77 1797.35 2564.27 1870.59 2665.23 1860.71Z" />
				</g>
				<path id="&lt;Path&gt;" class="shp26" d="M2606.11 2550.56C2570.88 2621.46 2534.97 2706.68 2505.28 2805.41C2461.06 2952.5 2444.12 3084.81 2438.71 3189.82C2451.29 3195.02 2463.88 3200.22 2476.47 3205.41C2501.21 3189.65 2537.5 3161.89 2564.25 3116.84C2608.12 3043.01 2577.15 3005.57 2612.8 2916.76C2647.36 2830.66 2691.16 2829.22 2729.1 2735.61C2751.74 2679.76 2756.91 2629.05 2757.91 2595.99C2707.31 2580.85 2656.71 2565.71 2606.11 2550.56Z" />
				<path id="&lt;Path&gt;" class="shp27" d="M2675.27 2571.26C2688.92 2606.55 2687.83 2633.07 2682.57 2652.5C2665.05 2717.19 2595.97 2724.21 2579.52 2796.55C2568.48 2845.1 2596.44 2855.83 2581.74 2906.24C2566.14 2959.74 2531.81 2957.39 2513.04 3012.62C2498.28 3056.02 2514.01 3073.59 2507.5 3134.5C2505.24 3155.58 2501.07 3174.76 2496.04 3191.87C2518.12 3175.28 2543.93 3151.06 2564.25 3116.84C2608.12 3043.01 2577.15 3005.57 2612.8 2916.76C2647.36 2830.66 2691.16 2829.22 2729.1 2735.61C2751.74 2679.76 2756.91 2629.05 2757.91 2595.99C2730.37 2587.75 2702.82 2579.51 2675.27 2571.26Z" />
				<path id="&lt;Path&gt;" class="shp28" d="M3159.97 3070.24C3166.19 3072.57 3170.67 3078.08 3173.43 3086.76C3177.56 3099.78 3170.8 3153.89 3164.91 3167.19C3159.02 3180.48 3141.68 3177.31 3136.62 3167.19C3133.25 3160.44 3133.96 3133.19 3138.76 3085.44L3159.97 3070.24Z" />
				<path id="&lt;Path&gt;" class="shp29" d="M2611.65 2582.7C2652.64 2638.28 2680.94 2686.44 2699.19 2720.09C2737.74 2791.19 2746.56 2825.46 2792 2891.53C2834.08 2952.72 2861.86 2974.72 2873.2 2983.16C2900.55 3003.53 2923.12 3012.65 2981.22 3034.63C3031.98 3053.83 3085.75 3073.71 3142.37 3094.07C3152.37 3095.2 3156.58 3090.88 3159.33 3081.8C3158.4 3038.56 3145.38 3012.15 3134.59 2996.53C3111.55 2963.18 3087.64 2963.01 3016.33 2912.49C2978.31 2885.55 2958.98 2871.63 2942.95 2849.6C2935.24 2839 2922.62 2819.31 2902.62 2744.98C2894.42 2714.52 2884.57 2673.32 2876.26 2623.52C2788.06 2609.91 2699.85 2596.31 2611.65 2582.7Z" />
				<path id="&lt;Path&gt;" class="shp30" d="M2372.98 1936.25C2377.66 1926.62 2374.5 1917.47 2363.51 1908.82C2347.03 1895.83 2315.53 1877.99 2318.02 1853.06C2329.37 1872.14 2338.71 1880.82 2346.04 1879.1C2353.37 1877.38 2359.5 1878.62 2364.44 1882.84C2381.58 1892.6 2389.91 1906.83 2389.41 1925.54C2388.91 1944.25 2388.66 1953.61 2388.66 1953.61L2372.98 1936.25Z" />
				<path id="&lt;Path&gt;" class="shp31" d="M2365.11 1929.76C2374.76 1928.21 2384.41 1926.66 2394.06 1925.11C2402.33 1937.45 2413.88 1957.02 2422.47 1982.83C2441.86 2041.12 2426.99 2073.77 2438.52 2109.01C2447.97 2137.88 2476.88 2173.86 2565.67 2200.43C2565.02 2256.81 2564.38 2313.19 2563.74 2369.58C2527.34 2364.17 2468.75 2349.73 2412.76 2306.8C2380.33 2281.92 2345.18 2254.97 2332.15 2208.74C2315.7 2150.39 2340.07 2081.23 2349.6 2054.16C2355.06 2038.67 2365.65 2012.41 2367.43 1974.89C2368.32 1955.98 2366.69 1940.29 2365.11 1929.76Z" />
				<path id="&lt;Path&gt;" class="shp32" d="M2558.93 2198.35C2589.47 2204.35 2631.71 2208.98 2681.16 2203.15C2767.2 2193.01 2829.57 2156.58 2861.85 2134.25C2897.1 2211.18 2897.84 2268.21 2891.63 2306.52C2887.06 2334.76 2880.1 2344.23 2879.48 2375.83C2878.43 2429.04 2897.45 2437.1 2906.39 2506.24C2913.75 2563.17 2903.17 2575.57 2919.79 2599.27C2931.71 2616.27 2947.54 2624.69 2956.95 2651.27C2960.07 2660.07 2967.82 2681.97 2959.58 2689.07C2946.37 2700.44 2913.57 2655.33 2852.37 2649.18C2819.73 2645.9 2814.74 2657.29 2780.91 2650.84C2743.97 2643.8 2746.54 2629.59 2711.93 2622.59C2677.63 2615.65 2667.21 2628.02 2614.7 2621.76C2592.61 2619.12 2581.56 2617.8 2574.67 2611.68C2552.39 2591.86 2570.8 2552.44 2574.81 2490.45C2578.76 2429.32 2563.59 2425.24 2557.36 2334.22C2555.16 2302.07 2553.83 2255.55 2558.93 2198.35Z" />
				<path id="&lt;Path&gt;" class="shp33" d="M2855.7 1947.79C2862.62 1940.04 2869.55 1932.28 2876.47 1924.52C2905.63 1940.24 2950.18 1968.9 2990.59 2017.93C3020.82 2054.62 3047.51 2087 3050.38 2133.99C3054.5 2201.35 3006.81 2251.77 2984.61 2275.24C2940.85 2321.5 2890.38 2340.84 2861.51 2349.18C2805.61 2225.1 2813.92 2176.64 2833.71 2155.95C2844.72 2144.43 2859.58 2141.22 2873.2 2119.85C2892.15 2090.12 2888.79 2056.48 2886.66 2035.16C2882.74 1995.95 2867.4 1966 2855.7 1947.79Z" />
				<g id="&lt;Group&gt;">
					<path id="&lt;Path&gt;" class="shp34" d="M2687.85 2138.48C2686.26 2146.93 2685.28 2165.16 2696.45 2179.64C2706.22 2192.32 2721.18 2196.15 2727.17 2197.75C2741.65 2201.61 2749.47 2198.48 2750.25 2200.97C2751.98 2206.48 2716.46 2230.95 2675.36 2229.42C2651.21 2228.52 2626.87 2218.7 2627.12 2210.94C2627.4 2202.23 2658.41 2203.22 2666.1 2185.18C2671.02 2173.66 2664.24 2159.46 2656.88 2148.4C2663.55 2140.65 2681.16 2146.26 2687.85 2138.48Z" />
					<g id="&lt;Group&gt;">
						<path id="&lt;Path&gt;" class="shp35" d="M2658.06 2130.93C2655.55 2123.93 2658.34 2114.5 2665.17 2110.51C2671.06 2107.07 2677.95 2108.91 2682.08 2110.02C2694.06 2113.22 2707.19 2123.42 2709 2135.45C2710.08 2142.58 2699.51 2152.43 2697.76 2154.26C2695.78 2156.33 2693.4 2156.38 2690.84 2157.53C2687.29 2159.12 2681.72 2161.68 2672.57 2166.03C2672.71 2163.75 2672.74 2160.87 2672.36 2157.59C2672.22 2156.33 2671.59 2151.39 2669.72 2146.75C2665.96 2137.48 2660.44 2137.57 2658.06 2130.93Z" />
						<path id="&lt;Path&gt;" class="shp36" d="M2684.28 2163.94C2676.64 2169.82 2667.88 2170.48 2657.99 2165.92C2644.75 2159.81 2652.14 2130.4 2662.76 2127.67C2666.31 2126.76 2672.36 2128.16 2676.65 2131.22C2679.19 2133.04 2679.77 2134.49 2683.97 2137.38C2687.85 2140.04 2689.18 2140.06 2690.12 2141.56C2691.3 2143.45 2691.46 2147 2686.06 2154.36C2689.46 2152.89 2692.88 2153.15 2694.76 2154.99C2695.06 2155.28 2695.8 2156.24 2696.03 2157.35C2696.86 2161.37 2692.31 2164.33 2684.28 2163.94Z" />
					</g>
				</g>
				<path id="&lt;Path&gt;" class="shp37" d="M2863.18 2581.59C2837.21 2576.57 2827.44 2601.41 2802.23 2597.1C2767.19 2591.11 2770.85 2540.5 2730.21 2516.22C2683.65 2488.4 2637.08 2529.88 2606.11 2506.24C2588.39 2492.72 2576.52 2458.44 2599.46 2368.85C2599.85 2361.86 2600.92 2328.71 2576.19 2300.15C2548.1 2267.7 2508.99 2266.92 2503.06 2266.91C2440.12 2270.77 2380.63 2241 2349.05 2189.35C2337.86 2171.05 2331.72 2152.51 2328.67 2135.15C2325.53 2159.07 2325.4 2184.81 2332.15 2208.74C2345.18 2254.97 2380.33 2281.92 2412.76 2306.8C2467.19 2348.54 2524.03 2363.32 2560.59 2369.08C2567.63 2427.63 2578.18 2438.28 2574.81 2490.45C2570.8 2552.44 2552.39 2591.86 2574.67 2611.68C2581.56 2617.8 2592.61 2619.12 2614.7 2621.76C2667.21 2628.02 2677.63 2615.65 2711.93 2622.59C2746.54 2629.59 2743.97 2643.8 2780.91 2650.84C2814.74 2657.29 2819.73 2645.9 2852.37 2649.18C2913.57 2655.33 2946.37 2700.44 2959.58 2689.07C2964.3 2685.01 2963.77 2676.1 2961.87 2667.57C2945.5 2662.06 2933.76 2654.47 2925.23 2646.96C2896.06 2621.32 2892.2 2587.2 2863.18 2581.59Z" />
			</g>
			<g id="&lt;Group&gt;">
				<path id="&lt;Compound Path&gt;" fill-rule="evenodd" class="shp38" d="M1954.76 1092.12L1974.53 1090.33C1977.09 1074.05 1981.35 1058.19 1987.14 1042.96L1969.28 1034.5C1960.32 1030.25 1957.11 1019.36 1962.11 1010.19L1979.16 978.94C1984.15 969.78 2014.34 963.03 2023.28 967.3L2023.07 979.01C2033.1 966.03 2044.39 954.02 2056.73 943.16L2045.53 925.45C2040.3 917.19 2043.16 905.82 2051.92 900.06L2081.71 880.46C2090.44 874.72 2118.83 871.22 2124.03 879.48L2118.34 903.11C2132.77 896.49 2147.9 891.22 2163.57 887.49L2163.24 865.37C2163.09 855.38 2171.16 846.61 2181.25 845.78L2215.58 842.97C2225.64 842.15 2233.9 849.56 2234.05 859.52L2234.37 881.59C2250.01 882.69 2265.11 885.42 2279.54 889.59L2290.23 869.78C2295.1 860.76 2322.31 853.76 2331.03 858.01L2344.51 875.61C2353.2 879.85 2356.31 890.58 2351.47 899.59L2341.07 918.92C2353.4 927.54 2364.73 937.47 2374.84 948.55L2392.67 936.63C2401.19 930.94 2431.18 927.1 2436.25 935.24L2434.56 968.79C2439.63 976.92 2436.86 988.12 2428.37 993.82L2411.43 1005.2C2417.44 1019.12 2422.01 1033.92 2424.94 1049.41L2443.98 1047.68C2453.85 1046.78 2461.97 1054.06 2462.11 1063.94L2462.61 1097.59C2462.76 1107.46 2454.88 1116.22 2445.01 1117.14L2427.03 1118.82C2425.01 1135.19 2421.27 1151.16 2415.98 1166.54L2431.04 1173.73C2439.67 1177.85 2442.76 1188.51 2437.95 1197.55L2435.71 1233.48C2430.88 1242.54 2405.78 1241.45 2397.13 1237.34L2382.8 1230.55C2372.85 1244.41 2361.5 1257.27 2348.96 1268.92L2357.13 1281.87C2362.23 1289.96 2359.44 1301.24 2350.9 1307.07L2339.8 1328.01C2331.23 1333.86 2302.06 1330.98 2296.94 1322.88L2289.04 1310.4C2273.82 1317.95 2257.73 1323.99 2240.99 1328.28L2241.22 1343.46C2241.36 1353.43 2233.34 1362.34 2223.29 1363.37L2188.97 1366.89C2178.88 1367.93 2170.58 1360.67 2170.43 1350.68L2170.2 1335.45C2153.27 1334.56 2136.9 1331.79 2121.3 1327.31L2130.61 1344.91C2125.67 1354.1 2097.55 1354.76 2088.68 1350.65L2058.38 1336.6C2049.48 1332.47 2046.29 1321.65 2051.26 1312.45L2059.21 1297.72C2046.05 1288.5 2034.04 1277.78 2023.42 1265.77L2021.14 1277.53C2012.35 1283.43 1988.74 1279.55 1983.49 1271.33L1965.57 1243.31C1960.31 1235.09 1963.19 1223.64 1972 1217.75L1987.34 1207.5C1981.41 1192.92 1977.06 1177.43 1974.48 1161.21L1955.81 1162.96C1945.53 1163.92 1937.08 1156.53 1936.93 1146.44L1936.42 1112.07C1936.27 1101.99 1944.48 1093.06 1954.76 1092.12ZM2204.35 1244.36C2280.02 1236.96 2340.13 1170.36 2339.02 1095.57C2337.91 1020.78 2276 965.46 2200.32 972.03C2124.18 978.65 2063.02 1045.35 2064.14 1120.97C2065.26 1196.58 2128.22 1251.81 2204.35 1244.36Z" />
				<path id="&lt;Compound Path&gt;" fill-rule="evenodd" class="shp39" d="M1977.79 1090.71L1997.56 1088.91C2000.12 1072.63 2004.39 1056.78 2010.17 1041.54L1992.32 1033.08C1983.35 1028.83 1980.14 1017.94 1985.15 1008.77L2002.19 977.52C2007.18 968.36 2018.48 964.4 2027.42 968.67L2046.11 977.59C2056.14 964.61 2067.42 952.6 2079.77 941.75L2068.56 924.03C2063.33 915.77 2066.19 904.4 2074.95 898.64L2104.74 879.04C2113.47 873.3 2124.76 875.35 2129.96 883.6L2141.37 901.69C2155.8 895.07 2170.93 889.8 2186.6 886.07L2186.27 863.95C2186.13 853.96 2194.19 845.19 2204.28 844.36L2238.61 841.56C2248.67 840.73 2256.93 848.14 2257.08 858.11L2257.41 880.17C2273.04 881.27 2288.14 884 2302.57 888.17L2313.26 868.36C2318.13 859.34 2329.15 855.48 2337.87 859.73L2367.54 874.19C2376.23 878.43 2379.35 889.16 2374.5 898.17L2364.1 917.5C2376.44 926.12 2387.76 936.06 2397.87 947.13L2415.71 935.21C2424.22 929.52 2435.23 931.51 2440.31 939.65L2457.6 967.37C2462.66 975.5 2459.89 986.7 2451.41 992.4L2434.46 1003.78C2440.47 1017.71 2445.04 1032.5 2447.97 1047.99L2467.01 1046.26C2476.88 1045.37 2485 1052.64 2485.14 1062.52L2485.64 1096.17C2485.79 1106.05 2477.91 1114.8 2468.04 1115.72L2450.06 1117.41C2448.04 1133.77 2444.3 1149.74 2439.01 1165.13L2454.07 1172.32C2462.7 1176.44 2465.8 1187.1 2460.98 1196.13L2444.56 1226.96C2439.74 1236.01 2428.82 1240.03 2420.16 1235.93L2405.83 1229.13C2395.88 1242.99 2384.53 1255.86 2371.99 1267.5L2380.16 1280.46C2385.26 1288.55 2382.47 1299.82 2373.93 1305.65L2344.77 1325.54C2336.2 1331.39 2325.09 1329.57 2319.97 1321.47L2312.07 1308.98C2296.85 1316.54 2280.76 1322.57 2264.02 1326.86L2264.25 1342.04C2264.39 1352.01 2256.37 1360.92 2246.32 1361.95L2212 1365.48C2201.91 1366.51 2193.61 1359.25 2193.46 1349.26L2193.24 1334.03C2176.3 1333.15 2159.93 1330.38 2144.34 1325.89L2136.72 1340.04C2131.78 1349.23 2120.58 1353.35 2111.71 1349.23L2081.41 1335.18C2072.51 1331.05 2069.32 1320.24 2074.29 1311.03L2082.24 1296.3C2069.08 1287.08 2057.07 1276.36 2046.46 1264.35L2031.94 1274.1C2023.16 1280 2011.77 1278.13 2006.52 1269.92L1988.6 1241.9C1983.34 1233.67 1986.22 1222.22 1995.03 1216.33L2010.37 1206.08C2004.44 1191.5 2000.1 1176.01 1997.51 1159.79L1978.84 1161.54C1968.56 1162.5 1960.11 1155.11 1959.96 1145.02L1959.45 1110.65C1959.3 1100.57 1967.51 1091.64 1977.79 1090.71ZM2227.38 1242.94C2303.05 1235.54 2363.16 1168.94 2362.05 1094.15C2360.94 1019.36 2299.03 964.04 2223.35 970.62C2147.21 977.24 2086.05 1043.93 2087.17 1119.55C2088.29 1195.16 2151.25 1250.39 2227.38 1242.94Z" />
			</g>
		</g>
	</g>
</svg>