<svg version="1.2" baseProfile="tiny-ps" xmlns="http://www.w3.org/2000/svg" viewBox="0 0 3710 3710" width="3710" height="3710">
	<title>20943960-ai</title>
	<defs>
		<linearGradient id="grd1" gradientUnits="userSpaceOnUse"  x1="2445.396" y1="4741.004" x2="110.88" y2="1841.682">
			<stop offset="0" stop-color="#dae3fe"  />
			<stop offset="1" stop-color="#e9effd"  />
		</linearGradient>
		<linearGradient id="grd2" gradientUnits="userSpaceOnUse"  x1="3298.889" y1="1641.127" x2="2397.014" y2="3472.622">
			<stop offset="0" stop-color="#4f52ff"  />
			<stop offset="1" stop-color="#4042e2"  />
		</linearGradient>
		<linearGradient id="grd3" gradientUnits="userSpaceOnUse"  x1="1748.282" y1="2965.791" x2="422.579" y2="3859.198">
			<stop offset="0" stop-color="#4f52ff"  />
			<stop offset="1" stop-color="#4042e2"  />
		</linearGradient>
		<linearGradient id="grd4" gradientUnits="userSpaceOnUse"  x1="1421.383" y1="414.258" x2="2357.997" y2="713.452">
			<stop offset="0" stop-color="#fe7062"  />
			<stop offset="1" stop-color="#ff928e"  />
		</linearGradient>
		<linearGradient id="grd5" gradientUnits="userSpaceOnUse"  x1="2375.926" y1="828.153" x2="2426.545" y2="844.323">
			<stop offset="0" stop-color="#fe7062"  />
			<stop offset="1" stop-color="#ff928e"  />
		</linearGradient>
		<linearGradient id="grd6" gradientUnits="userSpaceOnUse"  x1="2527.431" y1="1332.108" x2="2563.178" y2="1343.527">
			<stop offset="0" stop-color="#fe7062"  />
			<stop offset="1" stop-color="#ff928e"  />
		</linearGradient>
		<linearGradient id="grd7" gradientUnits="userSpaceOnUse"  x1="1569.637" y1="1153.697" x2="2534.16" y2="1461.806">
			<stop offset="0" stop-color="#fe7062"  />
			<stop offset="1" stop-color="#ff928e"  />
		</linearGradient>
		<linearGradient id="grd8" gradientUnits="userSpaceOnUse"  x1="1306.766" y1="1645.132" x2="1356.424" y2="1660.994">
			<stop offset="0" stop-color="#fe7062"  />
			<stop offset="1" stop-color="#ff928e"  />
		</linearGradient>
		<linearGradient id="grd9" gradientUnits="userSpaceOnUse"  x1="3498.106" y1="3457.616" x2="404.121" y2="728.15">
			<stop offset="0" stop-color="#fe7062"  />
			<stop offset="1" stop-color="#ff928e"  />
		</linearGradient>
		<linearGradient id="grd10" gradientUnits="userSpaceOnUse"  x1="689.592" y1="2597.322" x2="755.642" y2="2597.322">
			<stop offset="0" stop-color="#febbba"  />
			<stop offset="1" stop-color="#ff928e"  />
		</linearGradient>
		<linearGradient id="grd11" gradientUnits="userSpaceOnUse"  x1="1102.853" y1="2380.13" x2="1089.087" y2="2481.656">
			<stop offset="0" stop-color="#09005d"  />
			<stop offset="1" stop-color="#1a0f91"  />
		</linearGradient>
		<linearGradient id="grd12" gradientUnits="userSpaceOnUse"  x1="1100.684" y1="2459.017" x2="1071.982" y2="2641.313">
			<stop offset="0" stop-color="#09005d"  />
			<stop offset="1" stop-color="#1a0f91"  />
		</linearGradient>
		<linearGradient id="grd13" gradientUnits="userSpaceOnUse"  x1="969.154" y1="2366.515" x2="1025.516" y2="2366.515">
			<stop offset="0" stop-color="#febbba"  />
			<stop offset="1" stop-color="#ff928e"  />
		</linearGradient>
		<linearGradient id="grd14" gradientUnits="userSpaceOnUse"  x1="997.315" y1="2057.712" x2="862.056" y2="2723.863">
			<stop offset="0" stop-color="#09005d"  />
			<stop offset="1" stop-color="#1a0f91"  />
		</linearGradient>
		<linearGradient id="grd15" gradientUnits="userSpaceOnUse"  x1="1481.304" y1="1944.501" x2="1173.462" y2="2221.863">
			<stop offset="0" stop-color="#09005d"  />
			<stop offset="1" stop-color="#1a0f91"  />
		</linearGradient>
		<linearGradient id="grd16" gradientUnits="userSpaceOnUse"  x1="1144.042" y1="1663.662" x2="1234.017" y2="1616.447">
			<stop offset="0" stop-color="#febbba"  />
			<stop offset="1" stop-color="#ff928e"  />
		</linearGradient>
		<linearGradient id="grd17" gradientUnits="userSpaceOnUse"  x1="1394.994" y1="1628.117" x2="1396.693" y2="1778.443">
			<stop offset="0" stop-color="#febbba"  />
			<stop offset="1" stop-color="#ff928e"  />
		</linearGradient>
		<linearGradient id="grd18" gradientUnits="userSpaceOnUse"  x1="1482.19" y1="1639.191" x2="1379.233" y2="1798.888">
			<stop offset="0" stop-color="#09005d"  />
			<stop offset="1" stop-color="#1a0f91"  />
		</linearGradient>
		<linearGradient id="grd19" gradientUnits="userSpaceOnUse"  x1="1334.672" y1="1684.336" x2="1226.861" y2="1613.72">
			<stop offset="0" stop-color="#febbba"  />
			<stop offset="1" stop-color="#ff928e"  />
		</linearGradient>
		<linearGradient id="grd20" gradientUnits="userSpaceOnUse"  x1="1594.548" y1="1775.95" x2="1650.88" y2="1680.292">
			<stop offset="0" stop-color="#febbba"  />
			<stop offset="1" stop-color="#ff928e"  />
		</linearGradient>
		<linearGradient id="grd21" gradientUnits="userSpaceOnUse"  x1="859.392" y1="1859.707" x2="889.67" y2="1084.584">
			<stop offset="0" stop-color="#fe7062"  />
			<stop offset="1" stop-color="#ff928e"  />
		</linearGradient>
		<linearGradient id="grd22" gradientUnits="userSpaceOnUse"  x1="1211.113" y1="1800.039" x2="1156.905" y2="1922.747">
			<stop offset="0" stop-color="#febbba"  />
			<stop offset="1" stop-color="#ff928e"  />
		</linearGradient>
		<linearGradient id="grd23" gradientUnits="userSpaceOnUse"  x1="823.291" y1="2653.388" x2="809.524" y2="2754.915">
			<stop offset="0" stop-color="#09005d"  />
			<stop offset="1" stop-color="#1a0f91"  />
		</linearGradient>
		<linearGradient id="grd24" gradientUnits="userSpaceOnUse"  x1="821.122" y1="2732.276" x2="792.42" y2="2914.572">
			<stop offset="0" stop-color="#09005d"  />
			<stop offset="1" stop-color="#1a0f91"  />
		</linearGradient>
	</defs>
	<style>
		tspan { white-space:pre }
		.shp0 { fill: url(#grd1) } 
		.shp1 { fill: #91b3fa } 
		.shp2 { fill: url(#grd2) } 
		.shp3 { fill: url(#grd3) } 
		.shp4 { fill: url(#grd4) } 
		.shp5 { fill: url(#grd5) } 
		.shp6 { fill: url(#grd6) } 
		.shp7 { fill: url(#grd7) } 
		.shp8 { fill: url(#grd8) } 
		.shp9 { fill: url(#grd9) } 
		.shp10 { opacity: 0.6;fill: #ffffff } 
		.shp11 { fill: url(#grd10) } 
		.shp12 { fill: url(#grd11) } 
		.shp13 { fill: url(#grd12) } 
		.shp14 { fill: url(#grd13) } 
		.shp15 { fill: url(#grd14) } 
		.shp16 { fill: url(#grd15) } 
		.shp17 { fill: url(#grd16) } 
		.shp18 { fill: url(#grd17) } 
		.shp19 { fill: url(#grd18) } 
		.shp20 { fill: url(#grd19) } 
		.shp21 { fill: url(#grd20) } 
		.shp22 { fill: url(#grd21) } 
		.shp23 { fill: url(#grd22) } 
		.shp24 { fill: url(#grd23) } 
		.shp25 { fill: url(#grd24) } 
	</style>
	<g id="Illustration">
		<g id="&lt;Group&gt;">
			<path id="&lt;Path&gt;" class="shp0" d="M2901.81 2816.39C2845.64 2875.51 2792.5 2913.64 2750.52 2943.77C2256.98 3297.89 1672.99 3194.66 1548.88 3169.45C1365.6 3132.23 1011.33 3060.28 755.2 2759.07C367.7 2303.37 428.04 1585.44 728.61 1111.52C783.59 1024.83 1074.01 543.69 1664.29 466.53C2021.52 419.83 2437.93 514.01 2739.49 766.66C3372.48 1296.98 3327.41 2368.32 2901.81 2816.39Z" />
			<path id="&lt;Path&gt;" class="shp1" d="M3239.78 3248.95L2108.29 3248.95L2108.29 1464.7C2108.29 1437.83 2130.07 1416.04 2156.95 1416.04L3208.81 1416.04C3235.68 1416.04 3257.47 1437.83 3257.47 1464.7L3257.47 3231.26C3257.47 3241.03 3249.55 3248.95 3239.78 3248.95Z" />
			<path id="&lt;Path&gt;" class="shp2" d="M2504.93 3248.95L1503.37 3248.95L1503.37 2033.41C1503.37 2006.54 1525.15 1984.75 1552.03 1984.75L2456.27 1984.75C2483.14 1984.75 2504.93 2006.54 2504.93 2033.41L2504.93 3248.95Z" />
			<path id="&lt;Path&gt;" class="shp1" d="M1891.7 3248.95L965.7 3248.95C955.93 3248.95 948.01 3241.03 948.01 3231.26L948.01 2476.33C948.01 2449.46 969.8 2427.67 996.67 2427.67L1843.04 2427.67C1869.92 2427.67 1891.7 2449.46 1891.7 2476.33L1891.7 3248.95Z" />
			<path id="&lt;Path&gt;" class="shp3" d="M1315.55 3255L470.22 3255C460.45 3255 452.53 3247.08 452.53 3237.31L452.53 2749.59C452.53 2722.72 474.32 2700.93 501.19 2700.93L1266.89 2700.93C1293.77 2700.93 1315.55 2722.72 1315.55 2749.59L1315.55 3255Z" />
			<g id="&lt;Group&gt;">
				<g id="&lt;Group&gt;" style="opacity: 0.302">
					<path id="&lt;Compound Path&gt;" class="shp4" d="M1202.89 1163.39C1194.57 1160.73 1189.43 1152.16 1191.24 1143.41C1195.21 1124.29 1200.08 1105.06 1205.69 1086.25C1208.43 1077.1 1218.06 1071.9 1227.21 1074.63C1227.32 1074.66 1227.42 1074.7 1227.53 1074.73C1236.48 1077.59 1241.53 1087.1 1238.83 1096.14C1233.49 1114.01 1228.87 1132.28 1225.1 1150.44C1223.16 1159.79 1214 1165.8 1204.65 1163.86C1204.05 1163.73 1203.46 1163.57 1202.89 1163.39ZM1249.79 1020.26C1249.14 1020.06 1248.5 1019.81 1247.87 1019.52C1239.18 1015.57 1235.34 1005.32 1239.29 996.62C1247.41 978.77 1256.38 961.09 1265.94 944.08C1270.62 935.75 1281.12 932.8 1289.49 937.47C1297.81 942.15 1300.76 952.69 1296.09 961.01C1287 977.19 1278.48 993.98 1270.77 1010.95C1267.1 1019.01 1258.02 1022.89 1249.79 1020.26ZM1327.03 891.02C1325.2 890.43 1323.43 889.53 1321.81 888.29C1314.22 882.5 1312.76 871.65 1318.55 864.06C1330.41 848.5 1343.1 833.25 1356.27 818.76C1362.7 811.69 1373.63 811.18 1380.69 817.58C1387.76 824 1388.28 834.94 1381.87 842.01C1369.36 855.77 1357.31 870.24 1346.04 885.02C1341.49 891 1333.8 893.18 1327.03 891.02ZM1431.26 782.27C1428.23 781.3 1425.43 779.48 1423.25 776.86C1417.14 769.52 1418.14 758.62 1425.48 752.51C1440.54 739.99 1456.32 727.96 1472.38 716.78C1480.22 711.33 1490.99 713.25 1496.45 721.08C1501.91 728.92 1499.98 739.69 1492.14 745.15C1476.89 755.78 1461.9 767.19 1447.59 779.1C1442.88 783.02 1436.7 784.01 1431.26 782.27ZM1557.12 699.49C1552.87 698.14 1549.14 695.15 1546.97 690.86C1542.64 682.34 1546.04 671.93 1554.55 667.61C1571.97 658.76 1590.01 650.53 1608.17 643.17C1617.02 639.57 1627.11 643.82 1630.7 652.68C1634.29 661.52 1630.03 671.61 1621.18 675.2C1603.91 682.21 1586.76 690.03 1570.21 698.44C1565.99 700.58 1561.3 700.83 1557.12 699.49ZM1698.14 646.63C1692.64 644.87 1688.14 640.4 1686.62 634.38C1684.29 625.12 1689.9 615.73 1699.16 613.39C1718.13 608.6 1737.55 604.57 1756.87 601.41C1766.3 599.87 1775.18 606.26 1776.72 615.69C1778.26 625.1 1771.87 634 1762.45 635.54C1744.09 638.54 1725.65 642.37 1707.62 646.92C1704.37 647.74 1701.11 647.57 1698.14 646.63ZM2314.14 800.21C2311.86 799.48 2309.7 798.27 2307.81 796.56C2294.04 784.09 2279.54 772.06 2264.71 760.8C2257.11 755.02 2255.63 744.18 2261.4 736.58C2267.18 728.97 2278.02 727.49 2285.63 733.26C2301.24 745.12 2316.52 757.79 2331.02 770.92C2338.1 777.33 2338.64 788.26 2332.23 795.34C2327.53 800.53 2320.4 802.21 2314.14 800.21ZM1847.28 626.34C1840.45 624.16 1835.43 617.83 1835.26 610.26C1835.04 600.71 1842.6 592.8 1852.15 592.58C1871.71 592.13 1891.54 592.53 1911.07 593.77C1920.59 594.41 1927.84 602.58 1927.23 612.11C1926.63 621.64 1918.42 628.87 1908.89 628.28C1890.34 627.1 1871.52 626.72 1852.94 627.15C1850.96 627.19 1849.06 626.91 1847.28 626.34ZM2191.81 712.37C2190.72 712.02 2189.65 711.56 2188.62 710.98C2172.39 701.91 2155.56 693.42 2138.6 685.74C2129.9 681.8 2126.04 671.55 2129.98 662.86C2133.92 654.16 2144.17 650.26 2152.86 654.24C2170.71 662.32 2188.42 671.26 2205.49 680.8C2213.82 685.46 2216.8 696 2212.14 704.33C2208.06 711.63 2199.48 714.82 2191.81 712.37ZM1997.21 639.87C1988.9 637.22 1983.76 628.66 1985.56 619.93C1987.48 610.58 1996.62 604.56 2005.98 606.48C2025.13 610.42 2044.36 615.24 2063.15 620.81C2063.26 620.84 2063.38 620.88 2063.5 620.92C2072.44 623.77 2077.49 633.26 2074.81 642.3C2072.09 651.45 2062.47 656.68 2053.32 653.96C2035.47 648.67 2017.2 644.09 1999.01 640.35C1998.39 640.22 1997.79 640.06 1997.21 639.87Z" />
					<path id="&lt;Path&gt;" class="shp5" d="M2396.4 889.49C2393.16 888.46 2390.18 886.46 2387.96 883.55C2382.54 876.47 2376.87 869.4 2371.14 862.5C2365.02 855.17 2366.02 844.26 2373.35 838.15C2380.69 832.04 2391.6 833.02 2397.7 840.38C2403.74 847.62 2409.69 855.07 2415.4 862.51C2421.21 870.09 2419.77 880.95 2412.2 886.75C2407.53 890.33 2401.61 891.16 2396.4 889.49Z" />
				</g>
				<g id="&lt;Group&gt;" style="opacity: 0.302">
					<path id="&lt;Path&gt;" class="shp6" d="M2528.21 1399.84C2520.26 1397.3 2515.1 1389.3 2516.39 1380.79C2517.73 1371.98 2518.9 1362.99 2519.88 1354.08C2520.92 1344.58 2529.46 1337.73 2538.95 1338.77C2548.48 1339.82 2555.29 1348.35 2554.25 1357.84C2553.22 1367.22 2551.99 1376.69 2550.58 1385.97C2549.15 1395.41 2540.34 1401.9 2530.9 1400.48C2529.97 1400.34 2529.07 1400.12 2528.21 1399.84Z" />
					<path id="&lt;Compound Path&gt;" class="shp7" d="M1658.11 1941.11C1650.53 1938.69 1642.97 1936.13 1635.42 1933.43C1626.43 1930.22 1621.74 1920.33 1624.95 1911.33C1628.16 1902.34 1638.1 1897.64 1647.04 1900.86C1664.47 1907.08 1682.11 1912.58 1699.68 1917.26C1708.91 1919.73 1714.39 1929.18 1711.94 1938.41C1709.48 1947.64 1700.01 1953.13 1690.78 1950.67C1679.91 1947.78 1668.92 1944.56 1658.11 1941.11ZM1551.75 1896.94C1550.83 1896.65 1549.92 1896.27 1549.03 1895.81C1531.91 1886.93 1514.97 1877.22 1498.69 1866.96C1490.62 1861.87 1488.2 1851.19 1493.29 1843.12C1498.38 1835.04 1509.08 1832.6 1517.13 1837.71C1532.59 1847.46 1548.68 1856.68 1564.95 1865.12C1573.43 1869.52 1576.74 1879.95 1572.34 1888.42C1568.4 1896.01 1559.63 1899.46 1551.75 1896.94ZM1780.11 1967.92C1772.34 1965.44 1767.19 1957.72 1768.23 1949.34C1769.4 1939.86 1778.04 1933.13 1787.51 1934.3C1805.64 1936.55 1824.11 1938.05 1842.42 1938.75C1851.96 1939.13 1859.4 1947.15 1859.03 1956.69C1858.66 1966.23 1850.63 1973.67 1841.08 1973.3C1821.81 1972.56 1802.35 1970.98 1783.26 1968.62C1782.17 1968.48 1781.12 1968.25 1780.11 1967.92ZM1428.47 1814.6C1426.38 1813.93 1424.39 1812.85 1422.6 1811.35C1407.86 1798.93 1393.48 1785.74 1379.84 1772.13C1373.09 1765.39 1373.08 1754.44 1379.82 1747.69C1386.57 1740.92 1397.51 1740.91 1404.27 1747.66C1417.22 1760.58 1430.88 1773.11 1444.88 1784.9C1452.18 1791.05 1453.11 1801.96 1446.96 1809.26C1442.31 1814.78 1434.94 1816.67 1428.47 1814.6ZM1928.22 1969.73C1921.85 1967.69 1916.98 1962.04 1916.27 1954.96C1915.33 1945.45 1922.27 1936.99 1931.78 1936.05C1949.94 1934.25 1968.29 1931.65 1986.31 1928.31C1995.7 1926.58 2004.72 1932.78 2006.45 1942.17C2008.19 1951.56 2001.99 1960.57 1992.6 1962.31C1973.63 1965.82 1954.31 1968.56 1935.18 1970.45C1932.76 1970.7 1930.4 1970.42 1928.22 1969.73ZM2073.15 1938.98C2068.06 1937.36 2063.79 1933.4 2061.98 1927.94C2058.99 1918.87 2063.91 1909.09 2072.98 1906.1C2090.36 1900.35 2107.71 1893.81 2124.54 1886.65C2133.32 1882.89 2143.47 1886.98 2147.22 1895.78C2150.95 1904.57 2146.87 1914.72 2138.08 1918.46C2120.37 1926 2102.12 1932.88 2083.82 1938.93C2080.22 1940.12 2076.51 1940.06 2073.15 1938.98ZM2207.93 1877.38C2204.06 1876.14 2200.6 1873.54 2198.35 1869.78C2193.46 1861.58 2196.13 1850.97 2204.33 1846.07C2220.07 1836.67 2235.57 1826.51 2250.43 1815.86C2258.18 1810.29 2268.98 1812.06 2274.55 1819.83C2280.11 1827.59 2278.33 1838.39 2270.57 1843.96C2254.94 1855.16 2238.62 1865.87 2222.06 1875.76C2217.63 1878.4 2212.49 1878.84 2207.93 1877.38ZM2326.05 1787.85C2323.37 1787 2320.86 1785.47 2318.79 1783.28C2312.21 1776.36 2312.5 1765.42 2319.43 1758.85C2332.72 1746.24 2345.62 1732.93 2357.78 1719.27C2364.13 1712.14 2375.07 1711.51 2382.19 1717.85C2389.32 1724.19 2389.96 1735.12 2383.61 1742.26C2370.81 1756.64 2357.22 1770.66 2343.23 1783.93C2338.48 1788.43 2331.87 1789.71 2326.05 1787.85ZM2421.68 1674.53C2420.17 1674.05 2418.71 1673.35 2417.32 1672.43C2409.39 1667.12 2407.26 1656.38 2412.57 1648.45C2422.73 1633.26 2432.37 1617.44 2441.23 1601.41C2445.86 1593.06 2456.4 1590.05 2464.73 1594.65C2473.09 1599.27 2476.11 1609.8 2471.49 1618.15C2462.16 1635.02 2452 1651.68 2441.31 1667.67C2436.92 1674.22 2428.83 1676.82 2421.68 1674.53ZM2490.03 1543.06C2489.69 1542.96 2489.36 1542.83 2489.02 1542.71C2480.12 1539.25 2475.7 1529.24 2479.16 1520.34C2484.03 1507.77 2488.58 1494.91 2492.67 1482.09C2494.16 1477.46 2495.58 1472.81 2496.95 1468.16C2499.66 1459 2509.28 1453.77 2518.44 1456.49C2527.76 1459.05 2532.82 1468.81 2530.12 1477.96C2528.67 1482.85 2527.17 1487.73 2525.61 1492.62C2521.3 1506.09 2516.52 1519.63 2511.39 1532.84C2508.07 1541.41 2498.67 1545.82 2490.03 1543.06Z" />
					<path id="&lt;Path&gt;" class="shp8" d="M1326.11 1706.8C1322.83 1705.75 1319.84 1703.72 1317.61 1700.78C1311.95 1693.33 1306.34 1685.61 1300.94 1677.84C1295.49 1670 1297.42 1659.23 1305.26 1653.78C1313.1 1648.33 1323.87 1650.25 1329.33 1658.1C1334.46 1665.47 1339.78 1672.81 1345.15 1679.89C1350.92 1687.49 1349.44 1698.33 1341.83 1704.11C1337.16 1707.64 1331.28 1708.45 1326.11 1706.8Z" />
				</g>
				<g id="&lt;Group&gt;">
					<path id="&lt;Compound Path&gt;" class="shp9" d="M1372.79 1547.56C1374.1 1550.91 1377.4 1553.05 1381 1552.9L1483.59 1548.47C1510.88 1587.9 1544.65 1623.27 1584.22 1652.75L1576.22 1755.06C1575.93 1758.65 1577.96 1762.02 1581.26 1763.46L1694.22 1812.57C1697.52 1814.01 1701.37 1813.19 1703.8 1810.54L1773.16 1734.91C1821.72 1743.75 1870.61 1744.33 1918.07 1737.4L1984.79 1815.45C1987.13 1818.19 1990.94 1819.14 1994.29 1817.82L2108.89 1772.68C2112.25 1771.36 2114.39 1768.06 2114.23 1764.47L2109.8 1661.88C2149.24 1634.59 2184.6 1600.82 2214.09 1561.24L2316.4 1569.25C2319.98 1569.53 2323.35 1567.51 2324.79 1564.2L2373.91 1451.25C2375.34 1447.95 2374.53 1444.1 2371.87 1441.67L2296.25 1372.3C2305.09 1323.75 2305.67 1274.85 2298.73 1227.4L2376.79 1160.68C2379.52 1158.34 2380.47 1154.52 2379.15 1151.17L2334.01 1036.57C2332.7 1033.22 2329.4 1031.08 2325.8 1031.23L2223.21 1035.67C2195.92 996.23 2162.15 960.86 2122.58 931.38L2130.58 829.07C2130.87 825.48 2128.84 822.11 2125.54 820.67L2012.58 771.56C2009.28 770.12 2005.43 770.94 2003 773.59L1933.64 849.22C1885.08 840.38 1836.18 839.8 1788.73 846.74L1722.01 768.68C1719.67 765.94 1715.85 764.99 1712.51 766.31L1597.9 811.45C1594.56 812.77 1592.41 816.07 1592.57 819.67L1597 922.26C1557.56 949.54 1522.19 983.31 1492.71 1022.89L1390.4 1014.88C1386.82 1014.6 1383.44 1016.63 1382.01 1019.93L1332.89 1132.88C1331.46 1136.18 1332.27 1140.03 1334.93 1142.47L1410.55 1211.83C1401.71 1260.38 1401.13 1309.28 1408.07 1356.73L1330.01 1423.45C1327.28 1425.79 1326.33 1429.61 1327.65 1432.96L1372.79 1547.56Z" />
					<path id="&lt;Compound Path&gt;" fill-rule="evenodd" class="shp10" d="M1815.64 1409.99C1758.15 1391.62 1721.16 1333.28 1731.23 1271.99C1742.3 1204.62 1806.11 1158.83 1873.48 1169.9C1906.12 1175.25 1934.71 1193.01 1953.99 1219.87C1973.27 1246.74 1980.94 1279.51 1975.57 1312.14C1964.5 1379.51 1900.69 1425.31 1833.32 1414.24C1827.25 1413.24 1821.34 1411.81 1815.64 1409.99ZM1882.48 1201.69C1878.04 1200.27 1873.48 1199.17 1868.79 1198.39C1817.15 1189.9 1768.22 1225.02 1759.73 1276.67C1751.24 1328.32 1786.34 1377.26 1838.01 1385.74C1889.65 1394.23 1938.58 1359.11 1947.07 1307.46C1951.18 1282.44 1945.31 1257.32 1930.52 1236.72C1918.5 1219.98 1901.77 1207.85 1882.48 1201.69Z" />
					<path id="&lt;Path&gt;" class="shp10" d="M1763.63 1581.1C1753.76 1577.94 1743.99 1574.28 1734.35 1570.09C1731.32 1568.77 1728.31 1567.4 1725.32 1565.99C1710.58 1559 1696.42 1550.86 1683.05 1541.68C1682.87 1541.56 1682.69 1541.43 1682.5 1541.31C1681.99 1540.95 1681.47 1540.59 1680.96 1540.23C1679.96 1539.53 1678.96 1538.82 1677.97 1538.11C1675.37 1536.24 1674.38 1532.96 1675.3 1530.06C1675.52 1529.35 1675.86 1528.67 1676.32 1528.04C1678.64 1524.8 1683.15 1524.07 1686.39 1526.38C1703.06 1538.35 1721.14 1548.59 1740.11 1556.84C1834.34 1597.83 1938.69 1584.62 2018.17 1531.05C2062.38 1501.25 2098.89 1458.96 2121.68 1406.55C2125.68 1397.36 2129.19 1388.03 2132.19 1378.61C2152.43 1315.23 2150.28 1247.38 2125.56 1184.64C2097.18 1112.57 2042.42 1055.86 1971.39 1024.98C1824.68 961.2 1653.58 1028.64 1589.82 1175.27C1585.89 1184.31 1582.43 1193.52 1579.45 1202.85C1566.54 1243.28 1562.62 1286.09 1568.12 1328.21C1568.26 1329.3 1568.16 1330.36 1567.84 1331.34C1567.02 1333.92 1564.77 1335.93 1561.9 1336.3C1557.94 1336.81 1554.32 1334.04 1553.8 1330.08C1548.03 1285.85 1552.14 1240.91 1565.69 1198.46C1568.82 1188.66 1572.45 1179 1576.57 1169.51C1643.51 1015.56 1823.26 944.81 1977.15 1011.73C2051.72 1044.15 2109.2 1103.68 2139 1179.34C2164.95 1245.21 2167.21 1316.44 2145.96 1382.98C2142.8 1392.87 2139.12 1402.66 2134.93 1412.3C2102.5 1486.88 2042.97 1544.36 1967.32 1574.16C1901.44 1600.11 1830.19 1602.36 1763.63 1581.1Z" />
				</g>
			</g>
			<g id="&lt;Group&gt;">
				<path id="&lt;Path&gt;" class="shp11" d="M703.79 2641.74L689.59 2670.94C689.59 2676.56 693.51 2681.41 699.01 2682.6C704.7 2683.83 712.25 2684.62 719.58 2682.8C724.16 2681.66 727.51 2677.72 728.07 2673.04L755.64 2599.3L703.79 2641.74Z" />
				<g id="&lt;Group&gt;">
					<path id="&lt;Path&gt;" class="shp12" d="M1092.32 2443.92C1073.38 2427.43 1043.57 2412.59 1002.88 2399.38L966.15 2400.18C956.83 2410.67 952.62 2430.99 950.82 2443.73C957.74 2447.87 970.69 2451.5 994.45 2452.63C1038.45 2454.73 1073.95 2448.3 1092.32 2443.92Z" />
					<path id="&lt;Path&gt;" class="shp13" d="M1092.32 2443.92C1073.95 2448.3 1038.45 2454.73 994.45 2452.63C970.69 2451.5 957.74 2447.87 950.82 2443.73C950.68 2444.75 950.54 2445.74 950.43 2446.66C949.77 2451.88 953.01 2456.79 958.04 2458.33C991.59 2468.61 1065.37 2465.31 1094.13 2463.52C1100.28 2463.14 1103.5 2455.93 1099.55 2451.19C1097.51 2448.73 1095.06 2446.3 1092.32 2443.92Z" />
				</g>
				<path id="&lt;Path&gt;" class="shp14" d="M983.35 2368.48L969.15 2397.68C969.15 2403.31 973.07 2408.15 978.57 2409.34C984.26 2410.57 991.81 2411.36 999.14 2409.54C1003.72 2408.4 1007.08 2404.47 1007.63 2399.78L1025.52 2368.48L983.35 2368.48Z" />
				<path id="&lt;Path&gt;" class="shp15" d="M702.78 2647.68L734.29 2645.39C739.35 2645.55 746.51 2639.82 747.67 2634.9C759.6 2584.53 940.81 2185.47 981.75 2112.19L853.43 2056.03C743.37 2450.17 693.16 2647.39 702.78 2647.68Z" />
				<path id="&lt;Path&gt;" class="shp16" d="M1184.97 2060.08C1153.65 2043.28 1094.39 2027.61 1007.17 2013.08L855 1971.88C827.15 2054.97 837.62 2104.01 886.43 2119C959.64 2141.49 1065.46 2130.85 1109.83 2124.96C1070.29 2153.36 1026.85 2236.35 979.52 2373.91C995.45 2374.25 1009.89 2375.94 1022.86 2378.97C1128.5 2247.47 1186.86 2164.77 1197.94 2130.84C1208.89 2097.28 1224.23 2081.15 1184.97 2060.08Z" />
				<path id="&lt;Path&gt;" class="shp17" d="M1276.04 1649.12C1254.1 1647.58 1209.79 1654.05 1143.12 1668.54L1194.47 1710.77C1221.46 1704.2 1243.94 1699.16 1261.92 1695.65C1306.32 1667.1 1311.02 1651.59 1276.04 1649.12Z" />
				<g id="&lt;Group&gt;">
					<path id="&lt;Path&gt;" class="shp18" d="M1393.6 1679C1364.2 1706.3 1340.56 1723.66 1322.7 1731.07C1295.91 1742.19 1280.25 1754.31 1263.65 1724.65C1247.05 1694.98 1253.44 1662.84 1275.59 1638.86C1298.27 1613.97 1315.92 1601.21 1328.56 1600.56C1341.2 1599.92 1362.88 1626.07 1393.6 1679Z" />
					<path id="&lt;Path&gt;" class="shp19" d="M1298.96 1642.78L1300.36 1646.77C1319.01 1627.9 1332.01 1622.58 1339.35 1630.84C1350.36 1643.21 1382.16 1696.39 1406.82 1701.61C1430.6 1706.64 1452.18 1687.13 1453.68 1668.74C1453.78 1667.58 1452.89 1666.56 1451.73 1666.39L1448.78 1665.95C1446.76 1665.64 1446.13 1663.03 1447.79 1661.84C1449.37 1660.72 1448.92 1658.21 1447.03 1657.79C1439.62 1656.14 1426.14 1649.37 1411.42 1623.68C1390.53 1587.22 1365.7 1566.99 1338.54 1575.82C1336.81 1576.37 1335.23 1574.88 1335.61 1573.11C1336.35 1569.62 1335.56 1564.72 1328.22 1560.38C1315.46 1552.84 1293.65 1565.42 1282.68 1595.64C1282.16 1597.07 1280.42 1597.67 1279.21 1596.74C1274.94 1593.46 1266.13 1589.43 1263.11 1608.95C1260.03 1628.92 1264.51 1638.52 1266.79 1641.94C1267.4 1642.86 1268.56 1643.21 1269.58 1642.78L1292.94 1632.92C1294.14 1632.41 1295.53 1633.03 1295.97 1634.26L1298.96 1642.78Z" />
					<path id="&lt;Path&gt;" class="shp20" d="M1294.31 1645.51C1314.45 1631.96 1319.67 1621.31 1309.96 1613.55C1295.4 1601.92 1275.42 1634.38 1278.38 1646.8L1294.31 1645.51Z" />
				</g>
				<path id="&lt;Path&gt;" class="shp21" d="M1569.56 1774.9C1586.1 1780.78 1595.9 1778.79 1598.95 1768.95C1603.53 1754.19 1590.74 1714.82 1598.86 1709.39C1606.98 1703.95 1621 1676.79 1616.56 1664.37L1606.39 1674.03C1611.01 1658.84 1610.78 1648.01 1605.71 1641.54L1586.47 1691.03C1569.47 1730.27 1563.83 1758.23 1569.56 1774.9Z" />
				<path id="&lt;Path&gt;" class="shp22" d="M1121.14 1676.61C1150.63 1644.08 1197.6 1653.2 1262.07 1703.98C1306.49 1738.98 1408.75 1752.92 1568.83 1745.81C1568.75 1754.88 1570.28 1764.88 1573.42 1775.84C1439.08 1812.15 1321.48 1817.98 1220.64 1793.33C1109.22 1919.63 1049.22 1995.16 1040.64 2019.89C968.23 2030.71 906.35 2014.7 855 1971.88C868.77 1929.17 897.95 1883.05 942.54 1833.53C1000.43 1769.23 1059.97 1716.93 1121.14 1676.61Z" />
				<path id="&lt;Path&gt;" class="shp23" d="M1144.37 1774.23C1143.56 1773.93 1143.11 1773.06 1143.34 1772.22C1143.59 1771.34 1144.51 1770.82 1145.4 1771.07C1145.97 1771.23 1202.94 1787.23 1211.92 1789.45C1212.81 1789.68 1213.36 1790.58 1213.14 1791.47C1212.92 1792.36 1212.02 1792.91 1211.12 1792.69C1202.09 1790.45 1145.07 1774.44 1144.5 1774.28C1144.45 1774.26 1144.41 1774.25 1144.37 1774.23Z" />
				<g id="&lt;Group&gt;">
					<path id="&lt;Path&gt;" class="shp24" d="M812.76 2717.18C793.82 2700.69 764.01 2685.85 723.32 2672.64L686.59 2673.44C677.27 2683.93 673.06 2704.25 671.26 2716.98C678.17 2721.13 691.13 2724.76 714.89 2725.89C758.89 2727.99 794.39 2721.55 812.76 2717.18Z" />
					<path id="&lt;Path&gt;" class="shp25" d="M812.76 2717.18C794.39 2721.55 758.89 2727.99 714.89 2725.89C691.13 2724.76 678.17 2721.13 671.26 2716.98C671.11 2718.01 670.98 2719 670.87 2719.91C670.21 2725.14 673.44 2730.05 678.48 2731.59C712.02 2741.87 785.8 2738.56 814.57 2736.78C820.72 2736.4 823.93 2729.19 819.99 2724.45C817.95 2721.99 815.49 2719.56 812.76 2717.18Z" />
				</g>
			</g>
		</g>
	</g>
</svg>